<?xml version="1.0" encoding="utf-8"?>
<!-- Generator: Adobe Illustrator 27.5.0, SVG Export Plug-In . SVG Version: 6.00 Build 0)  -->
<svg version="1.1" id="Layer_1" xmlns="http://www.w3.org/2000/svg" xmlns:xlink="http://www.w3.org/1999/xlink" x="0px" y="0px"
	 viewBox="0 0 550 400" style="enable-background:new 0 0 550 400;" xml:space="preserve">
<rect style="fill:#FFFFFF;" width="550" height="400"/>
<g>
	<g>
		<path style="fill:#D4E6FC;" d="M371.165,164.06c-1.148-3.039-8.79-20.647-33.015-20.647c-0.336,0-0.669,0.004-0.999,0.012
			c-7.908,0.189-14.902,2.022-19.978,5.742c-0.016,0.01-0.031,0.017-0.046,0.028c-0.04,0.028-0.078,0.061-0.118,0.089
			c-0.073,0.054-0.145,0.109-0.217,0.164c-0.241,0.181-0.479,0.372-0.716,0.574c-0.071,0.06-0.142,0.12-0.213,0.18
			c-0.09,0.078-0.179,0.159-0.268,0.24c-0.914,0.813-1.748,1.699-2.497,2.662c-5.429,6.629-9.323,16.722-9.323,16.722l-0.409-10.221
			h-8.148c0,0-7.252,22.214,7.194,24.758c5.478,0.965,9.248-0.132,11.821-1.864v19.176h36.378c2.116,0.959,4.48,1.302,7.133,0.178
			c0.138-0.058,0.269-0.119,0.405-0.178h4.431v-2.286C379.828,188.852,373.523,170.303,371.165,164.06z"/>
		
			<polygon style="fill:#0C5AE5;stroke:#0C5AE5;stroke-width:0.607;stroke-linecap:round;stroke-linejoin:round;stroke-miterlimit:10;" points="
			363.279,276.908 355.731,269.144 349.356,269.144 349.356,276.908 		"/>
		
			<polygon style="fill:#0C5AE5;stroke:#0C5AE5;stroke-width:0.607;stroke-linecap:round;stroke-linejoin:round;stroke-miterlimit:10;" points="
			321.763,276.908 326.648,269.144 333.023,269.144 333.023,276.908 		"/>
		
			<polygon style="fill:#FFFFFF;stroke:#0C5AE5;stroke-width:0.4089;stroke-linecap:round;stroke-linejoin:round;stroke-miterlimit:10;" points="
			318.031,201.532 318.031,271.2 337.586,271.2 337.586,215.625 340.133,215.625 343.719,271.2 363.279,271.2 359.693,215.625 
			358.781,201.532 		"/>
		<line style="fill:#D4E6FC;" x1="314.249" y1="173.438" x2="314.249" y2="185.665"/>
		
			<path style="fill:#0C5AE5;stroke:#0C5AE5;stroke-width:0.607;stroke-linecap:round;stroke-linejoin:round;stroke-miterlimit:10;" d="
			M339.507,136.247c0,0,7.157,1.855,7.585-6.85c0.428-8.705-13.543-11.841-16.832-8.204
			C326.971,124.831,339.507,136.247,339.507,136.247z"/>
		
			<path style="fill:#FFFFFF;stroke:#0C5AE5;stroke-width:0.4089;stroke-linecap:round;stroke-linejoin:round;stroke-miterlimit:10;" d="
			M338.836,148.14L338.836,148.14c-2.439,0-4.416-1.977-4.416-4.416v-14.351h8.831v14.351
			C343.252,146.163,341.275,148.14,338.836,148.14z"/>
		
			<path style="fill:#FFFFFF;stroke:#0C5AE5;stroke-width:0.4089;stroke-linecap:round;stroke-linejoin:round;stroke-miterlimit:10;" d="
			M346.354,130.092c0.108,1.35-0.899,2.533-2.249,2.642c-0.209,0.017-0.416,0.007-0.613-0.03c-0.096,0.9-0.378,1.751-0.808,2.51
			c-1.033,1.824-2.924,3.119-5.171,3.299c-3.603,0.289-6.755-2.395-7.044-5.998c-0.289-3.603,2.395-6.755,5.998-7.044
			c2.442-0.196,4.679,0.973,5.95,2.873c0.361-0.282,0.806-0.462,1.295-0.501C345.063,127.735,346.246,128.742,346.354,130.092z"/>
		
			<path style="fill:none;stroke:#0C5AE5;stroke-width:0.4089;stroke-linecap:round;stroke-linejoin:round;stroke-miterlimit:10;" d="
			M342.714,131.334c0,0-0.021-1.241,1.207-1.172"/>
		
			<path style="fill:#0C5AE5;stroke:#0C5AE5;stroke-width:0.607;stroke-linecap:round;stroke-linejoin:round;stroke-miterlimit:10;" d="
			M302.828,157.419h22.972l31.747,91.629h-25.553l-5.549-17.939h-24.391l-5.42,17.939h-25.682L302.828,157.419z M322.444,214.332
			l-8.13-28.392l-8.517,28.392H322.444z"/>
		<g>
			
				<polygon style="fill:#FFFFFF;stroke:#0C5AE5;stroke-width:0.4089;stroke-linecap:round;stroke-linejoin:round;stroke-miterlimit:10;" points="
				302.879,153.334 305.576,159.646 297.694,163.064 294.812,156.955 			"/>
			
				<line style="fill:none;stroke:#0C5AE5;stroke-width:0.4089;stroke-linecap:round;stroke-linejoin:round;stroke-miterlimit:10;" x1="303.938" y1="160.235" x2="302.051" y2="156.232"/>
			
				<line style="fill:none;stroke:#0C5AE5;stroke-width:0.4089;stroke-linecap:round;stroke-linejoin:round;stroke-miterlimit:10;" x1="301.737" y1="160.966" x2="299.851" y2="156.963"/>
			
				<line style="fill:none;stroke:#0C5AE5;stroke-width:0.4089;stroke-linecap:round;stroke-linejoin:round;stroke-miterlimit:10;" x1="299.612" y1="161.852" x2="297.725" y2="157.85"/>
		</g>
		<g>
			
				<polygon style="fill:#FFFFFF;stroke:#0C5AE5;stroke-width:0.4089;stroke-linecap:round;stroke-linejoin:round;stroke-miterlimit:10;" points="
				347.065,199.225 342.999,203.316 339.724,207.188 341.101,208.567 339.891,210.159 346.679,215.432 355.5,204.832 			"/>
			
				<line style="fill:none;stroke:#0C5AE5;stroke-width:0.4089;stroke-linecap:round;stroke-linejoin:round;stroke-miterlimit:10;" x1="341.302" y1="211.177" x2="344.221" y2="207.851"/>
			
				<line style="fill:none;stroke:#0C5AE5;stroke-width:0.4089;stroke-linecap:round;stroke-linejoin:round;stroke-miterlimit:10;" x1="343.216" y1="212.487" x2="346.134" y2="209.161"/>
			
				<line style="fill:none;stroke:#0C5AE5;stroke-width:0.4089;stroke-linecap:round;stroke-linejoin:round;stroke-miterlimit:10;" x1="345.013" y1="213.926" x2="347.932" y2="210.6"/>
			
				<line style="fill:none;stroke:#0C5AE5;stroke-width:0.4089;stroke-linecap:round;stroke-linejoin:round;stroke-miterlimit:10;" x1="341.063" y1="208.636" x2="343.216" y2="206.149"/>
		</g>
		<path style="fill:#D4E6FC;" d="M357.947,171.121c6.133,13.083-12.662,27.495-12.662,27.495l11.246,8.382
			c0,0,15.593-12.886,17.121-22.365"/>
	</g>
	<g>
		<path style="fill:#D4E6FC;" d="M227.108,153.525c-0.011-0.015-0.023-0.028-0.034-0.043c-4.219-6.515-12.028-9.614-22.445-9.863
			c-0.329-0.008-0.662-0.012-0.999-0.012c-24.224,0-31.867,17.608-33.015,20.647c-2.358,6.243-8.663,24.792,8.586,35.329v2.286
			h4.431c0.136,0.059,0.267,0.12,0.405,0.178c2.653,1.124,5.017,0.781,7.133-0.178h28.846v7.999h14.719v-29.677
			C234.735,171.098,232.487,160.858,227.108,153.525z"/>
		
			<path style="fill:#0C5AE5;stroke:#0C5AE5;stroke-width:0.607;stroke-linecap:round;stroke-linejoin:round;stroke-miterlimit:10;" d="
			M197.949,136.212c-1.465-1.158-2.816-2.742-3.726-3.71c-2.862-3.039-3.179-7.524-0.671-10.913c1.933-2.613,5.09-4.126,8.301-4.632
			c3.044-0.479,7.806-0.712,9.166,2.751c1.973,5.025-0.349,12.748-4.202,16.126c-1.587,1.391-3.43,1.7-5.474,1.824
			C200.24,137.725,199.061,137.091,197.949,136.212z"/>
		
			<polygon style="fill:#0C5AE5;stroke:#0C5AE5;stroke-width:0.607;stroke-linecap:round;stroke-linejoin:round;stroke-miterlimit:10;" points="
			178.501,277.103 186.049,269.339 192.424,269.339 192.424,277.103 		"/>
		
			<polygon style="fill:#0C5AE5;stroke:#0C5AE5;stroke-width:0.607;stroke-linecap:round;stroke-linejoin:round;stroke-miterlimit:10;" points="
			220.017,277.103 215.132,269.339 208.757,269.339 208.757,277.103 		"/>
		
			<polygon style="fill:#FFFFFF;stroke:#0C5AE5;stroke-width:0.4089;stroke-linecap:round;stroke-linejoin:round;stroke-miterlimit:10;" points="
			223.749,201.727 223.749,271.395 204.194,271.395 204.194,215.82 201.647,215.82 198.061,271.395 178.501,271.395 182.087,215.82 
			182.999,201.727 		"/>
		
			<line style="fill:#FFFFFF;stroke:#0C5AE5;stroke-width:0.4089;stroke-linecap:round;stroke-linejoin:round;stroke-miterlimit:10;" x1="225.74" y1="170.703" x2="225.74" y2="182.93"/>
		
			<path style="fill:#FFFFFF;stroke:#0C5AE5;stroke-width:0.4089;stroke-linecap:round;stroke-linejoin:round;stroke-miterlimit:10;" d="
			M202.944,148.335L202.944,148.335c2.439,0,4.416-1.977,4.416-4.416v-14.351h-8.831v14.351
			C198.528,146.358,200.505,148.335,202.944,148.335z"/>
		
			<path style="fill:#FFFFFF;stroke:#0C5AE5;stroke-width:0.4089;stroke-linecap:round;stroke-linejoin:round;stroke-miterlimit:10;" d="
			M195.426,130.287c-0.108,1.35,0.899,2.533,2.249,2.641c0.209,0.017,0.416,0.007,0.613-0.03c0.097,0.9,0.378,1.751,0.808,2.51
			c1.033,1.824,2.924,3.119,5.171,3.299c3.603,0.289,6.755-2.395,7.044-5.997c0.289-3.603-2.395-6.755-5.998-7.044
			c-2.442-0.196-4.679,0.973-5.95,2.873c-0.361-0.282-0.806-0.462-1.295-0.501C196.718,127.93,195.534,128.937,195.426,130.287z"/>
		
			<path style="fill:none;stroke:#0C5AE5;stroke-width:0.4089;stroke-linecap:round;stroke-linejoin:round;stroke-miterlimit:10;" d="
			M199.067,131.529c0,0,0.021-1.241-1.207-1.172"/>
		
			<path style="fill:#0C5AE5;stroke:#0C5AE5;stroke-width:0.607;stroke-linecap:round;stroke-linejoin:round;stroke-miterlimit:10;" d="
			M267.107,264.866v22.07h-65.691v-92.175h64.523v22.07h-39.207v12.982h33.494v20.512h-33.494v14.54H267.107z"/>
		<g>
			
				<polygon style="fill:#FFFFFF;stroke:#0C5AE5;stroke-width:0.4089;stroke-linecap:round;stroke-linejoin:round;stroke-miterlimit:10;" points="
				229.578,191.953 228.607,193.697 228.819,198.764 230.766,198.846 230.954,200.837 239.52,200.122 239.916,192.163 			"/>
			
				<line style="fill:none;stroke:#0C5AE5;stroke-width:0.4089;stroke-linecap:round;stroke-linejoin:round;stroke-miterlimit:10;" x1="232.682" y1="200.631" x2="232.578" y2="196.207"/>
			
				<line style="fill:none;stroke:#0C5AE5;stroke-width:0.4089;stroke-linecap:round;stroke-linejoin:round;stroke-miterlimit:10;" x1="234.977" y1="200.299" x2="234.872" y2="195.875"/>
			
				<line style="fill:none;stroke:#0C5AE5;stroke-width:0.4089;stroke-linecap:round;stroke-linejoin:round;stroke-miterlimit:10;" x1="237.274" y1="200.141" x2="237.17" y2="195.717"/>
			
				<line style="fill:none;stroke:#0C5AE5;stroke-width:0.4089;stroke-linecap:round;stroke-linejoin:round;stroke-miterlimit:10;" x1="230.785" y1="198.923" x2="230.686" y2="195.635"/>
		</g>
		<g>
			
				<polygon style="fill:#FFFFFF;stroke:#0C5AE5;stroke-width:0.4089;stroke-linecap:round;stroke-linejoin:round;stroke-miterlimit:10;" points="
				193.897,199.42 197.964,203.511 201.238,207.383 199.861,208.762 201.071,210.354 194.283,215.627 185.462,205.027 			"/>
			
				<line style="fill:none;stroke:#0C5AE5;stroke-width:0.4089;stroke-linecap:round;stroke-linejoin:round;stroke-miterlimit:10;" x1="199.66" y1="211.372" x2="196.741" y2="208.046"/>
			
				<line style="fill:none;stroke:#0C5AE5;stroke-width:0.4089;stroke-linecap:round;stroke-linejoin:round;stroke-miterlimit:10;" x1="197.747" y1="212.682" x2="194.828" y2="209.356"/>
			
				<line style="fill:none;stroke:#0C5AE5;stroke-width:0.4089;stroke-linecap:round;stroke-linejoin:round;stroke-miterlimit:10;" x1="195.949" y1="214.121" x2="193.03" y2="210.795"/>
			
				<line style="fill:none;stroke:#0C5AE5;stroke-width:0.4089;stroke-linecap:round;stroke-linejoin:round;stroke-miterlimit:10;" x1="199.899" y1="208.831" x2="197.747" y2="206.344"/>
		</g>
		<path style="fill:#D4E6FC;" d="M183.015,171.316c-6.133,13.083,12.662,27.495,12.662,27.495l-11.246,8.382
			c0,0-13.807-10.989-16.125-21.681"/>
	</g>
	<g>
		<g>
			
				<polygon style="fill:#FFFFFF;stroke:#0C5AE5;stroke-width:0.4089;stroke-linecap:round;stroke-linejoin:round;stroke-miterlimit:10;" points="
				397.605,180.687 392.414,183.201 389.307,184.659 390.322,186.723 387.215,188.629 391.875,195.852 403.708,188.771 			"/>
			
				<line style="fill:none;stroke:#0C5AE5;stroke-width:0.4089;stroke-linecap:round;stroke-linejoin:round;stroke-miterlimit:10;" x1="388.21" y1="190.057" x2="392.066" y2="187.885"/>
			
				<line style="fill:none;stroke:#0C5AE5;stroke-width:0.4089;stroke-linecap:round;stroke-linejoin:round;stroke-miterlimit:10;" x1="389.582" y1="191.927" x2="393.437" y2="189.754"/>
			
				<line style="fill:none;stroke:#0C5AE5;stroke-width:0.4089;stroke-linecap:round;stroke-linejoin:round;stroke-miterlimit:10;" x1="390.802" y1="193.88" x2="394.657" y2="191.707"/>
			
				<line style="fill:none;stroke:#0C5AE5;stroke-width:0.4089;stroke-linecap:round;stroke-linejoin:round;stroke-miterlimit:10;" x1="388.826" y1="187.58" x2="391.68" y2="185.946"/>
		</g>
		
			<polygon style="fill:#0C5AE5;stroke:#0C5AE5;stroke-width:0.607;stroke-linecap:round;stroke-linejoin:round;stroke-miterlimit:10;" points="
			450.483,277.03 458.03,269.266 464.405,269.266 464.405,277.03 		"/>
		
			<polygon style="fill:#0C5AE5;stroke:#0C5AE5;stroke-width:0.607;stroke-linecap:round;stroke-linejoin:round;stroke-miterlimit:10;" points="
			428.736,277.03 436.074,269.266 442.449,269.266 442.449,277.03 		"/>
		
			<polygon style="fill:#FFFFFF;stroke:#0C5AE5;stroke-width:0.4089;stroke-linecap:round;stroke-linejoin:round;stroke-miterlimit:10;" points="
			427.456,201.654 427.456,271.323 447.012,271.323 447.012,215.747 449.559,215.747 450.283,271.323 469.842,271.323 
			469.119,215.747 469.025,201.654 		"/>
		<path style="fill:#D4E6FC;" d="M475.77,163.151c-2.538-13.196-15.679-19.615-28.194-19.615c-0.337,0-0.669,0.004-0.999,0.012
			c-14.626,0.349-26.142,6.309-28.132,19.468l-0.001-0.002c-3.575,10.694-22.343,15.764-22.343,15.764l1.504,1.91l6.333,9.723
			c0,0,13.289-2.867,21.475-10.876v22.264h46.592v-13.301c1.133-1.461,2.098-3.064,2.842-4.822
			C477.534,177.327,477.041,169.761,475.77,163.151z"/>
		
			<path style="fill:#0C5AE5;stroke:#0C5AE5;stroke-width:0.607;stroke-linecap:round;stroke-linejoin:round;stroke-miterlimit:10;" d="
			M434.912,124.809c-0.835,3.024,0.517,6.772,2.951,8.617c5.934,4.497,16.931,2.041,14.551-7.196
			c-1.079-4.188-6.001-6.458-10.014-6.432c-2.493,0.016-5.042,1.062-6.538,3.056C435.417,123.444,435.106,124.107,434.912,124.809z"
			/>
		
			<path style="fill:#FFFFFF;stroke:#0C5AE5;stroke-width:0.4089;stroke-linecap:round;stroke-linejoin:round;stroke-miterlimit:10;" d="
			M443.779,147.897L443.779,147.897c-2.439,0-4.416-1.977-4.416-4.416v-14.351h8.831v14.351
			C448.195,145.92,446.218,147.897,443.779,147.897z"/>
		
			<path style="fill:#FFFFFF;stroke:#0C5AE5;stroke-width:0.4089;stroke-linecap:round;stroke-linejoin:round;stroke-miterlimit:10;" d="
			M451.297,129.849c0.108,1.35-0.899,2.533-2.249,2.641c-0.209,0.017-0.416,0.007-0.613-0.03c-0.097,0.9-0.378,1.751-0.808,2.51
			c-1.033,1.824-2.924,3.119-5.171,3.299c-3.603,0.289-6.755-2.395-7.044-5.998c-0.289-3.603,2.395-6.755,5.998-7.044
			c2.442-0.196,4.678,0.973,5.95,2.873c0.361-0.282,0.806-0.462,1.295-0.501C450.006,127.492,451.189,128.499,451.297,129.849z"/>
		
			<path style="fill:none;stroke:#0C5AE5;stroke-width:0.4089;stroke-linecap:round;stroke-linejoin:round;stroke-miterlimit:10;" d="
			M447.657,131.091c0,0-0.021-1.241,1.207-1.172"/>
		
			<path style="fill:#0C5AE5;stroke:#0C5AE5;stroke-width:0.607;stroke-linecap:round;stroke-linejoin:round;stroke-miterlimit:10;" d="
			M444.785,118.364c-0.463,1.675,0.287,3.753,1.635,4.775c3.288,2.492,9.383,1.131,8.063-3.988c-0.598-2.321-3.325-3.579-5.55-3.564
			c-1.382,0.009-2.794,0.588-3.623,1.693C445.065,117.607,444.892,117.975,444.785,118.364z"/>
		<g>
			
				<path style="fill:#0C5AE5;stroke:#0C5AE5;stroke-width:0.607;stroke-linecap:round;stroke-linejoin:round;stroke-miterlimit:10;" d="
				M439.433,276.79v-48.646l-15.478,34.209h-13.527l-15.478-34.209v48.646h-25.363v-92.351h27.705l19.9,43.443l20.031-43.443h27.575
				v92.351H439.433z"/>
		</g>
		<g>
			
				<polygon style="fill:#FFFFFF;stroke:#0C5AE5;stroke-width:0.4089;stroke-linecap:round;stroke-linejoin:round;stroke-miterlimit:10;" points="
				442.27,191.923 437.078,194.436 433.972,195.895 434.987,197.959 431.88,199.865 436.539,207.088 448.372,200.006 			"/>
			
				<line style="fill:none;stroke:#0C5AE5;stroke-width:0.4089;stroke-linecap:round;stroke-linejoin:round;stroke-miterlimit:10;" x1="432.875" y1="201.293" x2="436.73" y2="199.12"/>
			
				<line style="fill:none;stroke:#0C5AE5;stroke-width:0.4089;stroke-linecap:round;stroke-linejoin:round;stroke-miterlimit:10;" x1="434.246" y1="203.162" x2="438.102" y2="200.99"/>
			
				<line style="fill:none;stroke:#0C5AE5;stroke-width:0.4089;stroke-linecap:round;stroke-linejoin:round;stroke-miterlimit:10;" x1="435.466" y1="205.115" x2="439.322" y2="202.943"/>
			
				<line style="fill:none;stroke:#0C5AE5;stroke-width:0.4089;stroke-linecap:round;stroke-linejoin:round;stroke-miterlimit:10;" x1="433.49" y1="198.815" x2="436.345" y2="197.182"/>
		</g>
		<path style="fill:#D4E6FC;" d="M463.082,170.081c1.455,14.376-22.317,19.932-22.317,19.932l1.504,1.91l6.333,9.723
			c0,0,15.822-3.408,23.572-13.187"/>
	</g>
	
		<line style="fill:#FFFFFF;stroke:#0C5AE5;stroke-width:0.4089;stroke-linecap:round;stroke-linejoin:round;stroke-miterlimit:10;" x1="66.108" y1="276.908" x2="483.892" y2="276.908"/>
	<g>
		
			<path style="fill:#0C5AE5;stroke:#0C5AE5;stroke-width:0.607;stroke-linecap:round;stroke-linejoin:round;stroke-miterlimit:10;" d="
			M126.335,185.53c7.313-4.724,4.856-13.247-1.876-17.033c-5.286-2.973-11.733-2.338-16.046,1.971
			c-2.169,2.167-4.096,6.028-7.129,7.063c-3.782,1.29-7.943-0.799-11.763-0.313c-7.123,0.906-6.679,11.14-12.596,11.729
			c-2.572,0.256-3.638-1.378-4.939,1.873c-0.994,2.484-0.251,5.855,1.257,8.007c2.151,3.07,4.944,2.464,8.3,2.581
			c3.74,0.131,4.93-0.985,8.281-2.687c2.246-1.141,4.713-1.515,7.231-1.267c3.414,0.337,6.13,2.026,9.626,0.582
			c2.622-1.084,4.289-3.933,6.942-4.72c1.793-0.532,2.875,0.223,4.652-0.965c0.981-0.656,1.74-1.703,2.724-2.402
			C122.859,188.626,124.001,187.038,126.335,185.53z"/>
		
			<rect x="101.087" y="251.993" style="fill:#FFFFFF;stroke:#0C5AE5;stroke-width:0.4089;stroke-linecap:round;stroke-linejoin:round;stroke-miterlimit:10;" width="42.384" height="11.619"/>
		
			<path style="fill:#FFFFFF;stroke:#0C5AE5;stroke-width:0.4089;stroke-linecap:round;stroke-linejoin:round;stroke-miterlimit:10;" d="
			M133.224,277.001h-40.51c-4.779,0-8.654-3.874-8.654-8.654v0c0-4.779,3.874-8.654,8.654-8.654l40.51,4.089V277.001z"/>
		
			<polygon style="fill:#0C5AE5;stroke:#0C5AE5;stroke-width:0.607;stroke-linecap:round;stroke-linejoin:round;stroke-miterlimit:10;" points="
			101.153,279.075 108.917,273.583 108.917,267.207 101.153,267.207 		"/>
		<path style="fill:#D4E6FC;" d="M151.035,225.319c0-16.107-12.745-29.517-28.848-29.902c-0.329-0.008-0.662-0.012-0.999-0.012
			c-24.225,0-31.867,17.608-33.015,20.647c-2.278,6.03-5.448,21.938,8.586,25.902v14.166h41.416l12.859-0.054V225.319z"/>
		
			<path style="fill:#FFFFFF;stroke:#0C5AE5;stroke-width:0.4089;stroke-linecap:round;stroke-linejoin:round;stroke-miterlimit:10;" d="
			M120.01,199.767L120.01,199.767c2.439,0,4.416-1.977,4.416-4.416v-14.351h-8.831v14.351
			C115.594,197.79,117.571,199.767,120.01,199.767z"/>
		
			<path style="fill:#FFFFFF;stroke:#0C5AE5;stroke-width:0.4089;stroke-linecap:round;stroke-linejoin:round;stroke-miterlimit:10;" d="
			M112.269,183.733c0.227,1.335,1.495,2.234,2.83,2.007c0.206-0.035,0.405-0.095,0.587-0.179c0.315,0.848,0.797,1.604,1.4,2.234
			c1.45,1.514,3.601,2.304,5.823,1.926c3.563-0.606,5.958-3.983,5.352-7.546c-0.606-3.563-3.983-5.958-7.546-5.352
			c-2.415,0.411-4.296,2.094-5.061,4.248c-0.42-0.184-0.895-0.249-1.379-0.167C112.941,181.13,112.042,182.398,112.269,183.733z"/>
		
			<path style="fill:none;stroke:#0C5AE5;stroke-width:0.4089;stroke-linecap:round;stroke-linejoin:round;stroke-miterlimit:10;" d="
			M116.103,184.041c0,0-0.285-1.208-1.458-0.839"/>
		
			<path style="fill:#FFFFFF;stroke:#0C5AE5;stroke-width:0.4089;stroke-linecap:round;stroke-linejoin:round;stroke-miterlimit:10;" d="
			M108.642,277.001h40.51c4.779,0,8.654-3.874,8.654-8.654v0c0-4.779-3.874-8.654-8.654-8.654l-40.51,4.089V277.001z"/>
		
			<path style="fill:#0C5AE5;stroke:#0C5AE5;stroke-width:0.607;stroke-linecap:round;stroke-linejoin:round;stroke-miterlimit:10;" d="
			M144.298,284.964l-18.628-89.478l24.382-5.076l18.628,89.478L144.298,284.964z"/>
		<line style="fill:#D4E6FC;" x1="142.858" y1="220.374" x2="142.858" y2="227.271"/>
		<g>
			
				<polygon style="fill:#FFFFFF;stroke:#0C5AE5;stroke-width:0.4089;stroke-linecap:round;stroke-linejoin:round;stroke-miterlimit:10;" points="
				124.009,232.896 133.13,231.305 133.197,233.505 136.958,233.678 136.808,242.846 123.018,242.976 			"/>
			
				<line style="fill:none;stroke:#0C5AE5;stroke-width:0.4089;stroke-linecap:round;stroke-linejoin:round;stroke-miterlimit:10;" x1="136.912" y1="236.235" x2="132.601" y2="236.062"/>
			
				<line style="fill:none;stroke:#0C5AE5;stroke-width:0.4089;stroke-linecap:round;stroke-linejoin:round;stroke-miterlimit:10;" x1="136.717" y1="238.546" x2="132.406" y2="238.372"/>
			
				<line style="fill:none;stroke:#0C5AE5;stroke-width:0.4089;stroke-linecap:round;stroke-linejoin:round;stroke-miterlimit:10;" x1="136.695" y1="240.849" x2="132.384" y2="240.675"/>
		</g>
		<path style="fill:#D4E6FC;" d="M103.214,222.348c0,0-0.278,7.215,2.365,7.494c2.643,0.279,18.968,1.74,18.968,1.74l0.034,1.718
			l-0.337,10.188l-1.357-0.077c-3.27,0.112-10.369,0.226-18.086-0.471"/>
		
			<rect x="110.246" y="192.867" transform="matrix(0.979 -0.2038 0.2038 0.979 -38.3023 32.6211)" style="fill:#0C5AE5;stroke:#0C5AE5;stroke-width:0.607;stroke-linecap:round;stroke-linejoin:round;stroke-miterlimit:10;" width="57.946" height="18.788"/>
	</g>
	<g>
		<g>
			
				<path style="fill:#FFFFFF;stroke:#0C5AE5;stroke-width:0.4089;stroke-linecap:round;stroke-linejoin:round;stroke-miterlimit:10;" d="
				M262.667,126.412h-0.027c-8.162,0.002-14.778,6.412-14.778,14.319c0,2.462,0.627,4.786,1.757,6.811l1.736,2.701
				c1.361,2.117,2.257,4.483,2.632,6.951l0.684,4.506h7.968h7.973l0.886-4.995c0.381-2.151,1.159-4.217,2.297-6.1l1.855-3.069
				c1.127-2.017,1.769-4.327,1.773-6.782C277.437,132.874,270.8,126.424,262.667,126.412z"/>
			
				<polygon style="fill:none;stroke:#0C5AE5;stroke-width:0.4089;stroke-linecap:round;stroke-linejoin:round;stroke-miterlimit:10;" points="
				267.865,141.145 257.415,141.145 260.112,163.683 265.168,163.683 			"/>
			
				<polygon style="fill:#0C5AE5;stroke:#0C5AE5;stroke-width:0.607;stroke-linecap:round;stroke-linejoin:round;stroke-miterlimit:10;" points="
				262.64,161.699 254.672,161.699 254.672,168.875 262.64,168.875 270.693,168.875 270.693,161.699 			"/>
		</g>
		<g>
			
				<line style="fill:none;stroke:#0C5AE5;stroke-width:0.4089;stroke-linecap:round;stroke-linejoin:round;stroke-miterlimit:10;" x1="262.683" y1="121.094" x2="262.683" y2="113.064"/>
			
				<line style="fill:none;stroke:#0C5AE5;stroke-width:0.4089;stroke-linecap:round;stroke-linejoin:round;stroke-miterlimit:10;" x1="243.302" y1="140.475" x2="235.272" y2="140.475"/>
			
				<line style="fill:none;stroke:#0C5AE5;stroke-width:0.4089;stroke-linecap:round;stroke-linejoin:round;stroke-miterlimit:10;" x1="290.094" y1="140.475" x2="282.064" y2="140.475"/>
			
				<line style="fill:none;stroke:#0C5AE5;stroke-width:0.4089;stroke-linecap:round;stroke-linejoin:round;stroke-miterlimit:10;" x1="248.978" y1="154.18" x2="243.302" y2="159.855"/>
			
				<line style="fill:none;stroke:#0C5AE5;stroke-width:0.4089;stroke-linecap:round;stroke-linejoin:round;stroke-miterlimit:10;" x1="282.064" y1="121.094" x2="276.388" y2="126.769"/>
			
				<line style="fill:none;stroke:#0C5AE5;stroke-width:0.4089;stroke-linecap:round;stroke-linejoin:round;stroke-miterlimit:10;" x1="248.978" y1="126.769" x2="243.302" y2="121.094"/>
			
				<line style="fill:none;stroke:#0C5AE5;stroke-width:0.4089;stroke-linecap:round;stroke-linejoin:round;stroke-miterlimit:10;" x1="282.064" y1="159.855" x2="276.388" y2="154.18"/>
		</g>
	</g>
</g>
</svg>
