<svg xmlns="http://www.w3.org/2000/svg" fill-rule="evenodd" stroke-linejoin="round" stroke-miterlimit="2" viewBox="0 0 24 24" xmlns:v="https://vecta.io/nano"><path fill="#0aa8a7" d="M14.523 18.787l6.255-6.26c.146-.146.219-.338.219-.53a.75.75 0 0 0-.219-.53l-6.255-6.258c-.144-.145-.334-.217-.524-.217a.75.75 0 0 0-.532.221c-.293.292-.295.766-.004 1.056l4.978 4.978H3.749a.75.75 0 1 0 0 1.5h14.692l-4.979 4.979c-.289.289-.286.762.006 1.054a.75.75 0 0 0 .533.222c.19 0 .378-.072.522-.215z" fill-rule="nonzero"/></svg>