<svg xmlns="http://www.w3.org/2000/svg" xmlns:xlink="http://www.w3.org/1999/xlink" width="1443" height="314" fill="none" xmlns:v="https://vecta.io/nano"><style><![CDATA[.B{fill:#fff}.C{fill:#e9928b}.D{fill:#dceceb}.E{fill:#3fb8a9}.F{fill:#0c1b3c}.G{fill:#b2e5e0}.H{fill:#4a4e73}.I{fill:#1b5175}.J{fill:#ffab40}.K{fill:#de6667}.L{fill:#91415c}.M{fill:#408c91}.N{fill:#ffac95}.O{fill:#b6d5d0}.P{fill:#f5911f}.Q{fill:#5f6386}.R{fill:#8fb9cf}.S{fill:#7a9db0}.T{fill:#75354a}.U{fill:#adccc7}.V{fill:#6eab9c}.W{fill:#edf6f5}.X{fill:#67a4c3}]]></style><path d="M304.026 93.369l-3.152-7.492s-5.831-6.151-2.52-11.116c3.311-4.971 17.344-6.151 20.419 11.984 0 0 4.963.159 5.831 4.965.867 4.811-3.47 7.964-4.81 11.512s-4.337 4.811-4.337 4.811l-5.595.868-5.836-15.533z" class="F"/><path d="M338 194.218s-3.311 5.283-4.101 8.123-1.499 3.707-.868 4.256c.632.555 2.207-2.284 3.311-3.707s1.263 3.784 1.263 5.679-.912 5.284.115 5.361 3.668-4.339 4.612-6.152.522-13.56.522-13.56H338h0z" class="C"/><path d="M329.446 299.924l-2.366 1.774s-1.774 6.86-.945 9.518h28.023s-2.718-3.905-8.279-5.646c-5.557-1.747-7.215-2.334-8.038-3.872-.829-1.538-8.395-1.774-8.395-1.774zm-44.576-.945l2.009 2.718s2.482 6.031 1.417 9.518h-23.411s.357-3.905 4.255-5.646c3.903-1.746 7.329-3.872 7.329-3.872l8.401-2.718z" class="J"/><path d="M354.158 311.222h-28.023v2.779h28.023v-2.779zm-65.857 0H264.89v2.779h23.411v-2.779z" class="B"/><path d="M337.841 301.698H327.08l-.747-5.026-.785-5.267 11.464-1.653.483 6.92.346 5.026zm-49.54-10.052l-.708 5.025-.714 5.025h-10.404l.653-5.025.648-5.025h10.525z" class="C"/><path d="M277.776 291.646h10.525l-.708 5.025h-10.465l.648-5.025zm59.719 5.026h-11.162l-.785-5.267 11.464-1.653.483 6.92z" class="K"/><path d="M340.443 294.129h-16.789l-14.423-52.995c-1.417-6.618-6.309-21.211-6.309-21.211l-12.611 74.2h-14.808s-.62-35.721 0-47.552c.494-9.447 3.009-39.566 5.568-54.566.647-3.784 1.295-6.602 1.91-7.887 3.075-6.387 40.673 7.332 40.673 7.332l.703 3.982 7.972 44.515c4.09 22.48 8.114 54.182 8.114 54.182z" class="Q"/><path d="M302.922 219.928l-5.639-19.949s-5.792 11.04-4.139 19.949-5.068 12.187-.297 21.683c4.771 9.502-2.097 16.752 2.531 22.689l7.544-44.372zm21.434-24.484c-4.441.955-9.904.955-16.526-.885-15.021-4.168-22.96-3.553-26.765-2.548.648-3.784 1.296-6.602 1.911-7.887 3.074-6.387 40.672 7.332 40.672 7.332l.708 3.988z" class="H"/><path d="M266.07 103.221s-.944-4.904 1.181-7.436 7.192 1.406 7.192 1.406 3.283 3.531 1.592 6.848c-1.691 3.323-9.965-.818-9.965-.818z" class="C"/><path d="M330.797 143.998c-2.059 11.94-5.436 25.231-5.013 31.141.785 11.04 1.263 15.142 1.894 17.191s-9.3 3.784-20.023 0c-5.167-1.829-11.733-2.955-17.136-3.636-5.814-.725-10.294-.934-10.294-.934s2.998-15.933 3.942-24.292c.95-8.359-.055-17.976-.055-17.976l-.016.016c-.461.357-12.189 9.326-18.223 3.515-.873-.84-1.532-2.01-2.02-3.422-3.959-11.484 3.607-39.22 3.607-39.22l8.988 1.263s-1.263 21.607-.473 21.766 9.301-7.568 13.402-10.567c2.295-1.681 6.161-2.669 10.234-3.109 3.196-.335 6.518-.329 9.312-.049 0 0 4.145.093 9.131 1.164 3.975.846 8.477 2.312 11.837 4.828 3.503 2.636 2.701 11.968.906 22.321z" fill="#7dc4be"/><path opacity=".423" d="M327.673 192.329c.626 2.054-9.301 3.784-20.023 0-5.167-1.829-11.733-2.955-17.136-3.636 1.982-2.472 5.37-4.976 12.408-7.058 17.262-5.113.785-13.901 10.69-19.657 9.905-5.75 10.745-23.353 10.745-23.353l6.435 5.366c-2.059 11.94-5.436 25.232-5.013 31.141.79 11.045 1.263 15.143 1.894 17.197z" fill="#379690"/><path d="M318.042 116.848c-4.37 8.178-16.751 15.329-16.751 15.329-2.135-6.179-1.899-13.528-1.691-16.45 3.196-.335 6.517-.329 9.312-.049 0 .005 4.145.099 9.13 1.17z" class="B"/><path d="M323.89 121.045c2.158-2.4 6.621-.313 12.139 7.728s10.245 25.863 11.195 32.014c.944 6.152-.472 27.286-3.47 36.431l-8.054-.632-2.35-32.328c-.313-2.048-6.781-18.295-9.46-27.126s-2.839-12.935 0-16.087z" fill="#7dc4be"/><path d="M315.451 116.864c0 1.187-1.734 3.23-5.99 4.021-4.255.785-9.46-2.285-7.884-4.339.588-.769.95-2.296 1.164-3.911.363-2.697.335-5.629.335-5.629s9.218-8.596 9.142-4.18c-.083 4.416 3.228 5.207 3.228 5.207-1.093 4.888.005 7.65.005 8.831z" class="C"/><path d="M312.223 102.826c-2.46 6.201-6.325 8.771-9.482 9.809.363-2.697.335-5.63.335-5.63s9.224-8.59 9.147-4.179z" class="K"/><path d="M278.061 98.186l-16.421 21.145c-.225.291-.555.467-.895.511a1.33 1.33 0 0 1-.994-.274 5.58 5.58 0 0 1-.983-7.816l13.831-17.812 5.462 4.246z" class="R"/><path d="M278.062 98.186l-16.422 21.145c-.225.291-.555.467-.895.511-1.126-1.906-1.038-4.389.401-6.239l13.83-17.812 3.086 2.395z" class="S"/><g class="R"><path d="M285.413 96.691c-2.415 3.109-5.034 5.114-5.852 4.482s.477-3.669 2.893-6.783c2.416-3.109 5.035-5.113 5.853-4.482s-.478 3.674-2.894 6.783z"/><path d="M278.147 81.979l-8.761 11.281 10.18 7.911 8.761-11.281-10.18-7.912z"/></g><path d="M282.871 95.665l-5.951-4.624c-.335-.258-.396-.736-.132-1.071.258-.335.736-.395 1.07-.132l5.952 4.624c.335.258.395.736.132 1.071-.258.329-.741.39-1.071.132zm2.207-3.329l-5.951-4.624c-.335-.258-.396-.736-.132-1.071.258-.335.736-.395 1.071-.132l5.951 4.624c.335.258.395.736.132 1.071-.258.329-.741.39-1.071.132zm-4.847 6.24l-5.952-4.624c-.335-.258-.395-.736-.132-1.071s.736-.395 1.071-.132l5.951 4.625c.335.258.396.736.132 1.071-.258.329-.741.39-1.07.132z" class="S"/><path d="M275.234 88.778l-.011.016-1.048 1.269-1.192 1.252c-1.62 1.565-3.042 2.378-3.602 1.944l-.016.022-43.632-16.158 25.969-33.443 26.442 38.298-.016.022c.488.379.219 1.626-.593 3.229l-.582 1.049-.747 1.164-.972 1.335z" fill="#b2d3e4"/><path opacity=".15" d="M275.235 88.777l-.011.016-35.595-26.737 4.409-5.673 32.168 31.07-.971 1.324zm-1.067 1.286l-1.191 1.252-41.804-21.112 6.517-4.68 36.478 24.54zm2.784-3.784l-31.289-33.756 2.086-1.906 29.785 34.607-.582 1.055z" class="B"/><path d="M243.11 63.814c-2.021 2.603-4.09 4.943-6.072 6.92h-.006c-5.057 5.047-9.564 7.739-11.305 6.382-2.426-1.889 1.417-10.902 8.587-20.135S249.27 41.79 251.697 43.68c1.746 1.357.252 6.388-3.388 12.539-1.422 2.411-3.179 4.998-5.199 7.596zm-.286 21.019c-.312-.242-.367-.698-.126-1.011s.698-.368 1.01-.126c.615.478 3.223-.395 7.61-4.773l.352-.352c1.416-1.444 2.822-3.059 4.189-4.817 1.482-1.906 2.789-3.817 3.887-5.679 3.157-5.333 3.354-8.079 2.74-8.557-.313-.242-.368-.698-.127-1.011s.698-.368 1.011-.126c2.338 1.818-.89 7.892-2.383 10.419-1.131 1.911-2.471 3.872-3.986 5.827s-3.08 3.735-4.656 5.305l-.456.445c-2.3 2.224-6.879 6.146-9.065 4.454z" class="R"/><path d="M243.11 63.814c-2.021 2.603-4.091 4.943-6.073 6.92h-.005a9.5 9.5 0 0 1 .016-11.627c2.713-3.493 7.379-4.57 11.261-2.895-1.422 2.417-3.179 5.004-5.199 7.601z" class="S"/><path opacity=".15" d="M242.347 61.48c-.719.928-1.812 1.285-2.438.796s-.549-1.631.171-2.559 1.811-1.285 2.437-.796c.626.483.549 1.631-.17 2.559z" class="B"/><path d="M276.437 107.638s-.313-6.646-2.262-8.903c-1.955-2.257-3.591-1.845-3.256 0 .34 1.845 1.828 5.086.384 8.156l5.134.747z" class="C"/><path d="M274.136 288.226v6.53h16.532l1.499-6.53h-18.031zm48.76 6.53h18.695l-.544-6.53h-20.128l1.977 6.53z" class="H"/><path d="M335.085 305.179l-.456-.153c.022-.066.554-1.56 3.739-2.73l.165.45c-2.932 1.077-3.443 2.417-3.448 2.433zm3.602 1.802l-.461-.121a4.74 4.74 0 0 1 3.305-3.147l.126.461c-2.372.654-2.948 2.719-2.97 2.807zm4.386-.038l-.477-.044c.005-.055.131-1.4 1.004-2.312l.346.329c-.752.791-.873 2.016-.873 2.027zm-62.975-3.395c-2.404-.928-4.848-.867-4.87-.867l-.016-.478c.11-.006 2.564-.066 5.057.901l-.171.444zm-2.761 1.769c-2.597-1.148-4.557-1.28-4.573-1.285l.027-.478c.083.005 2.054.137 4.738 1.323l-.192.44zm-4.178.862c-.736-.665-2.729-.972-2.751-.972l.072-.473c.087.011 2.152.335 2.997 1.093l-.318.352z" class="B"/><path opacity=".423" d="M286.308 133.14c-1.664 4.317-2.207 12.352-2.207 12.352s-.006.005-.017.016c-.461.357-12.188 9.326-18.222 3.515-.873-.84-1.532-2.01-2.021-3.421 3.338.461 6.193 3.976 10.147-.105 6.138-6.349 12.32-12.357 12.32-12.357z" fill="#379690"/><path d="M300.874 85.878s-6.545 17.976-1.576 21.607c4.969 3.625 12.93-4.652 12.93-4.652s3.388.159 5.205-2.604c1.812-2.757-1.34-3.971-2.756-3.086-1.417.879-3.075-.461-1.971-3.85s.472-3.548-1.658-3.076c-2.136.467-9.938-3.394-10.174-4.339z" class="C"/><path d="M337.132 288.318c-6.962-52.023-18.497-91.661-18.612-92.056l1.378-.407c.115.396 11.684 40.144 18.656 92.271l-1.422.192z" class="H"/><path d="M560.542 101.439s-2.055-6.857-2.055-9.053 2.009-8.367 3.13-8.503 3.311 11.932 4.275 13.578-.822 3.979-.822 3.979h-4.528zm-102.38 152.002l-7.289-8.034 2.796-2.868 5.659-5.802 6.981 7.691-5.452 6.029-2.695 2.984z" class="L"/><path d="M460.857 250.457l-7.188-7.918 5.659-5.802 6.981 7.691-5.452 6.029z" class="T"/><path d="M450.873 245.407l7.289 8.029s-.399 6.943 2.71 11.195c3.115 4.252 3.948 7.221 2.524 10.372l-21.68-23.89 9.157-5.706z" fill="#fdab3f"/><path d="M458.091 256.315c-1.686-1.222-5.648-2.323-5.689-2.333l.116-.424c.167.045 4.079 1.131 5.831 2.398l-.258.359zm.323 2.323c-2.004-.843-5.128-.505-5.158-.5l-.051-.439c.131-.015 3.276-.354 5.381.535l-.172.404zm-3.352 3.196l-.162-.409c.086-.035 2.136-.828 4.104-.954l.025.439c-1.892.121-3.947.919-3.967.924z" class="B"/><path d="M441.734 251.102L440 252.677l21.682 23.89 1.734-1.575-21.682-23.89z" class="D"/><path d="M513.512 181.955l-.389 2.04c-.53 2.737-1.58 7.903-2.928 13.437-1.741 7.115-3.982 14.841-6.284 18.815-2.665 4.595-13.634 14.29-23.154 22.233-8.097 6.751-15.144 12.235-15.144 12.235l-14.739-15.128 31.321-28.596c.823-1.101 4.442-17.078 5.815-29.697.596-5.463 2.267-11.285 3.973-16.133 2.231-6.347 4.523-11.023 4.523-11.023l14.26 5.211.141 1.338 1.383 13.412 1.222 11.856z" fill="#489da2"/><path d="M513.122 183.995a302.83 302.83 0 0 1-2.927 13.437c-1.742 7.115-3.983 14.841-6.285 18.815-2.665 4.595-13.634 14.29-23.154 22.233 2.281-12.417 16.966-11.301 14.79-20.38-2.261-9.463 7.198-13.169 3.427-25.51-3.77-12.347 2.332-20.572 2.332-20.572l11.817 11.977z" class="M"/><path d="M543.142 85.392s-2.494 1.919-4.276 5.903c-.697 1.555-1.282 3.424-1.57 5.615-1.03 7.817-14.603-.616-14.603-.616l6.582-13.785 5.391-2.878 4.2 2.858 4.276 2.903z" class="L"/><path d="M522.698 94.34s1.075-3.353 2.595-3.479c1.519-.121 12.624 1.5 13.139 4.08s0 4.232 0 4.232l-15.734-4.832zm42.094 11.902l1.096-5.075s-5.073-1.318-6.992-1.071-3.7 6.146-3.7 6.146h9.596zm-28.52 26.47s7.107 1.908 22.13-11.589-12.463-8.165-12.463-8.165l-9.667 19.754z" class="P"/><g fill="#040707"><path d="M562.192 257.184h-45.783v1.323h45.783v-1.323z"/><path d="M534.198 307.341l-13.938-64.104-13.937 64.104-1.292-.282 14.583-67.074a.66.66 0 0 1 .646-.52.66.66 0 0 1 .647.52l14.583 67.074-1.292.282z"/></g><path d="M534.546 269.409h-10.843l-.242-3.999-.49-8.09h10.379l.802 8.09.394 3.999z" class="L"/><path d="M534.152 265.41h-10.691l-.49-8.09h10.379l.802 8.09z" class="T"/><path d="M523.703 269.409h10.843s4.871 4.964 10.111 5.514 7.995 1.929 9.373 5.1h-32.255l1.928-10.614z" fill="#fdab3f"/><path d="M531.078 274.039l-.237-.374c.146-.091 3.579-2.262 5.694-2.701l.091.429c-2.03.429-5.513 2.626-5.548 2.646zm3.65 2.162l-.359-.257c.076-.106 1.938-2.661 4.013-3.626l.187.399c-1.974.914-3.826 3.459-3.841 3.484zm3.952 1.145l-.414-.156c.035-.086.823-2.141 2.05-3.676l.343.277c-1.181 1.475-1.974 3.535-1.979 3.555z" class="B"/><path d="M554.03 280.028h-32.255v2.343h32.255v-2.343z" class="D"/><g fill="#040707"><path d="M580.112 307.341l-13.942-64.104-13.942 64.104-1.292-.282 14.583-67.074a.66.66 0 0 1 1.292 0l14.584 67.074-1.283.282z"/><path d="M556.983 281.71h-45.91v1.323h45.91v-1.323z"/></g><path d="M541.053 263.683h-22.211l.434-43.603c0-4.681-4.437-12.412-9.076-22.653-1.883-4.161-3.796-8.736-5.461-13.694-2.322-6.923-3.711-12.882-4.538-17.532-1.222-6.863-1.222-10.862-1.222-10.862l11.933 1.338 17.41 1.954 4.275 15.457c3.776 13.912 8.718 32.827 8.885 37.215.272 7.135-.429 52.38-.429 52.38z" fill="#489da2"/><path d="M532.597 174.093c-4.815-2.03-9.772-3.974-14.699-3.727-1.908.096-3.791-.01-5.613-.272-4.483-.631-8.632-2.177-12.095-3.888a52.96 52.96 0 0 1-8.212-5.05c2.231-6.347 4.522-11.023 4.522-11.023l14.26 5.211.142 1.338 17.41 1.954c.01 0 1.918 6.747 4.285 15.457z" class="M"/><path d="M601.676 104.939s-18.51 18.108-23.856 19.34-25.092-5.145-28.383-4.938c-1.49.096-4.629 10.559-7.607 21.991-3.61 13.815-6.997 29.035-6.997 29.035s-9.252-3.701-24.27-4.732c-2.211-.151-4.209-.479-6.012-.934-10.459-2.62-14.345-9.352-14.345-9.352 14.81-21.193 15.012-39.71 18.101-51.228s15.426-12.346 24.679-9.462c4.099 1.278 12.958 2.878 17.071 4.322 4.114 1.439 25.3 9.67 26.739 9.67s18.919-9.877 18.919-9.877c5.547-.01 5.961 6.165 5.961 6.165z" class="J"/><path d="M596.053 100.06s3.564-3.151 6.583-4.383 7.127-3.767 7.127-2.434-3.7 3.222-3.7 3.222l11.277-1.025s-4.972 5.039-8.945 5.999-9.051 2.742-9.051 2.742l-3.291-4.121z" class="L"/><path d="M628.689 54.842l-67.901 5.664 3.281 39.365 67.902-5.664-3.282-39.365z" class="E"/><path d="M624.931 59.285l-59.702 4.98 2.597 31.163 59.703-4.981-2.598-31.162z" class="B"/><g class="E"><path d="M574.176 95.36l11.615-24.652 15.532 22.385-27.147 2.267z"/><path d="M600.092 93.244l8.98-19.067 12.014 17.315-20.994 1.752zm-2.177-19.915c2.236-.11 3.959-2.013 3.849-4.249s-2.012-3.961-4.248-3.85-3.959 2.013-3.849 4.249 2.012 3.961 4.248 3.85z"/></g><path d="M535.505 263.849h-1.323l-.176-49.234c-.227-9.362-16.552-47.345-16.714-47.729l1.212-.525c.676 1.571 16.592 38.599 16.824 48.219.233 9.503.177 48.87.177 49.269z" class="M"/><path d="M541.829 141.325c-3.609 13.816-6.996 29.035-6.996 29.035s-9.253-3.701-24.27-4.731c-2.211-.152-4.21-.48-6.012-.934a13.86 13.86 0 0 1 1.126-1.121c12.387-11.109 17.021-3.702 23.084-11.725 4.527-5.999 8.924-6.333 13.068-10.524z" class="P"/><path d="M548.609 66.461l2.261-2.368s.207-4.216-4.043-9.705-6.719-3.429-4.801 0-3.841 1.646-8.98.959-9.389.04-6.855 3.383c2.539 3.338.344 3.474-5.966 6.085s-5.346 6.448 0 6.857 1.787 3.565-2.327 7.953c-4.119 4.388-.964 6.857 3.564 4.388 4.522-2.469 5.487.273 3.977 4.115s3.842.55 6.305-2.197c2.468-2.742 1.782 2.055 5.553-3.979 3.775-6.024 11.312-15.492 11.312-15.492z" class="F"/><path d="M543.142 85.392s-2.494 1.919-4.275 5.903c-3.004-3.191-1.278-8.675-1.278-8.675l1.278-.136 4.275 2.909z" class="T"/><path d="M550.876 64.098s-.687 6.963.615 10.528 2.605 3.701 1.03 5.075-2.604 1.096-2.948 2.676c-.343 1.575.344 6.994-3.634 6.857s-8.228-5.827-8.637-7.271c0 0-4.179-1.373-4.25-4.868s3.362-4.666 4.73-3.02 2.877-.48 2.948-3.085 1.716-6.307 4.522-6.105c2.812.207 4.114-2.606 5.624-.788z" class="L"/><path d="M1212.48 309.944s.05-30.759-33.62-15.8c0 0-7.4-26.479-26.79-25.227s-21.27 26.31-21.27 26.31-26.55-13.502-40.8 13.881l122.48.836z" class="U"/><g class="V"><path d="M1155.76 308.852l-.83-.114c2.25-16.019-6.38-27.506-6.47-27.621l.67-.507c.08.115 8.92 11.881 6.63 28.242z"/><path d="M1156.06 299.022l-.67-.493c.07-.11 7.95-10.944 9.29-17.755l.82.16c-1.37 6.998-9.11 17.641-9.44 18.088zm-.37 5.678c-6.15-.384-11.59-7.665-11.82-7.975l.67-.494c.06.074 5.44 7.277 11.2 7.638l-.05.831zm19.72 4.042l1.12-.804c.11-.077 10.77-7.632 22.18-8.167l.04.832c-8.94.415-17.42 5.253-20.51 7.203l11.07-.384.03.832-13.93.488z"/><path d="M1184.18 304.417l-.79-.27c1.75-5.111 5.45-9.943 5.61-10.149l.66.507c-.04.05-3.77 4.933-5.48 9.912zm-53.57 4.179c-.08-.069-8.35-7.016-17.57-10.255l.27-.785c9.37 3.288 17.75 10.332 17.84 10.4l-.54.64z"/><path d="M1109.11 306.162l-.38-.745c.24-.123 6.07-3.042 16.78-1.548l-.11.826c-10.44-1.448-16.24 1.439-16.29 1.467z"/></g><path d="M231.479 309.944s.051-30.759-33.619-15.8c0 0-7.402-26.479-26.789-25.227s-21.269 26.31-21.269 26.31-26.556-13.502-40.802 13.881l122.479.836z" class="U"/><g class="V"><path d="M174.76 308.852l-.827-.114c2.242-16.019-6.383-27.506-6.47-27.621l.662-.507c.087.115 8.922 11.881 6.635 28.242z"/><path d="M175.062 299.022l-.676-.493c.077-.11 7.954-10.944 9.296-17.755l.818.16c-1.375 6.998-9.11 17.641-9.438 18.088zm-.375 5.678c-6.15-.384-11.589-7.665-11.817-7.975l.671-.494c.055.074 5.438 7.277 11.196 7.638l-.05.831zm19.726 4.042l1.118-.804c.105-.077 10.767-7.632 22.178-8.167l.041.832c-8.936.415-17.424 5.253-20.511 7.203l11.073-.384.027.832-13.926.488z"/><path d="M203.179 304.417l-.79-.27c1.754-5.111 5.452-9.943 5.607-10.149l.662.507c-.036.05-3.771 4.933-5.479 9.912zm-53.569 4.179c-.082-.069-8.351-7.016-17.574-10.255l.274-.785c9.374 3.288 17.752 10.332 17.839 10.4l-.539.64z"/><path d="M128.109 306.162l-.379-.745c.242-.123 6.068-3.042 16.785-1.548l-.114.826c-10.438-1.448-16.237 1.439-16.292 1.467z"/></g><path d="M1190 42h55.27v19.042h-9.85l5.14 12.109-18.37-12.109H1190V42z" fill="#eb908b"/><path d="M1239.53 47.564h-42.97v2.101h42.97v-2.101zm0 5.836h-42.97v2.101h42.97V53.4z" class="B"/><path d="M1443 308H0v6h1443v-6z" fill="#aecbc7"/><path d="M1371.14 132.245a4.63 4.63 0 0 1-1.46 1.265c-4.51 2.48-12.6-2.919-16.3-2.745-4.15.201-6.12 5.627-15.89 1.777s-7.5-19.047-6.9-24.775c.59-5.724-2.96-8.587-9.08-8.391s-12.57-3.156-9.79-12.83-5.06-14.744-9.75-13.027c-4.68 1.718-2.17-6.513-2.17-6.513s4.01-5.705 11.92-4.878c2.48.26 4.27 1.078 5.63 2.211.33.274.62.557.9.85 0 .009.01.014.02.023 2.28 2.48 3.18 5.947 4.63 8.601 2.37 4.344 6.31 4.047 12.43 2.174s18.45-1.009 21.11 9.218c2.67 10.227-4.43 22.171 8.3 25.135 12.72 2.951 10.35 16.773 6.4 21.907z" class="F"/><path d="M1300.28 66.187s3.69 2.435 3.27 7.372c0 0 0 1.425-1.62.694s-2.94-6.08-2.8-7.231c.15-1.156.74-.973 1.15-.836z" class="E"/><path d="M1298.72 88.221c-5.65 4.933-8.43 4.59-10.08 2.17-.61-.9-2.32-3.133-4.23-5.577l-6.93-8.829s-5.92-.374-6.05-4.956c-.02-.877.14-1.754.49-2.603 1.46-3.599 6.09-6.714 12.53-7.244 7.97-.658 15.2 3.293 17.31 8.82 2.09 5.522 2.62 13.287-3.04 18.22z" class="F"/><path opacity=".27" d="M1284.41 84.814l-6.93-8.829s-5.92-.374-6.05-4.956c-.02-.877.14-1.754.49-2.604 1.18-1.841 3.39-3.426 7.53-2.905 8.88 1.119 4.76 15.959 6.95 17.521.8.576-.28 1.206-1.99 1.772z" class="I"/><path d="M1252.95 176.167s-3.14.923-4.69 2.087c-1.54 1.165-5.29 2.974-5.37 3.581-.07.608 3.16-.338 4.42-.831 1.27-.493 1.07.722-.51 2.22s-2.22 2.156-4.04 3.54-2.03 2.01-1.33 2.261 1.35-.206 1.35-.206-1.64 1.243-.99 1.937 2.65-.781 2.65-.781-.57 1 .81.968 1.85-.653 3.48-1.133 6.54-5.663 7.68-7.468c1.15-1.804 1.72-3.366 1.72-3.366l-5.18-2.809z" class="N"/><path d="M1286.8 133.51s3.01 15.036-4.34 23.455c-7.36 8.418-24.12 23.815-24.12 23.815l-6.17-4.837s15.1-19.988 17.17-27.661c.44-1.636.86-4.778.86-4.778l16.6-9.994z" class="P"/><path d="M1265.5 173.97s-.47-1.736.22-3.257c.7-1.521 4 3.033 4 3.033l.87 3.791-5.09-3.567z" class="N"/><path d="M1346.95 277.194c2.82 3.033 8.8 14.452 8.8 14.452l-4.43 3.22s-5.07-7.623-6.12-7.166-.02 11.629-1.43 12.652l-10.77 7.829s-.4-3.937 1.42-7.573c1.62-3.216 3.28-9.848-.94-19.847-.55-1.297-1.2-2.649-1.95-4.056l9.72-9.066s1.2 2.704 2.81 5.435c.88 1.517 1.89 3.042 2.89 4.12z" class="I"/><path d="M1331.53 276.71l9.72-9.066s1.2 2.704 2.81 5.435l-10.58 7.683-1.95-4.052z" class="C"/><path d="M1349.13 265.459l-21.58 14.745-21.29-26.639c-6.68-8.519-12.79-16.53-14.58-19.591-3.61-6.166-8.77-30.539-10.62-39.679l-.69-3.489 2.64-7.423 5.13-14.411.38-1.069s3.71-1.909 7.83-2.932c1.1-.274 2.23-.484 3.32-.58 3.36-.288 6.43.511 7.39 3.933.05.201.1.411.14.63.19 1.023.4 2.334.62 3.855 1.86 12.954 4.48 41.529 5.3 44.74.93 3.59 36.01 47.91 36.01 47.91z" class="Q"/><path d="M1306.26 253.565c-6.68-8.519-12.79-16.53-14.58-19.59-3.61-6.167-8.77-30.54-10.62-39.68.51-2.046.91-3.398 1.1-3.69 1.11-1.667 25.67-17.787 25.67-17.787s1.02 14.411-3.85 23.606c-4.86 9.199-9.03 15.941-5.14 25.848 3.89 9.912-4.45 15.617 2.23 21.176 3.85 3.215 4.95 7.272 5.19 10.117z" class="H"/><path d="M1264.5 291.318c.5 4.111-1.37 16.868-1.37 16.868h-5.47s.37-9.149-.75-9.4-6.85 9.4-8.59 9.4H1235s1.99-3.421 5.6-5.289c3.2-1.654 8.44-6.043 10.9-16.613a49.47 49.47 0 0 0 .81-4.426l13.19-1.617s-.62 2.892-.93 6.048c-.17 1.735-.25 3.563-.07 5.029z" class="I"/><path d="M1252.31 281.853l13.19-1.617s-.62 2.892-.93 6.048h-13.07l.81-4.431z" class="C"/><path d="M1276.95 161.856s-18.94 44.484-24.47 62.905c-5.52 18.426-13.94 58.169-13.94 58.169h28.94s11.32-53.957 16.32-62.645 23.68-40.273 20.78-51.591-27.63-6.838-27.63-6.838z" class="Q"/><path d="M1307.83 172.818l-8.78 22.797-28.46-18.078 17.56-8.556 8.2-4.001 2.3-1.124 1.02.544 7.39 3.933a5.92 5.92 0 0 1 .15.63l.62 3.855z" class="H"/><path d="M1293 101.86s-6.84 2.878-12.63 10.775-12.63 22.578-13.15 25.369c-.53 2.791 4.51 24.971 4.49 30.695s26.92 3.608 34.55-.078c0 0-2.99-20.979-2.99-23.875s.26-22.372-1.32-31.32-8.95-11.566-8.95-11.566z" class="J"/><path d="M1291.37 122.497s-1.08 7.203 0 12.625-7.38 2.124-10.31 13.159 22.17 5.683 22.17 5.683 6.91-10.638 6.96-12.447-18.82-19.02-18.82-19.02z" class="P"/><path d="M1293 101.86s-13.22 13.603-12.06 10.022c.64-1.974-.47-6.692-1.6-10.533-.93-3.138-1.86-5.692-1.86-5.692s2.54-2.585 5.2-4.791c2.82-2.339 5.77-4.248 5.96-2.183.38 4.015 4.36 13.177 4.36 13.177z" class="N"/><path d="M1258.77 129.232l-14.89 32.095 55.36 25.713 14.9-32.095-55.37-25.713z" class="E"/><path d="M1260.56 134.128l-11.79 25.408 48.68 22.608 11.79-25.408-48.68-22.608z" class="B"/><g class="E"><path d="M1253.76 162.317l19.97-14.037 2.16 24.314-22.13-10.277z"/><path d="M1274.87 172.165l15.44-10.857 1.67 18.809-17.11-7.952zm12.01-18.04a3.63 3.63 0 0 0-1.6-4.881c-1.78-.907-3.97-.193-4.88 1.596a3.64 3.64 0 0 0 1.6 4.881 3.63 3.63 0 0 0 4.88-1.596z"/></g><path d="M1275.79 166.959l-4.39.831c-1.82.466-5.41.21-5.82 1.042-.42.831 4.03 1.562 5.11 1.662s-1.68 1.626-3.24 2.06-2.81 1.06-1.2 2.517c1.62 1.457 4.11 3.641 5.15 3.796s6.14-3.695 8.95-6.555c2.8-2.859-4.56-5.353-4.56-5.353z" class="N"/><path d="M1293.26 106.711c-4.96 3.8-3.02 13.557-.52 19.874s9.6 17.9 9.07 18.951c-.52 1.055-26.85 21.039-26.85 21.039l5.41 6.796s24.99-12.57 31.18-17.042c6.18-4.476 6.71-9.345 4.87-15.662s-12.5-42.114-23.16-33.956z" class="J"/><path d="M1257.2 283.04l-1.23-.215c.39-2.274 9.75-55.716 11.4-60.745 1.64-5.001 14.51-37.541 15.06-38.921l1.16.462-15.03 38.852c-1.62 4.938-11.26 60.01-11.36 60.567zm82.42-11.026c-.19-.247-19.7-24.707-29.92-37.354-10.31-12.762-14.12-30.681-14.16-30.859l1.22-.256c.04.178 3.8 17.805 13.92 30.324l29.92 37.359-.98.786z" class="H"/><path opacity=".27" d="M1371.14 132.244a4.62 4.62 0 0 1-1.46 1.265c4.39-5.225 1.17-12.15-10.09-12.008-11.26.137-14.32-9.597-7.64-25.725 6.67-16.128-10.15-17.385-17.24-13.767s-14.32.279-14.04-7.546c.19-5.234-1.36-7.993-2.41-9.249 2.29 2.48 3.18 5.947 4.63 8.601 2.37 4.344 6.32 4.047 12.44 2.174 6.11-1.877 18.44-1.009 21.11 9.218 2.66 10.227-4.44 22.172 8.29 25.136 12.73 2.946 10.36 16.768 6.41 21.902z" class="I"/><path d="M1286.42 90.264s-1.98 7.263-7.08 11.085l-1.86-5.691s2.54-2.585 5.2-4.791l3.74-.603z" class="C"/><path d="M1277.87 71.444s-3.55 8.816-6.91 10.528c-3.35 1.713-1.12 2.106 0 4.015s-3.16 7.829.53 10.528c3.68 2.7 12.23-1.713 14.93-6.253 0 0 4.67.196 5.79-3.357s-2.5-5.792-4.6-4.211c-2.11 1.58-2.37-1.713-3.29-6.646s-6-5.655-6.45-4.604z" class="N"/><path d="M1196.71 149.581l-146.79 2.503-2.92-2.503v-48.253h149.71l2.92 2.503-2.92 45.75zm0-52.737l-146.79 2.503-2.92-2.503V86h149.71l2.92 2.503-2.92 8.34z" class="O"/><path d="M1199.63 103.831h-149.71v48.253h149.71v-48.253z" class="D"/><path d="M1199.63 88.503h-149.71v10.848h149.71V88.503z" class="W"/><path d="M1078.57 95.953a2.03 2.03 0 0 0 2.03-2.028 2.03 2.03 0 0 0-2.03-2.028 2.02 2.02 0 1 0 0 4.056z" class="X"/><path d="M1071.06 93.925a2.03 2.03 0 0 1-4.06 0 2.03 2.03 0 0 1 4.06 0z" fill="#eb908b"/><path d="M1059.49 95.953a2.03 2.03 0 0 0 2.03-2.028 2.03 2.03 0 0 0-4.06 0 2.03 2.03 0 0 0 2.03 2.028z" fill="#ffaa3f"/><path d="M1169.53 106.184c-10.64 0-19.27 8.632-19.27 19.28s8.63 19.28 19.27 19.28c10.65 0 19.28-8.633 19.28-19.28s-8.63-19.28-19.28-19.28zm0 31.69a12.41 12.41 0 0 1-12.4-12.41c0-6.856 5.56-12.411 12.4-12.411 6.85 0 12.41 5.559 12.41 12.411a12.41 12.41 0 0 1-12.41 12.41z" class="G"/><path d="M1187.74 113.492c-3.49-3.49-8.3-5.641-13.62-5.641-10.65 0-19.27 8.632-19.27 19.28a19.5 19.5 0 0 0 .33 3.604c1.69 8.925 9.52 15.676 18.94 15.676 3.52 0 6.82-.941 9.66-2.59 5.75-3.339 9.61-9.56 9.61-16.69a19.13 19.13 0 0 0-5.65-13.639zm-7.4 24.377a12.35 12.35 0 0 1-6.22 1.672 12.41 12.41 0 0 1-12.19-10.099c-.14-.745-.22-1.521-.22-2.311 0-6.856 5.56-12.411 12.41-12.411 3.42 0 6.52 1.384 8.77 3.627 2.24 2.247 3.63 5.358 3.63 8.784.01 4.59-2.48 8.596-6.18 10.738z" class="E"/><path d="M1193.4 127.131c0 7.13-3.87 13.356-9.61 16.69l-3.45-5.951c3.7-2.143 6.19-6.148 6.19-10.739 0-3.43-1.39-6.536-3.64-8.783l4.85-4.856a19.18 19.18 0 0 1 5.66 13.639z" class="B"/><path d="M1183.79 143.821c-2.84 1.649-6.14 2.59-9.67 2.59-9.41 0-17.25-6.751-18.93-15.676l6.75-1.293a12.41 12.41 0 0 0 12.19 10.099 12.35 12.35 0 0 0 6.22-1.671l3.44 5.951z" fill="#ffc945"/><path d="M1124.98 113.282h-67.1v3.134h67.1v-3.134zm0 12.931h-67.1v3.133h67.1v-3.133zm0 12.935h-67.1v3.134h67.1v-3.134z" class="B"/><path d="M691.038 153.705H606s5.849-13.054 19.346-7.651c0 0 4.95-13.502 16.648-11.926s13.949 9.724 13.949 9.724 12.598-5.001 24.748 5.13c0 0 9.899-1.128 10.347 4.723zm453.002-134H1059s5.85-13.054 19.35-7.651c0 0 4.95-13.502 16.64-11.926 11.7 1.576 13.95 9.725 13.95 9.725s12.6-5.002 24.75 5.129c0 0 9.9-1.128 10.35 4.723zm-975.002 80H84s5.849-13.054 19.346-7.651c0 0 4.95-13.502 16.648-11.926s13.949 9.725 13.949 9.725 12.598-5.002 24.748 5.129c0 0 9.899-1.128 10.347 4.723zm280 93H364s5.849-13.054 19.346-7.651c0 0 4.95-13.502 16.648-11.926s13.949 9.724 13.949 9.724 12.598-5.001 24.748 5.13c0 0 9.899-1.128 10.347 4.723z" class="W"/><path d="M753.374 242.8v-20.53a11.59 11.59 0 0 0-11.584-11.588h-14.645v97.642h18.773 7.456 23.165v-42.351a11.59 11.59 0 0 0-11.585-11.589c-6.393.005-11.58-5.184-11.58-11.584z" class="O"/><path d="M879.25 283.906l-9.345 9.13-3.144-4.677-5.016-7.463 12.017-5.586 3.28 5.14 2.208 3.456z" class="C"/><path d="M877.042 280.45c-4.819 2.458-8.519 6.019-10.281 7.909l-5.016-7.463 12.017-5.586 3.28 5.14z" class="K"/><path d="M906.823 10H708.432V113.482H906.823V10Z" class="W"/><path d="M751.271 19.296h-31.954v29.481h31.954V19.296z" class="D"/><path d="M887.126 45.985h-1.198v-1.798h-1.798v-1.199h2.996v2.997zm-7.898-1.798h-4.903v-1.199h4.903v1.199zm-9.8 0h-4.903v-1.199h4.903v1.199zm-9.805 0h-4.902v-1.199h4.902v1.199zm-9.8 0h-4.902v-1.199h4.902v1.199zm-9.805 0h-4.902v-1.199h4.902v1.199zm-9.8 0h-4.902v-1.199h4.902v1.199zm-9.8 0h-4.902v-1.199h4.902v1.199zm-9.804 0h-4.903v-1.199h4.903v1.199zm-9.801 0h-4.902v-1.199h4.902v1.199zm-11.601 1.798h-1.198v-2.997h2.996v1.199h-1.798v1.798zm0 48.965h-1.198v-4.895h1.198v4.895zm0-9.791h-1.198v-4.9h1.198v4.9zm0-9.795h-1.198v-4.895h1.198v4.895zm0-9.795h-1.198v-4.895h1.198v4.895zm0-9.791h-1.198v-4.895h1.198v4.895zm1.797 47.064h-2.995V99.85h1.198v1.793h1.797v1.199zm88.219 0h-4.903v-1.198h4.903v1.198zm-9.8 0h-4.903v-1.198h4.903v1.198zm-9.805 0h-4.902v-1.198h4.902v1.198zm-9.8 0h-4.902v-1.198h4.902v1.198zm-9.805 0h-4.902v-1.198h4.902v1.198zm-9.8 0h-4.902v-1.198h4.902v1.198zm-9.8 0h-4.902v-1.198h4.902v1.198zm-9.804 0h-4.903v-1.198h4.903v1.198zm-9.801 0h-4.902v-1.198h4.902v1.198zm86.313 0h-2.996v-1.199h1.798V99.85h1.198v2.992zm0-7.892h-1.199v-4.895h1.199v4.895zm0-9.791h-1.199v-4.9h1.199v4.9zm0-9.795h-1.199v-4.895h1.199v4.895zm0-9.795h-1.199v-4.895h1.199v4.895zm0-9.791h-1.199v-4.895h1.199v4.895z" class="O"/><path d="M794.626 119.073H690.139a2.97 2.97 0 0 1-2.969-2.97V64.775a2.97 2.97 0 0 1 2.969-2.97h104.487a2.97 2.97 0 0 1 2.969 2.97v51.332a2.97 2.97 0 0 1-2.969 2.966z" class="G"/><path d="M798.221 122.668H693.734a2.97 2.97 0 0 1-2.969-2.97V68.366a2.97 2.97 0 0 1 2.969-2.97h104.487a2.97 2.97 0 0 1 2.969 2.97v51.332c-.004 1.641-1.329 2.97-2.969 2.97z" class="E"/><g class="B"><path opacity=".67" d="M698.649 118.474h93.86s-3.127-21.908-8.055-28.567-9.053 2.529-14.51 13.453-16.775 15.849-25.028 4.925c-8.256-10.919-11.982-14.383-21.17-8.521s-16.377.931-19.438-6.658-5.659-7.459-5.659-7.459v32.827z"/><path opacity=".28" d="M698.649 118.473s4.325.201 7.788-4.593 4.395-12.118 8.121-14.384 7.19 0 12.381 9.488 13.311 5.027 16.775-4.427 5.06-13.986 10.784-14.515 9.319 6.527 11.318 13.317 7.189 9.055 12.38 6.26 14.313 8.858 14.313 8.858h-93.86v-.004z"/><use xlink:href="#B"/><path d="M744.383 70.795h-37.678v2.131h37.678v-2.131z"/><use xlink:href="#B" y="6.492"/><path d="M735.729 77.286h-29.024v2.13h29.024v-2.13zm19.285-54.968H723.06v29.481h31.954V22.318z"/></g><path d="M751.271 35.364l-11.619 5.258-11.615-5.258v7.857h23.234v-7.857zm.001-3.548h-23.234v2.1l11.615 5.14 11.619-5.14v-2.1z" class="J"/><path d="M851.424 41.23h-64.272v-3h64.272v3.001zm-63.869-.403h63.471v-2.205h-63.471v2.205zm63.869-11.986h-64.272V25.84h64.272v3.001zm-63.869-.398h63.471v-2.205h-63.471v2.205zm63.87-11.986h-64.272v-3.001h64.272v3.001zm-63.87-.398h63.472v-2.205h-63.472v2.205z" class="B"/><path d="M910.618 283.118l-10.272 9.585-2.563-11.488-.992-4.445 12.275-3.106.708 4.327.844 5.127z" class="C"/><path d="M909.775 277.99s-2.646-.276-5.077.319c-1.785.438-6.919 2.905-6.919 2.905l-.992-4.449 12.275-3.106.713 4.331z" class="K"/><path d="M907.955 282.067c-5.2-.078-7.063 4.187-8.812 8.15s-3.866 13.207-6.896 14.144c-3.031.931-4.662 2.563-4.662 4.431h10.933s6.861-7.546 10.39-10.49 4.387-4.856 4.387-4.856-1.356-7.293-2.677-10.32c0-.009-.931-1.032-2.663-1.059z" class="F"/><path d="M908.817 289.671c-3.792.787-5.187 4.856-7.518 11.619s-6.953 7.498-6.953 7.498h12.914s.722-2.485 2.257-5.63c1.137-2.332 3.096-4.991 3.59-7.424 1.163-5.713-3.367-6.256-4.29-6.063z" class="M"/><path d="M909.739 274.688c-8.108.896-13.797 3.596-13.797 3.596s-2.759.896-6.752-7.507c-3.993-8.413-18.035-34.744-18.035-34.744l16.146.512 12.205.389s6.59 16.681 9.787 23.772.446 13.982.446 13.982z" fill="#376f92"/><path d="M895.946 263.331c-4.893 5.862-3.253 12.682 0 14.953 0 0-2.759.896-6.752-7.507-3.992-8.413-18.034-34.744-18.034-34.744l16.145.512 10.539 4.681s-10.381 1.33-12.712 6.794 15.704 9.453 10.814 15.311z" class="I"/><path opacity=".16" d="M852.089 245.412l-1.802-1.002c-1.141-.634-1.845-1.841-1.824-3.145l.009-.442-.009-.442c-.021-1.303.683-2.511 1.824-3.145l1.802-1.002c1.425-.792 2.125-2.45 1.71-4.024-.009-.018-.009-.035-.018-.053-.42-1.57-1.863-2.655-3.485-2.629l-2.064.035c-1.321.022-2.528-.7-3.175-1.851l-.389-.678c-.683-1.133-.705-2.546-.022-3.683l1.058-1.759a3.55 3.55 0 0 0-.534-4.339l-.043-.044a3.55 3.55 0 0 0-4.338-.534l-1.758 1.059c-1.137.682-2.55.656-3.683-.022l-.677-.389c-1.151-.643-1.876-1.851-1.85-3.176l.035-2.065a3.55 3.55 0 0 0-2.628-3.487c-.018-.008-.035-.008-.053-.017-1.574-.416-3.232.284-4.023 1.71l-1.002 1.803c-.634 1.141-1.841 1.846-3.144 1.824l-.442-.009-.441.009c-1.303.022-2.51-.683-3.145-1.824l-1.001-1.803a3.56 3.56 0 0 0-4.023-1.71c-.018.009-.035.009-.053.017-1.57.42-2.654 1.864-2.628 3.487l.035 2.065c.022 1.321-.7 2.528-1.85 3.176l-.678.389c-1.132.682-2.545.704-3.682.022l-1.758-1.059c-1.399-.835-3.188-.617-4.338.534l-.044.044c-1.15 1.15-1.373 2.939-.533 4.339l1.058 1.759c.682 1.137.656 2.55-.022 3.683l-.389.678c-.643 1.151-1.85 1.877-3.175 1.851l-2.064-.035a3.55 3.55 0 0 0-3.485 2.629c-.009.018-.009.035-.018.053a3.56 3.56 0 0 0 1.71 4.024l1.802 1.002c1.141.634 1.845 1.842 1.823 3.145l-.008.442.008.442c.022 1.304-.682 2.511-1.823 3.145l-1.802 1.002c-1.426.792-2.125 2.45-1.71 4.025.009.017.009.035.018.052.419 1.571 1.863 2.656 3.485 2.63l2.064-.035c1.321-.022 2.528.7 3.175 1.85l.389.678c.682 1.133.704 2.546.022 3.684l-1.058 1.758a3.56 3.56 0 0 0 .533 4.34l.044.044a3.55 3.55 0 0 0 4.338.533l1.758-1.058c1.137-.683 2.55-.657 3.682.022l.678.389c1.15.643 1.876 1.85 1.85 3.176l-.035 2.065a3.55 3.55 0 0 0 2.628 3.486c.018.009.035.009.053.018a3.56 3.56 0 0 0 4.023-1.711l1.001-1.802c.635-1.142 1.842-1.846 3.145-1.824l.441.008.442-.008c1.303-.022 2.51.682 3.144 1.824l1.002 1.802a3.56 3.56 0 0 0 4.023 1.711c.018-.009.035-.009.053-.018 1.569-.42 2.654-1.863 2.628-3.486l-.035-2.065c-.022-1.321.699-2.529 1.85-3.176l.677-.389c1.133-.683 2.546-.705 3.683-.022l1.758 1.058c1.399.836 3.188.617 4.338-.533l.043-.044c1.151-1.151 1.374-2.94.534-4.34l-1.058-1.758c-.683-1.138-.656-2.551.022-3.684l.389-.678c.643-1.15 1.85-1.877 3.175-1.85l2.064.035a3.55 3.55 0 0 0 3.485-2.63c.009-.017.009-.035.018-.052a3.56 3.56 0 0 0-1.71-4.025zm-30.533 15.434c-11.056 0-20.02-8.964-20.02-20.027s8.96-20.027 20.02-20.027 20.02 8.963 20.02 20.027-8.965 20.027-20.02 20.027zm8.738-17.498a9.04 9.04 0 0 0-6.327-11.105c-4.813-1.319-9.783 1.515-11.101 6.329a9.04 9.04 0 0 0 6.327 11.105c4.812 1.319 9.782-1.515 11.101-6.329z" fill="#f4d7c9"/><path opacity=".16" d="M1022.81 247.462l-1.05-.587a2.09 2.09 0 0 1-1.07-1.837l.01-.258-.01-.258a2.07 2.07 0 0 1 1.07-1.837l1.05-.587c.83-.463 1.24-1.43 1-2.349-.01-.009-.01-.022-.01-.03a2.08 2.08 0 0 0-2.04-1.536l-1.2.018c-.77.013-1.48-.412-1.86-1.081l-.22-.394a2.08 2.08 0 0 1-.02-2.152l.62-1.028c.49-.818.36-1.859-.31-2.533l-.03-.026c-.67-.674-1.71-.801-2.53-.311l-1.03.617c-.66.398-1.48.385-2.15-.013l-.39-.228c-.68-.376-1.1-1.08-1.08-1.854l.02-1.208a2.08 2.08 0 0 0-1.54-2.034c-.01-.004-.02-.004-.03-.009-.92-.245-1.89.166-2.35.998l-.58 1.049c-.38.665-1.08 1.077-1.84 1.068-.09 0-.17-.004-.26-.004l-.26.004a2.05 2.05 0 0 1-1.83-1.068l-.59-1.049c-.46-.832-1.43-1.243-2.349-.998-.008.005-.022.005-.03.009-.919.245-1.548 1.085-1.535 2.034l.017 1.208c.013.769-.411 1.478-1.08 1.854l-.394.228c-.66.398-1.486.411-2.151.013l-1.028-.617c-.818-.49-1.858-.359-2.532.311l-.026.026c-.674.674-.8 1.715-.311 2.533l.617 1.028c.398.665.385 1.487-.013 2.152l-.227.394c-.377.674-1.081 1.094-1.855 1.081l-1.207-.018c-.949-.017-1.788.617-2.033 1.536-.004.008-.004.021-.009.03-.245.919.166 1.89.997 2.349l1.05.587a2.08 2.08 0 0 1 1.067 1.837l-.005.258.005.258c.013.761-.398 1.466-1.067 1.837l-1.05.587c-.831.463-1.242 1.43-.997 2.349.005.009.005.022.009.031.245.918 1.084 1.548 2.033 1.535l1.207-.018a2.1 2.1 0 0 1 1.855 1.081l.227.394a2.09 2.09 0 0 1 .013 2.152l-.617 1.028a2.08 2.08 0 0 0 .311 2.533l.026.026a2.07 2.07 0 0 0 2.532.311l1.028-.617c.665-.398 1.487-.385 2.151.013l.394.228c.674.376 1.093 1.08 1.08 1.855l-.017 1.207c-.018.949.616 1.789 1.535 2.034.008.005.022.004.03.009.919.245 1.889-.166 2.349-.998l.59-1.049c.37-.665 1.07-1.077 1.83-1.068l.26.005.26-.005c.76-.013 1.46.398 1.84 1.068l.58 1.049c.46.832 1.43 1.243 2.35.998.01-.005.02-.004.03-.009a2.08 2.08 0 0 0 1.54-2.034l-.02-1.207c-.02-.77.41-1.479 1.08-1.855l.39-.228c.66-.398 1.49-.411 2.15-.013l1.03.617a2.07 2.07 0 0 0 2.53-.311l.03-.026c.67-.674.8-1.715.31-2.533l-.62-1.028c-.4-.665-.38-1.487.02-2.152l.22-.394a2.09 2.09 0 0 1 1.86-1.081l1.2.018a2.08 2.08 0 0 0 2.04-1.535c0-.009 0-.022.01-.031.24-.919-.17-1.89-1-2.349zm-17.83 9.007c-6.45 0-11.68-5.232-11.68-11.689s5.23-11.689 11.68-11.689a11.69 11.69 0 0 1 11.69 11.689 11.69 11.69 0 0 1-11.69 11.689z" fill="#f4d7c9"/><path d="M916.517 188.131v-6.278l-5.65-1.461-4.329-5.162 1.128-3.088-34.486-39.42H729.121a2.56 2.56 0 0 0-2.559 2.559v4.458l.035.026a3.96 3.96 0 0 0 .914 2.073l38.217 45.567c2.777 3.307 6.875 5.223 11.195 5.223H912.52c2.218 0 3.774-1.68 3.997-3.578.035-.298.035-.608 0-.919z" class="O"/><path d="M912.525 186.355H776.924a14.61 14.61 0 0 1-11.196-5.223l-38.221-45.562c-2.191-2.612-.336-6.597 3.075-6.597h135.601c4.321 0 8.418 1.911 11.195 5.223l38.221 45.562c2.191 2.612.333 6.597-3.074 6.597z" class="B"/><use xlink:href="#C" class="G"/><path d="M792.57 163.275h-30.489c-.717 0-1.399-.32-1.859-.871l-14.951-17.945a.93.93 0 0 1 .713-1.526h30.489c.717 0 1.399.319 1.859.87l14.951 17.945a.93.93 0 0 1-.713 1.527z" class="D"/><path d="M777.768 176.639h-4.496a2.41 2.41 0 0 1-1.854-.866l-5.528-6.602a.93.93 0 0 1 .713-1.526h4.496c.717 0 1.395.314 1.854.866l5.527 6.601a.93.93 0 0 1-.712 1.527zm12.997 0h-4.496a2.41 2.41 0 0 1-1.854-.866l-5.528-6.602a.93.93 0 0 1 .713-1.526h4.496c.717 0 1.395.314 1.854.866l5.528 6.601a.93.93 0 0 1-.713 1.527zm12.996 0h-4.495a2.41 2.41 0 0 1-1.854-.866l-5.528-6.602a.93.93 0 0 1 .713-1.526h4.495c.717 0 1.395.314 1.854.866l5.528 6.601a.93.93 0 0 1-.713 1.527z" class="G"/><path d="M827.919 151.477h-34.443c-.713 0-1.391-.315-1.85-.862l-5.156-6.146c-.507-.608-.078-1.531.713-1.531h34.443c.713 0 1.39.314 1.85.861l5.156 6.147c.507.608.078 1.531-.713 1.531zm10.543 12.567h-34.443c-.713 0-1.391-.315-1.85-.862l-5.156-6.146c-.507-.604-.078-1.531.713-1.531h34.443c.713 0 1.39.315 1.85.862l5.156 6.146c.507.608.074 1.531-.713 1.531zm10.565 12.595h-34.443c-.712 0-1.39-.315-1.849-.862l-5.156-6.146c-.508-.604-.079-1.531.713-1.531h34.442a2.42 2.42 0 0 1 1.85.861l5.156 6.147c.507.608.079 1.531-.713 1.531z" class="D"/><g class="G"><use xlink:href="#C" x="-31.425"/><path d="M844.733 149.968h-3.752c-.542 0-1.347-.438-1.802-.98l-1.364-1.623c-.455-.543-.385-.98.157-.98h3.752c.542 0 1.347.437 1.802.98l1.364 1.623c.455.542.385.98-.157.98z"/></g><path d="M844.991 149.097h-3.752c-.543 0-1.347-.438-1.802-.98l-1.364-1.623c-.455-.543-.385-.98.157-.98h3.752c.542 0 1.347.437 1.802.98l1.364 1.623c.455.542.381.98-.157.98z" class="D"/><path d="M882.884 158.099h-3.752c-.543 0-1.347-.437-1.802-.98l-1.364-1.622c-.455-.543-.385-.98.157-.98h3.752c.542 0 1.347.437 1.802.98l1.364 1.622c.451.543.381.98-.157.98z" class="G"/><path d="M883.137 157.233h-3.752c-.542 0-1.347-.437-1.802-.98l-1.364-1.623c-.455-.542-.385-.98.157-.98h3.753c.542 0 1.346.438 1.801.98l1.365 1.623c.455.538.385.98-.158.98z" class="D"/><g class="G"><path d="M880.059 176.333a.9.9 0 0 1-.687-.32l-26.352-31.318a.9.9 0 0 1 .687-1.478.9.9 0 0 1 .686.319l26.352 31.318a.9.9 0 0 1-.686 1.479z"/><path d="M876.307 168.714h-3.752c-.543 0-1.347-.438-1.802-.98l-1.365-1.623c-.454-.543-.384-.98.158-.98h3.752c.542 0 1.347.437 1.802.98l1.364 1.623c.455.538.385.98-.157.98z"/></g><path d="M876.565 167.843h-3.753c-.542 0-1.347-.438-1.801-.98l-1.365-1.623c-.455-.543-.385-.98.158-.98h3.752c.542 0 1.347.437 1.802.98l1.364 1.623c.455.542.385.98-.157.98z" class="D"/><path d="M920.908 216.073s-2.173 6.737-9.922 12.651c-3.748 2.866-8.799 5.539-15.543 7.166-20.676 5-37.232 3.193-38.43 3.39-1.067.175 9.244 16.48 15.047 26.266l1.925 3.298c.07.118.131.236.196.35 4.728 8.5 2.2 10.635 2.2 10.635-4.793.599-11.383 5.993-11.383 5.993-9.984 2.599-15.975-12.984-21.568-19.576s-19.972-26.17-13.579-36.756 63.209-24.175 63.209-24.175l5.663 2.188 10.684 4.125 11.501 4.445z" fill="#376f92"/><path d="M873.989 268.852l.197.35a1.28 1.28 0 0 1-.197-.35zm40.928-45.605c-.03.074-1.526 2.192-3.931 5.481-3.748 2.866-8.799 5.539-15.542 7.166-20.676 5-37.233 3.194-38.431 3.39-1.067.175 9.245 16.48 15.048 26.266-3.481-4.191-8.983-4.742-13.098-13.124-4.994-10.171-16.775.385-18.926-8.006s6.148-7.791 18.327-13.185 14.178-3.198 25.224-5.398 9.315-15.758 9.315-15.758l5.816-2.568 8.095-1.045 2.589 5.171c2.414 4.838 5.619 11.356 5.514 11.61z" class="I"/><path d="M879.246 283.9s5.75 4.804 5.881 8.452-12.104 16.011-12.104 16.011h-15.521s-1.661-2.546 2.633-4.374 4.723-1.934 6.337-3.653 3.008-6.339 5.584-11.173 7.19-5.263 7.19-5.263z" class="F"/><path d="M884.94 95.668s-3.635-2.235-4.846-4.751-4.286-8.014-4.469-9.318 2.422.092 3.914 2.703c0 0-1.024-2.795-2.887-6.431s-4.845-5.871-4.097-7.643 6.149 4.939 6.8 6.059 1.955-.092 3.634.744 1.675-.092 3.354.932 3.118 3.106 4.868 12.271l-6.271 5.433zm-42.822 69.789s-1.968-.678-5.296-3.88-5.296-4.37-6.402-4.864-2.895-1.046-4.741-.923-2.834-.74-2.401-1.357 2.156-1.045 2.156-1.045-3.385.306-2.523-1.234 5.724-.923 5.724-.923.923-1.168 2.218-1.168 1.167-1.045 3.756-.739 3.94 1.846 6.647 2.463 4.946 6.251 4.946 6.251l-4.084 7.419z" class="C"/><path d="M846.19 157.412s-4.352 3.845-5.681 7.909l-.468 1.199 2.528 3.531 5.86-11.186-2.239-1.453zm38.286-58.266l-2.095-3.294s4.093-4.795 9.385-6.194l1.303 2.297-8.593 7.192z" fill="#93405e"/><path d="M947.208 141.682l-15.922 8.451-2.366 1.256-2.226-1.146c-4.513-2.371-14.764-7.953-19.954-12.437-2.414-2.083-6.416-7.079-10.575-12.656-7.534-10.101-15.585-22.101-15.585-22.101 5.79-8.99 12.485-11.987 12.485-11.987s18.035 25.374 20.829 27.771c1.636 1.404 12.743 8.977 21.691 15.027l11.623 7.822z" class="X"/><path d="M947.208 141.681l-15.922 8.452-4.588.109c-4.513-2.371-14.763-7.953-19.954-12.437-2.414-2.082-6.416-7.078-10.575-12.656 3.307 1.724 6.569 3.238 8.467 4.874 4.128 3.574 2.93-.801 21.306 1.728a61.34 61.34 0 0 1 9.651 2.1l11.615 7.83z" fill="#4f91b3"/><path d="M934.5 139.134s-13.78 8.457-13.81 3.133a14.54 14.54 0 0 0-.757-4.585c-.839-2.493-2.077-3.876-2.077-3.876-4.929 5.258-7.124 3.596-7.723 2.599s-4.662-9.388-4.063-12.188.468-4.462-.398-6.195.398-5.923.398-5.923l11.72-2.467s10.85 11.055 11.782 14.782 4.928 14.72 4.928 14.72z" class="C"/><path d="M950.077 175.362c-3.594 10.788-23.147 46.813-33.38 47.841-4.172.42-9.555-2.305-14.462-5.683-7.128-4.904-13.263-11.177-13.263-11.177 8.987-6.374 7.788-26.471 7.788-26.471-.201.171-12.848 10.679-21.327 11.667-8.55.998-36.188-18.181-36.188-18.181s6.192-15.582 9.188-14.983 22.766 13.387 26.151 13.583c3.385.202 22.574-16.982 27.35-21.777s23.58-12.187 36.76-12.384c0 0 8.589 1.4 11.584 7.791 2.992 6.4 3.394 18.986-.201 29.774z" class="X"/><path d="M911.79 100.239c-6.258.753-12.201 5.39-10.281 10.04s5.668 5.206 8.069 5.236 3.196 1.457 4.036 2.756 1.211.495 2.265-1.609c1.054-2.109 3.468-.6 3.529 2.239s-.433 9.721 4.645 9.843 6.07-1.981 6.258-1.981 4.333-8.487 4.027-15.924c0 0 5.265-2.725 4.273-7.065s-6.691-5.206-10.098-1.706c0 0-2.851.153-5.514-1.641s-6.258-2.664-7.929-1.61-1.732 1.234-3.28 1.422z" class="F"/><path d="M916.256 243.094h-5.349v60.79h5.349v-60.79z" fill="#f0d1aa"/><g fill="#edbf84"><path d="M916.255 303.883h-2.676v-60.79l2.676-.166v60.956z"/><path d="M934.749 308.38h-42.34c0-1.242.503-2.362 1.316-3.176a4.48 4.48 0 0 1 3.179-1.316h33.35a4.49 4.49 0 0 1 4.495 4.492z"/></g><path d="M921.241 308.38h-28.828c0-1.242.503-2.362 1.316-3.176s1.938-1.316 3.18-1.316h16.674l7.658 4.492z" fill="#f0d1aa"/><path d="M966.122 179.311l-1.115.565-.35.197-.346.201-.341.21-.31.197-.354.24-.328.228-.324.236-1.058.836-.372.319-1.268 1.207-.013.013-.499.525-.074.084-.477.538-.507.608c-.009.013-.022.026-.031.039l-.459.586-.472.63-.026.035-.447.635-.454.673-.389.613-.105.17-.097.153-.686 1.173-.787 1.474-.381.757-.367.765-.704 1.567-.337.796-.328.805-.276.7-.354.936-.301.827c-.014.03-.022.065-.035.096l-.259.735-.581 1.719-.258.805-.267.849-.485 1.61-.027.096-.249.857-.245.858-.301 1.089-.167.621-.096.346-.586 2.213-.555 2.135-.232.901-.717 2.787-.21.805-.385 1.439-.24.879-.879 3.045-.202.665-.148.468-.127.394-.429 1.264-.472 1.304c-.009.022-.017.044-.022.065l-.223.565-.197.481-.052.127-.236.547c-.005.013-.013.03-.022.043l-.263.574-.266.551-.201.398-.097.179-.258.464-.122.214-.166.276c-7.509 12.223-28.858 11.781-28.858 11.781h-31.36c-7.36 0-7.509-7.512.883-8.102s24.735-10.311 32.095-31.664c3.568-10.35 7.722-16.514 11.059-20.119 2.834-3.066 6.848-4.772 11.02-4.772h29.978a.46.46 0 0 1 .197.874z" fill="#f4c8af"/><path d="M965.007 179.875l-.35.197-.345.201-.342.21-.31.197-.354.241-.328.227-.324.236-1.058.836-.372.319-1.268 1.208-.013.013-.499.525-.074.083-.477.538-.507.608c-.009.013-.022.026-.031.039l-.459.587-.472.629c-.009.014-.018.022-.026.035l-.446.635-.455.673-.389.613-.105.171-.092.153h-.005l-.686 1.172-.787 1.474-.381.757-.367.766-.704 1.566-.337.796-.328.805-.275.7-.355.936-.301.827c-.014.03-.022.066-.035.096l-.258.735-.582 1.719-.258.805-.267.849-.485 1.61-.026.096-.25.857-.245.858-.301 1.089-.166.621-.097.346-.586 2.214-.555 2.134-.232.902-.717 2.786-.21.805-.385 1.439-.24.88-.879 3.044-.201.665-.149.468-.127.394-.429 1.264-.472 1.304c-.009.022-.017.044-.022.066l-.223.564-.197.481-.052.127-.236.547c-.005.013-.013.031-.022.044l-.262.573-.267.551-.201.398-.097.179-.258.464-.288.49c-7.509 12.223-28.858 11.781-28.858 11.781h-29.375c-2.094-1.636-1.075-4.134 4.496-4.528 8.392-.59 26.523-12.441 33.887-33.798 3.569-10.351 7.723-16.515 11.06-20.119 2.834-3.067 6.844-4.773 11.02-4.773h21.669 0z" fill="#f7dfd3"/><path d="M955.902 189.054l-.687 1.172-.787 1.474-.381.757-.367.766-.704 1.566-.337.796-.328.805-.275.7-.354.936-.302.827-.035.096-.258.735-.582 1.719-.258.805-.266.849-.486 1.61-.026.096-.249.858-.245.857-.302 1.089-.166.621-.096.346-.586 2.214-.556 2.134-.232.902-.717 2.786-.21.805-.385 1.439-.24.88-.879 3.045-.201.664-.149.469-.127.393-.428 1.265-.473 1.303c-.008.022-.017.044-.021.066l-.223.564-.197.481-.053.127-.236.547c-.004.013-.013.031-.022.044l-.262.573-.267.551-.201.398-.096.18-.258.463-.123.215-.166.275c-7.509 12.223-28.858 11.781-28.858 11.781h-10.321c1.085-.065 21.136-1.028 28.286-31.012 4.836-20.25 17.956-21.453 25.692-23.032z" fill="#f4c8af"/><path d="M739.791 242.8v-20.53a11.59 11.59 0 0 0-11.584-11.588h-14.646v97.642h18.774 7.456 23.164v-42.351a11.59 11.59 0 0 0-11.584-11.589 11.58 11.58 0 0 1-11.58-11.584z" class="D"/><path d="M736.669 283.529c-4.47-8.531-9.857-14.616-18.621-21.502s-20.239-6.916-24.922-9.134-4.807 3.928-3.35 9.703-2.965 32.364 23.658 40.815c26.619 8.457 26.536-13.587 23.235-19.882z" fill="#f2d6c8"/><g fill="#f5b89b"><path d="M719.854 289.264c-.197 0-.367-.145-.394-.346-1.276-9.414 3.39-18.715 3.438-18.807a.4.4 0 1 1 .713.363c-.049.092-4.597 9.178-3.359 18.335a.4.4 0 0 1-.341.45c-.022.005-.039.005-.057.005zm.07 1.054c-.061 0-.126-.013-.183-.044-7.933-4.169-21.721-2.677-21.861-2.66a.4.4 0 0 1-.442-.354c-.026-.219.131-.416.354-.442.577-.065 14.173-1.535 22.321 2.747.196.101.271.346.166.539-.075.135-.21.214-.355.214z"/><path d="M722.413 297.974a.4.4 0 0 1-.39-.306c-5.715-23.619-28.372-40.308-28.6-40.474a.4.4 0 1 1 .473-.648c.231.167 23.12 17.031 28.906 40.934.052.214-.079.429-.293.481-.031.009-.066.013-.096.013z"/><path d="M711.712 275.82c-.088 0-.175-.03-.249-.087-5.174-4.143-17.677-3.062-17.799-3.049-.223.026-.416-.145-.433-.363a.4.4 0 0 1 .363-.434c.525-.048 12.944-1.119 18.371 3.22.171.14.202.39.062.56a.4.4 0 0 1-.315.153zm-4.15-5.263c-.157 0-.302-.092-.367-.245-1.623-3.858-.766-10.381-.731-10.656.031-.219.223-.372.451-.342a.4.4 0 0 1 .341.451c-.009.066-.862 6.584.673 10.237a.4.4 0 0 1-.214.525c-.048.017-.101.03-.153.03z"/></g><path d="M667.054 308.207c-.761-7.98 6.463-19.992 29.654-12.179 0 0 5.86-18.313 21.97-17.705s21.236 15.684 21.236 15.684 21.643-2.616 24.734 15.696c0 0-96.497 10.031-97.594-1.496z" class="U"/><g class="V"><path d="M715.154 309.58l-.788-.127c2.091-12.971-5.947-22.28-6.03-22.372l.599-.529c.083.1 8.366 9.69 6.219 23.028z"/><path d="M715.42 301.635l-.612-.516c.074-.087 7.421-8.876 8.672-14.392l.778.175c-1.294 5.708-8.532 14.37-8.838 14.733zm-.341 4.615c-5.737-.31-10.823-6.229-11.033-6.483l.608-.516c.048.061 5.077 5.91 10.469 6.203l-.044.796zm18.104 3.755l-.52-.604c.416-.358 10.22-8.784 15.319-8.928l.022.8c-4.819.131-14.724 8.644-14.821 8.732z"/><path d="M752.36 308.355c-.079-.004-7.894-.481-14.217-2.113l.201-.774c6.249 1.614 13.989 2.082 14.064 2.091l-.048.796zm-58.241 1.169c-5.165-4.296-16.054-7.726-16.163-7.761l.236-.761c.455.14 11.151 3.513 16.438 7.909l-.511.613z"/><path d="M690.1 306.203l-.801-.022c.127-4.357-1.771-7.783-1.788-7.818l.695-.393c.088.148 2.029 3.644 1.894 8.233z"/></g><path d="M876.565 308.364h-7.587s6.118-3.067 8.12-9.353c1.444-4.532 3.805-8.881 6.739-7.804s.516 6.067-1.04 8.88c-2.226 4.012-6.232 8.277-6.232 8.277z" class="M"/><path d="M729.23 210.683h-1.198v-48.529a7.49 7.49 0 0 1 7.478-7.48h4.946v1.198h-4.946a6.29 6.29 0 0 0-6.28 6.282v48.529zm4.837.502h-1.198v-48.528a3.49 3.49 0 0 1 3.485-3.486h8.698v1.199h-8.698a2.29 2.29 0 0 0-2.287 2.287v48.528z" class="E"/><path d="M901.934 216.071c.179.486.275.971.301 1.448-7.128-4.904-13.263-11.177-13.263-11.177 8.986-6.374 7.788-26.471 7.788-26.471s10.141-8.859 11.541-6.715-3.595 14.427 0 19.471c3.59 5.044-9.332 15.277-6.367 23.444z" fill="#4f91b3"/><path d="M919.933 137.682c-.839-2.494-2.077-3.876-2.077-3.876s1.819-2.253 2.082-5.057c0 0 2.422 5.595-.005 8.933z" class="K"/><path d="M819.211 74.558c4.224-3.661 4.68-10.055 1.02-14.279a10.12 10.12 0 0 0-14.274-1.02c-4.224 3.661-4.68 10.055-1.02 14.279a10.12 10.12 0 0 0 14.274 1.02zm58.4-17.523h-44.943v2.905h44.943v-2.905zm-.001 8.583h-44.943v2.905h44.943v-2.905zm-20.073 8.504h-24.87v2.905h24.87v-2.905z" class="B"/><g class="O"><path d="M733.905 238.482c0 1.05-.853 1.903-1.902 1.903s-1.902-.853-1.902-1.903.852-1.903 1.902-1.903a1.9 1.9 0 0 1 1.902 1.903z"/><use xlink:href="#D"/><use xlink:href="#D" y="-8.95"/></g><path d="M919.938 141.335s.275-1.654 1.749-2.673 10.924-5.171 13.486-.652l-15.235 3.325z" fill="#93405e"/><defs ><path id="B" d="M700.446 73.66a1.8 1.8 0 0 1-1.797-1.798 1.8 1.8 0 0 1 1.797-1.798 1.8 1.8 0 0 1 1.798 1.798 1.8 1.8 0 0 1-1.798 1.798z"/><path id="C" d="M895.632 176.333a.9.9 0 0 1-.687-.32l-26.352-31.318a.9.9 0 0 1 .686-1.478.9.9 0 0 1 .687.319l26.352 31.318a.9.9 0 0 1-.686 1.479z"/><path id="D" d="M732.007 231.435c1.051 0 1.903-.852 1.903-1.903s-.852-1.903-1.903-1.903-1.902.852-1.902 1.903.852 1.903 1.902 1.903z"/></defs></svg>