<svg xmlns="http://www.w3.org/2000/svg" xmlns:xlink="http://www.w3.org/1999/xlink" width="1470" height="807" fill="none" xmlns:v="https://vecta.io/nano"><style><![CDATA[.B{fill:#fff}.C{fill:#dceceb}.D{fill:#e9928b}.E{fill:#b2e5e0}.F{fill:#3fb8a9}.G{fill:#1b5175}.H{fill:#b6d5d0}.I{fill:#0c1b3c}.J{fill:#ffac95}.K{fill:#de6667}.L{fill:#edf6f5}.M{fill:#ffab40}.N{fill:#eb908b}.O{fill:#67a4c3}.P{fill:#f5911f}.Q{fill:#4a4e73}]]></style><path d="M521.119 630.408v-50.66c0-15.793-12.802-28.596-28.595-28.596h-36.152v240.942h46.342 18.405H578.3V687.589c0-15.793-12.803-28.596-28.596-28.596-15.782.011-28.585-12.792-28.585-28.585z" class="H"/><path d="M831.839 731.837l-23.069 22.529-7.761-11.54-12.382-18.416 29.664-13.785 8.096 12.684 5.452 8.528z" class="D"/><path d="M826.387 723.309c-11.896 6.067-21.028 14.854-25.378 19.517l-12.382-18.416 29.664-13.785 8.096 12.684z" class="K"/><path d="M899.901 55.95h-489.72v255.353h489.72V55.95z" class="L"/><path d="M515.927 78.887h-78.878v72.746h78.878V78.887z" class="C"/><g class="H"><path d="M851.28 144.748h-2.958v-4.437h-4.436v-2.957h7.394v7.394zm-19.494-4.437h-12.101v-2.957h12.101v2.957zm-24.191 0h-12.101v-2.957h12.101v2.957zm-24.202 0h-12.101v-2.957h12.101v2.957zm-24.192 0H747.1v-2.957h12.101v2.957zm-24.202 0h-12.101v-2.957h12.101v2.957zm-24.191 0h-12.101v-2.957h12.101v2.957zm-24.191 0h-12.101v-2.957h12.101v2.957zm-24.203 0h-12.101v-2.957h12.101v2.957zm-24.191 0h-12.101v-2.957h12.101v2.957zm-28.64 4.437h-2.958v-7.394h7.395v2.957h-4.437v4.437z"/><use xlink:href="#B"/><path d="M614.02 285.049h-7.395v-7.384h2.958v4.426h4.437v2.958zm217.766 0h-12.101v-2.958h12.101v2.958zm-24.191 0h-12.101v-2.958h12.101v2.958zm-24.202 0h-12.101v-2.958h12.101v2.958zm-24.192 0H747.1v-2.958h12.101v2.958zm-24.202 0h-12.101v-2.958h12.101v2.958zm-24.191 0h-12.101v-2.958h12.101v2.958zm-24.191 0h-12.101v-2.958h12.101v2.958zm-24.203 0h-12.101v-2.958h12.101v2.958zm-24.191 0h-12.101v-2.958h12.101v2.958zm213.057 0h-7.394v-2.958h4.436v-4.426h2.958v7.384z"/><use xlink:href="#B" x="241.697"/></g><path d="M622.948 325.097H365.026a7.33 7.33 0 0 1-7.33-7.33V191.111a7.33 7.33 0 0 1 7.33-7.33h257.922a7.33 7.33 0 0 1 7.33 7.33v126.667c-.011 4.037-3.282 7.319-7.33 7.319z" class="E"/><path d="M631.822 333.973H373.9a7.33 7.33 0 0 1-7.33-7.33V199.976a7.33 7.33 0 0 1 7.33-7.33h257.922a7.33 7.33 0 0 1 7.33 7.33v126.667c-.011 4.048-3.282 7.33-7.33 7.33z" class="F"/><g class="B"><path opacity=".67" d="M386.032 323.618h231.691s-7.719-54.06-19.885-70.49c-12.155-16.43-22.345 6.239-35.817 33.194-13.472 26.944-41.409 39.11-61.779 12.155-20.381-26.944-29.578-35.494-52.258-21.028s-40.427 2.299-47.983-16.43-13.969-18.405-13.969-18.405v81.004z"/><path opacity=".28" d="M386.032 323.619s10.676.496 19.226-11.335 10.849-29.902 20.046-35.493 17.747 0 30.56 23.414 32.86 12.403 41.409-10.925 12.49-34.511 26.621-35.817c14.13-1.317 23.003 16.106 27.937 32.86 4.933 16.764 17.747 22.345 30.56 15.447s35.332 21.86 35.332 21.86H386.032v-.011z"/><path d="M390.469 213.037a4.44 4.44 0 0 1-4.437-4.437c0-2.451 1.986-4.437 4.437-4.437a4.44 4.44 0 0 1 4.437 4.437 4.44 4.44 0 0 1-4.437 4.437zm108.456-7.069h-93.008v5.257h93.008v-5.257zm-108.456 23.088c-2.451 0-4.437-1.986-4.437-4.437s1.986-4.436 4.437-4.436a4.44 4.44 0 0 1 4.437 4.436 4.44 4.44 0 0 1-4.437 4.437zm87.093-7.071h-71.645v5.257h71.645v-5.257zm47.605-135.636h-78.878v72.746h78.878V86.349z"/></g><path d="M515.927 118.538l-28.682 12.976-28.671-12.976v19.388h57.353v-19.388zm0-8.755h-57.353v5.182l28.671 12.684 28.682-12.684v-5.182z" class="M"/><path d="M763.152 133.015H604.5v-7.406h158.652v7.406zm-157.659-.994H762.17v-5.44H605.493v5.44zm157.659-29.58H604.5v-7.405h158.652v7.405zm-157.659-.982H762.17v-5.44H605.493v5.441zm157.66-29.575H604.5v-7.405h158.653v7.405zm-157.659-.982H762.17v-5.441H605.494v5.441z" class="B"/><path d="M1008.78 186.232h-60.205v44.335h60.205v-44.335z" class="C"/><path d="M968.016 219.351l-13.095-9.877c-.323-.249-.518-.626-.518-1.026a1.31 1.31 0 0 1 .508-1.036l13.008-9.953 1.576 2.051-11.659 8.917 11.734 8.841-1.554 2.083zm21.309.001l-1.555-2.062 11.734-8.841-11.658-8.917 1.576-2.051 13.008 9.953a1.31 1.31 0 0 1 .51 1.037 1.28 1.28 0 0 1-.52 1.025l-13.095 9.856zm-8.988-22.853l-5.793 23.276 2.514.626 5.793-23.276-2.514-.626z" class="B"/><path d="M909.271 729.894l-25.357 23.652-6.326-28.348-2.45-10.967 30.301-7.665 1.749 10.677 2.083 12.651z" class="D"/><path d="M907.188 717.241s-6.531-.68-12.533.788c-4.404 1.079-17.077 7.167-17.077 7.167l-2.451-10.978 30.302-7.664 1.759 10.687z" class="K"/><path d="M902.697 727.304c-12.835-.194-17.434 10.331-21.752 20.111s-9.542 32.59-17.023 34.9c-7.481 2.299-11.507 6.326-11.507 10.935h26.987s16.937-18.621 25.648-25.886 10.828-11.982 10.828-11.982-3.347-17.995-6.607-25.465c0-.022-2.299-2.548-6.574-2.613z" class="I"/><path d="M904.823 746.066c-9.359 1.943-12.803 11.983-18.557 28.672-5.753 16.678-17.163 18.502-17.163 18.502h31.877s1.781-6.131 5.57-13.893c2.807-5.754 7.643-12.317 8.863-18.319 2.871-14.098-8.312-15.437-10.59-14.962z" fill="#408c91"/><path d="M907.102 709.092c-20.014 2.213-34.058 8.874-34.058 8.874s-6.812 2.213-16.668-18.524c-9.855-20.759-44.518-85.733-44.518-85.733l39.855 1.263 30.129.961L906 674.592c7.892 17.488 1.102 34.5 1.102 34.5z" fill="#376f92"/><path d="M873.053 681.069c-12.079 14.465-8.031 31.294 0 36.897 0 0-6.811 2.213-16.667-18.524-9.856-20.759-44.518-85.733-44.518-85.733l39.855 1.263 26.015 11.55s-25.627 3.282-31.38 16.765c-5.754 13.472 38.764 23.328 26.695 37.782z" class="G"/><path d="M1469.09 796.489s.12-72.693-79.48-37.339c0 0-17.5-62.578-63.33-59.621-45.85 2.958-50.29 62.179-50.29 62.179s-62.78-31.91-96.46 32.806l289.56 1.975z" fill="#adccc7"/><g fill="#6eab9c"><path d="M1335 793.908l-1.95-.27c5.3-37.858-15.09-65.007-15.3-65.277l1.57-1.198c.2.27 21.09 28.078 15.68 66.745z"/><path d="M1335.71 770.681l-1.6-1.166c.19-.259 18.81-25.864 21.98-41.959l1.94.377c-3.25 16.538-21.54 41.69-22.32 42.748zm-.88 13.418c-14.54-.907-27.4-18.114-27.94-18.848l1.59-1.166c.13.173 12.85 17.196 26.47 18.049l-.12 1.965zm46.63 9.553l2.65-1.9c.24-.183 25.45-18.038 52.43-19.301l.09 1.965c-21.12.982-41.19 12.414-48.49 17.023l26.18-.907.07 1.965-32.93 1.155z"/><path d="M1402.19 783.428l-1.87-.637c4.14-12.08 12.89-23.501 13.25-23.986l1.57 1.198c-.09.119-8.92 11.658-12.95 23.425zm-126.65 9.877c-.19-.162-19.74-16.581-41.55-24.234l.65-1.857c22.16 7.772 41.97 24.418 42.18 24.58l-1.28 1.511z"/><path d="M1224.71 787.554l-.9-1.76c.57-.291 14.35-7.189 39.68-3.659l-.27 1.954c-24.67-3.422-38.38 3.4-38.51 3.465z"/></g><path opacity=".16" d="M764.792 636.855l-4.448-2.472c-2.817-1.565-4.555-4.545-4.501-7.762l.022-1.09-.022-1.09c-.054-3.217 1.684-6.196 4.501-7.762l4.448-2.472c3.519-1.954 5.246-6.045 4.221-9.931-.022-.043-.022-.086-.043-.13-1.037-3.875-4.599-6.552-8.604-6.487l-5.095.086c-3.26.054-6.24-1.727-7.837-4.566l-.961-1.673c-1.684-2.796-1.738-6.283-.054-9.09l2.612-4.339a8.77 8.77 0 0 0-1.317-10.709l-.108-.108a8.77 8.77 0 0 0-10.708-1.317l-4.34 2.613c-2.806 1.684-6.293 1.619-9.089-.054l-1.673-.961c-2.839-1.587-4.631-4.566-4.566-7.837l.086-5.095c.065-4.016-2.612-7.567-6.488-8.604-.043-.021-.086-.021-.129-.043-3.886-1.025-7.978.702-9.932 4.221l-2.472 4.447c-1.565 2.818-4.544 4.556-7.761 4.502l-1.09-.022c-.367 0-.724.011-1.091.022-3.216.054-6.196-1.684-7.761-4.502l-2.472-4.447c-1.954-3.519-6.045-5.246-9.931-4.221-.044.022-.087.022-.13.043-3.875 1.037-6.552 4.599-6.488 8.604l.087 5.095c.054 3.26-1.728 6.239-4.567 7.837l-1.673.961c-2.796 1.684-6.282 1.738-9.089.054l-4.34-2.613c-3.454-2.061-7.869-1.522-10.708 1.317l-.108.108a8.77 8.77 0 0 0-1.317 10.709l2.612 4.339c1.684 2.807 1.62 6.294-.054 9.09l-.96 1.673c-1.587 2.839-4.567 4.631-7.837 4.566l-5.096-.086a8.76 8.76 0 0 0-8.603 6.487c-.022.044-.022.087-.043.13-1.026 3.886.701 7.977 4.22 9.931l4.448 2.472c2.817 1.566 4.555 4.545 4.501 7.762l-.021 1.09c0 .367.011.723.021 1.09.054 3.217-1.684 6.197-4.501 7.762l-4.448 2.472c-3.519 1.954-5.246 6.045-4.22 9.931.021.043.021.087.043.13a8.77 8.77 0 0 0 8.603 6.487l5.096-.086c3.26-.054 6.239 1.727 7.837 4.566l.96 1.674c1.684 2.795 1.738 6.282.054 9.089l-2.612 4.339c-2.062 3.455-1.522 7.87 1.317 10.709l.108.108a8.77 8.77 0 0 0 10.708 1.317l4.34-2.612c2.807-1.684 6.293-1.62 9.089.053l1.673.961c2.839 1.587 4.631 4.566 4.567 7.837l-.087 5.095c-.064 4.016 2.613 7.568 6.488 8.604.043.021.086.022.13.043 3.886 1.026 7.977-.702 9.931-4.221l2.472-4.447c1.565-2.818 4.545-4.556 7.761-4.502l1.091.022c.367 0 .723-.011 1.09-.022 3.217-.054 6.196 1.684 7.761 4.502l2.472 4.447c1.954 3.519 6.046 5.247 9.932 4.221.043-.021.086-.022.129-.043a8.77 8.77 0 0 0 6.488-8.604l-.086-5.095c-.054-3.26 1.727-6.239 4.566-7.837l1.673-.961c2.796-1.684 6.283-1.737 9.089-.053l4.34 2.612c3.454 2.062 7.869 1.522 10.708-1.317l.108-.108a8.77 8.77 0 0 0 1.317-10.709l-2.612-4.339c-1.684-2.807-1.619-6.294.054-9.089l.961-1.674c1.587-2.839 4.566-4.631 7.837-4.566l5.095.086c4.016.065 7.567-2.612 8.604-6.487.021-.043.021-.087.043-.13 1.025-3.886-.702-7.988-4.221-9.931zm-75.37 38.084c-27.289 0-49.419-22.118-49.419-49.419 0-27.289 22.119-49.419 49.419-49.419 27.29 0 49.419 22.119 49.419 49.419-.011 27.301-22.129 49.419-49.419 49.419zm21.57-43.181c3.254-11.88-3.738-24.148-15.618-27.402s-24.149 3.738-27.403 15.618 3.738 24.148 15.618 27.403 24.149-3.739 27.403-15.619z" fill="#f4d7c9"/><path opacity=".16" d="M1057.68 736.114l-2.59-1.447c-1.64-.917-2.66-2.655-2.64-4.533l.01-.637-.01-.637c-.03-1.878.99-3.616 2.64-4.534l2.59-1.447a5.13 5.13 0 0 0 2.46-5.796c-.01-.022-.01-.054-.02-.076a5.11 5.11 0 0 0-5.02-3.789l-2.98.043c-1.9.033-3.65-1.015-4.58-2.666l-.56-.972c-.98-1.63-1.01-3.67-.03-5.311l1.52-2.536c1.21-2.019.89-4.588-.77-6.251l-.06-.064a5.11 5.11 0 0 0-6.25-.767l-2.54 1.522c-1.64.982-3.67.95-5.31-.032l-.97-.562c-1.66-.928-2.7-2.666-2.67-4.577l.05-2.979c.04-2.343-1.53-4.415-3.79-5.02-.02-.01-.06-.01-.08-.021-2.26-.605-4.66.41-5.79 2.461l-1.45 2.591c-.92 1.641-2.66 2.655-4.54 2.634-.21 0-.42-.011-.63-.011l-.64.011c-1.88.032-3.62-.983-4.53-2.634l-1.45-2.591c-1.14-2.051-3.53-3.066-5.8-2.461-.02.011-.05.011-.07.021-2.268.605-3.823 2.677-3.791 5.02l.044 2.979c.032 1.9-1.015 3.649-2.667 4.577l-.971.562c-1.63.982-3.67 1.014-5.311.032l-2.537-1.522c-2.019-1.209-4.588-.885-6.25.767l-.065.064a5.11 5.11 0 0 0-.767 6.251l1.523 2.536c.982 1.641.949 3.671-.033 5.311l-.561.972c-.929 1.662-2.667 2.699-4.577 2.666l-2.98-.043c-2.342-.043-4.415 1.522-5.019 3.789-.011.022-.011.054-.022.076a5.12 5.12 0 0 0 2.461 5.796l2.591 1.447c1.641.918 2.656 2.656 2.634 4.534l-.011.637.011.637c.033 1.878-.982 3.616-2.634 4.533l-2.591 1.447c-2.051 1.144-3.065 3.53-2.461 5.797.011.021.011.054.022.075.604 2.267 2.677 3.822 5.019 3.789l2.98-.043c1.9-.032 3.648 1.015 4.577 2.667l.561.971c.982 1.63 1.015 3.67.033 5.311l-1.523 2.537c-1.209 2.019-.885 4.588.767 6.25l.065.065a5.11 5.11 0 0 0 6.25.766l2.537-1.522c1.641-.982 3.67-.95 5.311.033l.971.561c1.663.928 2.699 2.666 2.667 4.577l-.044 2.979c-.043 2.343 1.523 4.416 3.791 5.02.02.011.05.011.07.022 2.27.604 4.67-.411 5.8-2.462l1.45-2.59c.91-1.641 2.65-2.656 4.53-2.634l.64.011.63-.011c1.88-.033 3.62.982 4.54 2.634l1.45 2.59a5.12 5.12 0 0 0 5.79 2.462c.02-.011.06-.011.08-.022 2.26-.604 3.82-2.677 3.79-5.02l-.05-2.979c-.03-1.9 1.02-3.649 2.67-4.577l.97-.561c1.63-.983 3.67-1.015 5.31-.033l2.54 1.522c2.02 1.209 4.59.886 6.25-.766l.06-.065a5.1 5.1 0 0 0 .77-6.25l-1.52-2.537c-.98-1.641-.95-3.67.03-5.311l.56-.971c.93-1.663 2.67-2.699 4.58-2.667l2.98.043a5.11 5.11 0 0 0 5.02-3.789c.01-.021.01-.054.02-.075.59-2.267-.41-4.664-2.46-5.797zm-44 22.227c-15.934 0-28.845-12.911-28.845-28.844s12.911-28.844 28.845-28.844 28.84 12.91 28.84 28.844-12.91 28.844-28.84 28.844z" fill="#f4d7c9"/><path d="M1065.58 109.783h130.67v45.004h-23.29l12.15 28.617-43.43-28.617h-76.1v-45.004z" class="N"/><path d="M1182.67 122.932h-101.59v4.965h101.59v-4.965zm0 13.795h-101.59v4.965h101.59v-4.965z" class="B"/><path d="M1469.08 791.804H308.04v14.271h1161.04v-14.271z" fill="#aecbc7"/><path d="M923.833 495.505v-15.49l-13.947-3.606-10.687-12.738 2.785-7.621-85.129-97.273H461.251a6.32 6.32 0 0 0-6.315 6.315v11l.086.065c.216 1.77.939 3.552 2.256 5.117l94.336 112.439c6.855 8.161 16.97 12.889 27.635 12.889h334.717c5.473 0 9.316-4.145 9.867-8.83a9.99 9.99 0 0 0 0-2.267z" class="H"/><path d="M913.978 491.124H579.25a36.07 36.07 0 0 1-27.635-12.889l-94.347-112.429c-5.408-6.444-.831-16.279 7.589-16.279h334.727c10.666 0 20.78 4.718 27.635 12.889l94.347 112.429c5.409 6.445.821 16.279-7.588 16.279z" class="B"/><path d="M872.276 466.39c-.659 0-1.274-.291-1.695-.788l-65.05-77.28a2.22 2.22 0 0 1 1.695-3.649c.658 0 1.273.291 1.694.788l65.05 77.28c1.22 1.436.195 3.649-1.694 3.649z" class="E"/><path d="M617.873 434.167h-75.262a5.98 5.98 0 0 1-4.588-2.148l-36.907-44.281c-1.253-1.5-.184-3.767 1.759-3.767h75.262a5.98 5.98 0 0 1 4.588 2.148l36.908 44.28a2.3 2.3 0 0 1-1.76 3.768z" class="C"/><g class="E"><use xlink:href="#C"/><use xlink:href="#C" x="32.084"/><path d="M645.498 467.145h-11.097c-1.77 0-3.443-.777-4.577-2.137l-13.644-16.289c-1.253-1.501-.195-3.768 1.759-3.768h11.097a5.94 5.94 0 0 1 4.577 2.138l13.645 16.289c1.252 1.49.194 3.767-1.76 3.767z"/></g><path d="M705.129 405.052h-85.021c-1.759 0-3.433-.777-4.566-2.127l-12.727-15.166c-1.252-1.501-.194-3.779 1.759-3.779h85.021c1.759 0 3.433.778 4.566 2.127l12.727 15.167c1.253 1.5.195 3.778-1.759 3.778zm26.026 31.017h-85.021c-1.759 0-3.433-.778-4.566-2.127l-12.727-15.167c-1.252-1.489-.195-3.778 1.759-3.778h85.021c1.759 0 3.433.777 4.566 2.127l12.727 15.166c1.252 1.501.184 3.779-1.759 3.779zm26.08 31.077h-85.02c-1.76 0-3.433-.777-4.567-2.127l-12.727-15.167c-1.252-1.489-.194-3.778 1.76-3.778h85.02c1.76 0 3.433.777 4.567 2.127l12.727 15.167c1.252 1.5.194 3.778-1.76 3.778z" class="C"/><g class="E"><path d="M794.704 466.39a2.22 2.22 0 0 1-1.695-.788l-65.049-77.28a2.22 2.22 0 0 1 1.694-3.649c.659 0 1.274.291 1.695.788l65.05 77.28c1.22 1.436.194 3.649-1.695 3.649z"/><path d="M746.634 401.331h-9.261c-1.339 0-3.325-1.079-4.448-2.418l-3.368-4.005c-1.123-1.338-.95-2.418.389-2.418h9.262c1.338 0 3.324 1.08 4.447 2.418l3.368 4.005c1.123 1.339.95 2.418-.389 2.418z"/></g><path d="M747.271 399.183h-9.262c-1.339 0-3.325-1.08-4.448-2.418l-3.368-4.005c-1.122-1.339-.95-2.418.389-2.418h9.262c1.338 0 3.325 1.079 4.447 2.418l3.368 4.005c1.123 1.338.939 2.418-.388 2.418z" class="C"/><path d="M840.81 421.4h-9.262c-1.338 0-3.325-1.08-4.447-2.419l-3.368-4.004c-1.123-1.339-.95-2.418.388-2.418h9.262c1.339 0 3.325 1.079 4.448 2.418l3.368 4.004c1.112 1.339.939 2.419-.389 2.419z" class="E"/><path d="M841.437 419.261h-9.262c-1.338 0-3.325-1.08-4.447-2.418l-3.368-4.005c-1.123-1.339-.95-2.418.388-2.418h9.262c1.339 0 3.325 1.079 4.448 2.418l3.368 4.005c1.123 1.328.95 2.418-.389 2.418z" class="C"/><g class="E"><path d="M833.836 466.39a2.22 2.22 0 0 1-1.695-.788l-65.05-77.28a2.22 2.22 0 0 1 1.695-3.649c.659 0 1.274.291 1.695.788l65.05 77.28c1.22 1.436.194 3.649-1.695 3.649z"/><path d="M824.573 447.59h-9.262c-1.338 0-3.324-1.08-4.447-2.418l-3.368-4.005c-1.123-1.338-.95-2.418.389-2.418h9.262c1.338 0 3.325 1.08 4.447 2.418l3.368 4.005c1.123 1.328.95 2.418-.389 2.418z"/></g><path d="M825.21 445.442h-9.262c-1.338 0-3.325-1.08-4.447-2.419l-3.368-4.004c-1.123-1.339-.95-2.418.388-2.418h9.262c1.339 0 3.325 1.079 4.448 2.418l3.368 4.004c1.123 1.339.95 2.419-.389 2.419z" class="C"/><path d="M934.672 564.451s-5.365 16.624-24.494 31.219c-9.251 7.07-21.719 13.666-38.365 17.682-51.038 12.338-91.907 7.88-94.865 8.366-2.634.431 22.82 40.664 37.145 64.812l4.75 8.139c.172.292.324.583.485.864 11.67 20.974 5.43 26.242 5.43 26.242-11.831 1.479-28.099 14.789-28.099 14.789-24.644 6.413-39.433-32.039-53.24-48.307s-49.3-64.575-33.518-90.698c15.771-26.124 156.029-59.653 156.029-59.653l13.979 5.398 26.372 10.179 28.391 10.968z" fill="#376f92"/><path d="M818.854 694.694l.485.864c-.194-.238-.356-.529-.485-.864zm101.028-112.536c-.076.184-3.768 5.408-9.705 13.526-9.251 7.071-21.719 13.666-38.365 17.682-51.038 12.339-91.907 7.88-94.865 8.366-2.634.432 22.82 40.665 37.145 64.813-8.593-10.342-22.173-11.702-32.331-32.385-12.327-25.098-41.409.95-46.72-19.755s15.178-19.225 45.242-32.535c30.074-13.31 34.997-7.891 62.264-13.321 27.279-5.43 22.994-38.883 22.994-38.883l14.357-6.337 19.981-2.58 6.391 12.76c5.958 11.939 13.871 28.023 13.612 28.649z" class="G"/><path d="M831.828 731.828s14.196 11.853 14.52 20.856-29.881 39.509-29.881 39.509h-38.311s-4.102-6.283 6.499-10.795c10.6-4.501 11.658-4.771 15.642-9.014 3.972-4.242 7.426-15.641 13.785-27.57s17.746-12.986 17.746-12.986z" class="I"/><path d="M845.884 267.345s-8.971-5.516-11.961-11.724-10.579-19.776-11.033-22.993 5.981.227 9.662 6.672c0 0-2.526-6.898-7.125-15.869s-11.96-14.487-10.115-18.859c1.836-4.371 15.178 12.188 16.787 14.951s4.825-.226 8.97 1.836c4.134 2.072 4.134-.227 8.28 2.299 4.134 2.526 7.696 7.664 12.014 30.28l-15.479 13.407zM740.179 439.557s-4.858-1.674-13.072-9.575c-8.205-7.902-13.073-10.785-15.804-12.004s-7.146-2.58-11.702-2.278-6.995-1.824-5.926-3.346 5.322-2.58 5.322-2.58-8.356.755-6.229-3.045 14.131-2.277 14.131-2.277 2.277-2.883 5.472-2.883 2.883-2.58 9.273-1.824c6.38.756 9.727 4.556 16.409 6.078s12.208 15.426 12.208 15.426l-10.082 18.308z" class="D"/><path d="M750.23 419.704s-10.741 9.489-14.022 19.517l-1.155 2.958 6.239 8.712 14.465-27.603-5.527-3.584zm94.51-143.776l-5.171-8.129s10.104-11.831 23.166-15.285l3.217 5.667-21.212 17.747z" fill="#93405e"/><path d="M999.591 380.887l-39.304 20.856-5.84 3.098-5.494-2.828c-11.141-5.851-36.444-19.625-49.257-30.69-5.959-5.139-15.837-17.466-26.102-31.23-18.6-24.925-38.473-54.536-38.473-54.536 14.292-22.183 30.819-29.578 30.819-29.578s44.518 62.611 51.416 68.526c4.037 3.466 31.456 22.152 53.543 37.081l28.692 19.301z" class="O"/><path d="M999.592 380.886l-39.304 20.855-11.324.27c-11.14-5.851-36.443-19.625-49.257-30.69-5.959-5.138-15.836-17.466-26.102-31.229 8.161 4.253 16.214 7.988 20.899 12.025 10.19 8.82 7.232-1.975 52.592 4.264 8.96 1.231 16.884 3.055 23.825 5.182l28.671 19.323z" fill="#4f91b3"/><path d="M968.221 374.603s-34.014 20.867-34.09 7.729c-.022-4.404-.821-8.214-1.868-11.313-2.072-6.153-5.127-9.564-5.127-9.564s-.011.011-.022.033c-12.144 12.943-17.563 8.841-19.042 6.379s-11.507-23.165-10.028-30.074c1.479-6.898 1.155-11.011-.983-15.286-2.126-4.264.983-14.616.983-14.616l28.93-6.088s26.782 27.278 29.081 36.476c2.3 9.208 12.166 36.324 12.166 36.324z" class="D"/><path d="M1006.67 463.994c-8.871 26.621-57.135 115.516-82.395 118.053-10.298 1.036-23.587-5.689-35.699-14.022-17.595-12.101-32.74-27.581-32.74-27.581 22.183-15.728 19.225-65.32 19.225-65.32s0 .011-.011.021c-.485.4-31.704 26.329-52.635 28.769-21.104 2.461-89.328-44.864-89.328-44.864s15.285-38.451 22.68-36.972 56.198 33.032 64.553 33.518c8.356.497 55.724-41.906 67.512-53.737 11.798-11.831 58.205-30.074 90.741-30.56 0 0 21.201 3.454 28.597 19.225 7.38 15.793 8.38 46.85-.5 73.47z" class="O"/><path d="M912.163 278.626c-15.447 1.857-30.117 13.3-25.379 24.775 4.739 11.464 13.991 12.845 19.917 12.921s7.891 3.595 9.964 6.801 2.99 1.22 5.592-3.973c2.601-5.203 8.56-1.479 8.711 5.527s-1.069 23.987 11.464 24.289 14.983-4.89 15.448-4.89 10.697-20.942 9.942-39.294c0 0 12.997-6.725 10.546-17.433-2.45-10.698-16.516-12.846-24.925-4.21 0 0-7.038.377-13.612-4.048-6.575-4.437-15.448-6.574-19.572-3.973-4.123 2.591-4.274 3.044-8.096 3.508z" class="I"/><path d="M923.186 631.133h-13.202v150.005h13.202V631.133z" fill="#f0d1aa"/><g fill="#edbf84"><path d="M923.186 781.138h-6.606V631.133l6.606-.41v150.415z"/><path d="M968.837 792.235H864.321c0-3.066 1.241-5.829 3.249-7.837a11.06 11.06 0 0 1 7.848-3.25h82.322a11.08 11.08 0 0 1 11.097 11.087z"/></g><path d="M935.492 792.235h-71.16c0-3.066 1.241-5.829 3.249-7.837a11.06 11.06 0 0 1 7.848-3.25h41.161l18.902 11.087z" fill="#f0d1aa"/><path d="M1046.28 473.742l-2.75 1.392-.87.486-.85.497-.84.518-.77.486-.87.593-.81.562-.8.583-2.61 2.061-.92.789-3.13 2.979-.03.032-1.23 1.296-.19.205-1.17 1.328-1.26 1.5c-.02.032-.05.065-.07.097l-1.14 1.447-1.16 1.554c-.02.033-.04.054-.07.087l-1.1 1.565-1.12 1.662-.96 1.511-.26.421-.24.378-1.69 2.893-1.95 3.638-.93 1.868-.91 1.889-1.74 3.864-.83 1.965-.81 1.986-.68 1.728-.87 2.31-.75 2.04c-.03.075-.05.162-.09.237l-.63 1.814-1.44 4.242-.63 1.987-.66 2.094-1.2 3.972-.07.238-.61 2.116c-.01.01-.01.021-.01.032l-.6 2.083-.74 2.688-.41 1.533-.24.853-1.45 5.462-1.366 5.268-.572 2.224-1.771 6.876-.518 1.986-.95 3.552-.594 2.17-2.169 7.513-.497 1.641-.367 1.155-.313.971-1.058 3.12-1.166 3.217c-.021.054-.043.108-.054.162l-.55 1.392-.486 1.188-.13.313-.582 1.349a.52.52 0 0 1-.054.108l-.648 1.414-.659 1.36-.496.983-.238.442-.637 1.145-.302.529-.41.68c-18.535 30.161-71.235 29.07-71.235 29.07h-77.41c-18.168 0-18.535-18.535 2.18-19.992s61.056-25.443 79.224-78.133c8.808-25.541 19.063-40.751 27.3-49.646 6.995-7.567 16.905-11.777 27.203-11.777h73.995c1.23 0 1.59 1.652.49 2.159z" fill="#f4c8af"/><path d="M1043.53 475.135l-.87.486-.85.496-.84.518-.77.486-.87.594-.81.561-.8.583-2.61 2.062-.92.788-3.13 2.979-.03.033-1.23 1.295-.19.205-1.17 1.328-1.26 1.5c-.02.033-.05.065-.07.097l-1.14 1.447-1.16 1.555a.53.53 0 0 1-.07.086l-1.1 1.565-1.12 1.663-.96 1.511-.26.421-.23.378h-.01l-1.69 2.893-1.95 3.638-.93 1.867-.91 1.889-1.74 3.865-.83 1.964-.81 1.987-.68 1.727-.87 2.31-.75 2.04c-.03.076-.05.162-.09.238l-.63 1.813-1.44 4.243-.64 1.986-.65 2.094-1.2 3.973-.07.237-.61 2.116c-.01.011-.01.021-.01.032l-.6 2.084-.74 2.688-.41 1.532-.24.853-1.45 5.462-1.366 5.268-.573 2.224-1.77 6.876-.518 1.987-.95 3.551-.594 2.17-2.169 7.513-.497 1.641-.367 1.155-.313.972-1.058 3.119-1.166 3.217c-.021.054-.043.108-.054.162l-.55 1.393-.486 1.187-.13.313-.583 1.35a.45.45 0 0 1-.054.107l-.647 1.415-.659 1.36-.496.982-.238.443-.637 1.144-.712 1.209c-18.535 30.161-71.236 29.071-71.236 29.071h-72.509c-5.17-4.038-2.655-10.202 11.097-11.173 20.716-1.457 65.471-30.701 83.65-83.401 8.809-25.541 19.064-40.751 27.3-49.646 6.995-7.567 16.894-11.777 27.203-11.777h53.492 0z" fill="#f7dfd3"/><path d="M1021.05 497.782l-1.69 2.893-1.94 3.638-.94 1.868-.91 1.889-1.74 3.864-.83 1.965-.81 1.986-.68 1.728-.87 2.31-.75 2.04c-.03.075-.05.162-.09.237l-.63 1.814-1.44 4.242-.63 1.986-.66 2.095-1.2 3.972-.07.238-.61 2.116c-.01.01-.01.021-.01.032l-.6 2.083-.74 2.688-.41 1.533-.24.853-1.45 5.462-1.366 5.268-.572 2.224-1.77 6.876-.519 1.986-.949 3.552-.594 2.17-2.17 7.513-.497 1.641-.367 1.155-.313.971-1.058 3.12-1.165 3.217c-.022.054-.044.108-.054.162l-.551 1.392-.486 1.188-.129.313-.583 1.349a.52.52 0 0 1-.054.108l-.648 1.414-.658 1.36-.497.983-.237.442-.637 1.145-.303.529-.41.68c-18.535 30.161-71.235 29.07-71.235 29.07h-25.476c2.677-.162 52.172-2.537 69.821-76.525 11.939-49.969 44.327-52.938 63.417-56.835z" fill="#f4c8af"/><path d="M487.591 630.408v-50.66c0-15.793-12.803-28.596-28.596-28.596h-36.152v240.942h46.343 18.405 57.18V687.589c0-15.793-12.802-28.596-28.595-28.596-15.782.011-28.585-12.792-28.585-28.585z" class="C"/><path d="M479.883 730.912c-11.032-21.05-24.332-36.066-45.965-53.057-21.622-16.991-49.958-17.067-61.52-22.54-11.572-5.484-11.863 9.694-8.269 23.943s-7.319 79.861 58.401 100.716c65.708 20.867 65.503-33.528 57.353-49.062z" fill="#f2d6c8"/><g fill="#f5b89b"><path d="M438.376 745.065a.98.98 0 0 1-.971-.852c-3.152-23.231 8.366-46.181 8.485-46.407.248-.486.842-.681 1.327-.432s.681.842.432 1.328c-.118.226-11.345 22.647-8.29 45.241.075.54-.302 1.036-.842 1.112-.054.01-.097.01-.141.01zm.173 2.6a.96.96 0 0 1-.453-.108c-19.582-10.287-53.619-6.606-53.964-6.563a.99.99 0 0 1-1.09-.874c-.065-.54.324-1.026.874-1.09 1.425-.162 34.986-3.79 55.097 6.779.486.248.669.853.41 1.328-.183.334-.518.528-.874.528z"/><path d="M444.691 766.556a.99.99 0 0 1-.961-.756c-14.109-58.282-70.037-99.464-70.598-99.874-.443-.324-.54-.939-.216-1.382s.939-.54 1.382-.216c.572.41 57.072 42.025 71.354 101.008a.98.98 0 0 1-.723 1.187c-.076.022-.162.033-.238.033z"/><path d="M418.276 711.892a1.02 1.02 0 0 1-.615-.216c-12.77-10.223-43.633-7.556-43.935-7.524-.551.065-1.026-.356-1.069-.896-.054-.54.346-1.025.896-1.069 1.296-.118 31.953-2.763 45.35 7.945.421.346.496.961.151 1.382-.195.249-.486.378-.778.378zm-10.244-12.987a.98.98 0 0 1-.907-.605c-4.005-9.521-1.889-25.616-1.803-26.296.076-.54.551-.918 1.112-.842.54.076.917.572.842 1.112-.022.162-2.127 16.246 1.662 25.26.216.496-.021 1.079-.529 1.295a1.12 1.12 0 0 1-.377.076z"/></g><path d="M1420.16 376.522c-1 1.306-2.17 2.288-3.45 2.99-10.66 5.862-29.8-6.898-38.54-6.488-9.8.475-14.47 13.3-37.57 4.2-23.09-9.1-17.72-45.015-16.32-58.552 1.4-13.526-7-20.294-21.46-19.83-14.46.475-29.72-7.459-23.14-30.323 6.58-22.852-11.96-34.846-23.04-30.787-11.09 4.059-5.14-15.393-5.14-15.393s9.47-13.483 28.18-11.529c5.86.615 10.09 2.547 13.32 5.224 0 0 .01 0 .02.022.74.626 1.44 1.296 2.09 1.986.01.022.03.033.04.054 5.41 5.862 7.53 14.055 10.95 20.327 5.6 10.266 14.93 9.564 29.4 5.138 14.46-4.436 43.61-2.385 49.91 21.785s-10.49 52.398 19.6 59.404c30.08 6.973 24.48 39.638 15.15 51.772z" class="I"/><path d="M1252.63 220.408s8.73 5.754 7.73 17.423c0 0 .01 3.368-3.82 1.641-3.84-1.727-6.95-14.368-6.62-17.088.34-2.731 1.75-2.299 2.71-1.976z" class="F"/><path d="M1248.95 272.481c-13.37 11.658-19.94 10.849-23.83 5.128-1.46-2.127-5.5-7.406-10-13.181l-16.4-20.867s-14-.885-14.3-11.712c-.05-2.073.34-4.145 1.17-6.153 3.45-8.506 14.4-15.868 29.63-17.121 18.82-1.554 35.92 7.783 40.9 20.845 4.95 13.051 6.21 31.402-7.17 43.061z" class="I"/><path opacity=".27" d="M1215.12 264.427l-16.4-20.867s-14-.885-14.3-11.712c-.05-2.073.34-4.146 1.17-6.153 2.78-4.351 8.01-8.097 17.8-6.866 20.99 2.645 11.25 37.717 16.43 41.409 1.9 1.36-.67 2.85-4.7 4.189z" class="G"/><path d="M1140.73 480.325s-7.42 2.181-11.07 4.933-12.52 7.028-12.7 8.464c-.17 1.435 7.45-.799 10.45-1.965s2.53 1.706-1.21 5.246c-3.73 3.541-5.25 5.095-9.55 8.366-4.31 3.282-4.81 4.75-3.15 5.344 1.65.594 3.18-.486 3.18-.486s-3.86 2.936-2.33 4.577 6.26-1.846 6.26-1.846-1.34 2.364 1.92 2.289 4.38-1.544 8.23-2.678 15.47-13.385 18.17-17.649 4.06-7.956 4.06-7.956l-12.26-6.639z" class="J"/><path d="M1220.76 379.512s7.11 35.536-10.27 55.431-57.02 56.285-57.02 56.285l-14.58-11.432s35.7-47.238 40.6-65.374c1.05-3.864 2.02-11.291 2.02-11.291l39.25-23.619z" class="P"/><path d="M1170.4 475.133s-1.1-4.102.54-7.697 9.44 7.168 9.44 7.168l2.05 8.96-12.03-8.431z" class="J"/><path d="M1362.98 719.084c6.66 7.168 20.8 34.155 20.8 34.155l-10.47 7.61s-11.99-18.017-14.48-16.937-.04 27.484-3.37 29.902l-25.48 18.502s-.94-9.305 3.37-17.898c3.82-7.599 7.75-23.273-2.24-46.903-1.29-3.066-2.81-6.261-4.61-9.586l23-21.428a146.84 146.84 0 0 0 6.62 12.846c2.09 3.584 4.47 7.189 6.86 9.737z" class="G"/><path d="M1326.5 717.94l23-21.427s2.84 6.39 6.62 12.845l-25.01 18.158c-1.29-3.055-2.83-6.251-4.61-9.576z" class="D"/><path d="M1368.12 691.353l-51.01 34.846-50.35-62.956c-15.78-20.132-30.22-39.067-34.45-46.299-8.54-14.573-20.74-72.175-25.11-93.775l-1.64-8.247 6.25-17.542 12.13-34.058.9-2.526s8.75-4.512 18.5-6.93c2.59-.648 5.27-1.145 7.85-1.371 7.95-.68 15.2 1.209 17.46 9.294.13.475.25.972.35 1.49.45 2.418.95 5.516 1.47 9.111 4.39 30.614 10.58 98.147 12.52 105.736 2.19 8.484 85.13 113.227 85.13 113.227z" fill="#5f6386"/><path d="M1266.76 663.245c-15.78-20.133-30.22-39.067-34.45-46.299-8.54-14.573-20.74-72.175-25.11-93.775 1.21-4.836 2.14-8.032 2.6-8.723 2.62-3.94 60.68-42.035 60.68-42.035s2.42 34.058-9.09 55.788c-11.51 21.741-21.36 37.674-12.16 61.088 9.2 23.425-10.51 36.908 5.26 50.045 9.12 7.6 11.71 17.186 12.27 23.911z" class="Q"/><path d="M1168.05 752.465c1.17 9.715-3.24 39.865-3.24 39.865h-12.95s.89-21.622-1.77-22.216c-2.64-.593-16.18 22.216-20.3 22.216h-31.49s4.71-8.085 13.25-12.5c7.55-3.908 19.94-14.282 25.75-39.261.76-3.239 1.41-6.725 1.91-10.46l31.19-3.822s-1.46 6.833-2.19 14.293c-.4 4.102-.59 8.42-.16 11.885z" class="G"/><path d="M1139.21 730.098l31.19-3.822s-1.46 6.834-2.19 14.293h-30.91c.76-3.249 1.4-6.725 1.91-10.471z" class="D"/><path d="M1197.48 446.507s-44.78 105.131-57.85 148.667c-13.06 43.546-32.96 137.472-32.96 137.472h68.43s26.74-127.519 38.57-148.051c11.82-20.532 55.98-95.179 49.13-121.928-6.85-26.739-65.32-16.16-65.32-16.16z" fill="#5f6386"/><path d="M1270.49 472.412l-20.76 53.877-67.28-42.726 41.5-20.219 19.4-9.456 5.43-2.656 2.42 1.285 17.46 9.294.35 1.49 1.48 9.111z" class="Q"/><path d="M1235.43 304.716s-16.17 6.801-29.86 25.465-29.86 53.359-31.1 59.955 10.66 59.015 10.62 72.541 63.65 8.528 81.69-.183c0 0-7.09-49.581-7.09-56.425s.63-52.873-3.11-74.02-21.15-27.333-21.15-27.333z" class="M"/><path d="M1231.56 353.486s-2.56 17.024 0 29.837-17.43 5.02-24.36 31.1 52.4 13.429 52.4 13.429 16.35-25.141 16.47-29.416c.12-4.264-44.51-44.95-44.51-44.95z" class="P"/><path d="M1235.43 304.716s-31.26 32.147-28.51 23.684c1.51-4.663-1.12-15.814-3.8-24.893-2.19-7.416-4.4-13.45-4.4-13.45s6.01-6.11 12.3-11.324c6.66-5.527 13.64-10.039 14.1-5.16.88 9.489 10.31 31.143 10.31 31.143z" class="J"/><path d="M1154.51 369.406l-35.22 75.851 130.89 60.767 35.21-75.851-130.88-60.767z" class="F"/><path d="M1158.74 380.976l-27.88 60.047 115.08 53.431 27.88-60.048-115.08-53.43z" class="B"/><g class="F"><path d="M1142.66 447.596l47.2-33.172 5.12 57.461-52.32-24.289z"/><path d="M1192.55 470.871l36.51-25.659 3.96 44.453-40.47-18.794zm28.4-42.634c2.14-4.226.46-9.391-3.77-11.535a8.59 8.59 0 0 0-11.54 3.771c-2.14 4.226-.45 9.391 3.77 11.535 4.23 2.145 9.4.456 11.54-3.771z"/></g><path d="M1194.74 458.562s-6.09.864-10.38 1.965c-4.31 1.101-12.78.497-13.77 2.461-.98 1.965 9.52 3.692 12.08 3.93s-3.96 3.843-7.65 4.868-6.64 2.505-2.83 5.948 9.72 8.604 12.17 8.971c2.46.367 14.5-8.733 21.14-15.491s-10.76-12.652-10.76-12.652z" class="J"/><path d="M1236.04 316.178c-11.73 8.982-7.16 32.04-1.24 46.969 5.91 14.929 22.7 42.305 21.46 44.788-1.24 2.494-63.49 49.721-63.49 49.721l12.79 16.063s59.09-29.708 73.72-40.276c14.61-10.579 15.85-22.086 11.5-37.015s-29.54-99.529-54.74-80.25z" class="M"/><path d="M1150.78 732.904l-2.91-.507 26.95-143.561c3.88-11.821 34.32-88.723 35.61-91.983l2.75 1.09-35.55 91.821c-3.81 11.669-26.61 141.823-26.85 143.14zm194.86-26.059l-70.73-88.28c-24.37-30.161-33.39-72.509-33.48-72.93l2.89-.605c.09.421 8.97 42.079 32.89 71.667l70.74 88.292-2.31 1.856z" class="Q"/><path opacity=".27" d="M1420.16 376.521c-1 1.306-2.17 2.289-3.45 2.99 10.37-12.349 2.76-28.714-23.86-28.379-26.62.324-33.84-22.68-18.07-60.797s-23.99-41.085-40.75-32.536c-16.77 8.55-33.86.659-33.2-17.833.45-12.371-3.21-18.891-5.69-21.86 5.41 5.862 7.53 14.055 10.95 20.327 5.6 10.266 14.93 9.564 29.39 5.139 14.47-4.437 43.62-2.386 49.92 21.784s-10.49 52.398 19.6 59.404c30.09 6.963 24.49 39.628 15.16 51.761z" class="G"/><path d="M1219.87 277.307s-4.68 17.164-16.75 26.199c-2.19-7.416-4.4-13.451-4.4-13.451s6.01-6.109 12.3-11.323l8.85-1.425z" class="D"/><path d="M1199.65 232.834s-8.4 20.834-16.33 24.882-2.64 4.976 0 9.488c2.65 4.513-7.47 18.503 1.24 24.883s28.93-4.049 35.3-14.779c0 0 11.04.465 13.69-7.934 2.64-8.398-5.91-13.688-10.88-9.953-4.98 3.735-5.6-4.048-7.77-15.706-2.19-11.659-14.18-13.364-15.25-10.881z" class="J"/><path d="M308.04 791.805c-1.878-19.69 15.955-49.333 73.2-30.053 0 0 14.465-45.188 54.233-43.687 39.769 1.511 52.42 38.699 52.42 38.699s53.424-6.455 61.056 38.733c0 0-238.2 24.752-240.909-3.692z" fill="#adccc7"/><g fill="#6eab9c"><path d="M426.774 795.195l-1.944-.313c5.16-32.007-14.681-54.978-14.886-55.205l1.479-1.306c.205.248 20.651 23.911 15.351 56.824z"/><path d="M427.431 775.592l-1.511-1.274c.183-.216 18.319-21.903 21.406-35.515l1.922.432c-3.196 14.087-21.061 35.461-21.817 36.357zm-.842 11.389c-14.162-.767-26.717-15.372-27.235-15.998l1.5-1.274c.119.151 12.533 14.584 25.843 15.307l-.108 1.965zm44.691 9.263l-1.285-1.49c1.026-.885 25.228-21.676 37.815-22.032l.054 1.975c-11.896.324-36.347 21.331-36.584 21.547z"/><path d="M518.616 792.173c-.194-.011-19.485-1.187-35.094-5.213l.497-1.911c15.425 3.983 34.532 5.138 34.716 5.16l-.119 1.964zm-143.766 2.884c-12.749-10.601-39.628-19.064-39.898-19.15l.583-1.879c1.122.346 27.527 8.669 40.578 19.517l-1.263 1.512z"/><path d="M364.93 786.863l-1.976-.054c.313-10.752-4.372-19.204-4.415-19.291l1.716-.971c.216.367 5.009 8.992 4.675 20.316z"/></g><path d="M941.072 150.264l-347.045 5.915-6.898-5.915V36.227h353.943l6.898 5.916-6.898 108.122zm.001-124.637l-347.045 5.916-6.898-5.916V0h353.943l6.898 5.916-6.898 19.711z" class="H"/><path d="M947.971 42.143H594.028V156.18h353.943V42.143z" class="C"/><path d="M947.971 5.916H594.028v25.638h353.943V5.916z" class="L"/><use xlink:href="#D" class="O"/><path d="M644.008 18.729c0 2.645-2.148 4.793-4.793 4.793a4.8 4.8 0 0 1-4.793-4.793 4.8 4.8 0 0 1 4.793-4.793 4.79 4.79 0 0 1 4.793 4.793z" class="N"/><use xlink:href="#D" x="-45.122" fill="#ffaa3f"/><path d="M876.818 47.701c-25.174 0-45.566 20.402-45.566 45.565s20.403 45.566 45.566 45.566c25.173 0 45.565-20.403 45.565-45.566s-20.392-45.565-45.565-45.565zm0 74.895c-16.204 0-29.33-13.137-29.33-29.33 0-16.203 13.137-29.33 29.33-29.33s29.329 13.137 29.329 29.33-13.126 29.33-29.329 29.33z" class="E"/><path d="M919.857 64.972c-8.247-8.247-19.625-13.332-32.201-13.332-25.174 0-45.565 20.402-45.565 45.565 0 2.904.28 5.753.799 8.517 3.983 21.093 22.507 37.048 44.766 37.048 8.334 0 16.128-2.224 22.842-6.121 13.591-7.891 22.723-22.593 22.723-39.444.011-12.598-5.095-23.997-13.364-32.233zm-17.498 57.613c-4.329 2.515-9.349 3.95-14.703 3.95-14.325 0-26.264-10.276-28.822-23.867-.335-1.76-.508-3.595-.508-5.462 0-16.203 13.138-29.33 29.33-29.33a29.25 29.25 0 0 1 20.726 8.571c5.311 5.311 8.604 12.662 8.604 20.759.01 10.849-5.884 20.316-14.627 25.379z" class="F"/><path d="M933.233 97.205c0 16.851-9.144 31.564-22.724 39.445l-8.139-14.066c8.744-5.063 14.627-14.53 14.627-25.379 0-8.107-3.292-15.448-8.603-20.759l11.475-11.475c8.258 8.237 13.364 19.636 13.364 32.234z" class="B"/><path d="M910.509 136.649c-6.715 3.897-14.509 6.121-22.842 6.121-22.259 0-40.783-15.955-44.767-37.048l15.955-3.055c2.559 13.591 14.498 23.867 28.823 23.867 5.354 0 10.373-1.435 14.702-3.951l8.129 14.066z" fill="#ffc945"/><path d="M771.496 64.479H612.843v7.405h158.653v-7.405zm0 30.557H612.843v7.405h158.653v-7.405zm0 30.573H612.843v7.406h158.653v-7.406z" class="B"/><path d="M1234.06 300.659s-10.72 12.101-27.42 18.751l-2.23 12.382s15.62-4.783 31.02-27.063l-1.37-4.07z" class="P"/><path d="M825.211 792.192h-18.729s15.102-7.568 20.046-23.08c3.562-11.183 9.392-21.913 16.635-19.258s1.274 14.973-2.569 21.914c-5.495 9.899-15.383 20.424-15.383 20.424z" fill="#408c91"/><path d="M461.521 551.154h-2.958V431.406c0-10.179 8.28-18.459 18.46-18.459h12.209v2.958h-12.209a15.52 15.52 0 0 0-15.502 15.501v119.748zm11.939 1.243h-2.958V432.649c0-4.749 3.865-8.603 8.604-8.603h21.471v2.958h-21.471a5.65 5.65 0 0 0-5.646 5.645v119.748z" class="F"/><path d="M887.832 564.454c.443 1.198.68 2.396.745 3.573-17.596-12.101-32.741-27.581-32.741-27.581 22.183-15.728 19.226-65.32 19.226-65.32s25.033-21.859 28.487-16.57-8.873 35.602 0 48.048c8.863 12.446-23.036 37.696-15.717 57.85z" fill="#4f91b3"/><path d="M932.264 371.019c-2.072-6.153-5.127-9.564-5.127-9.564s4.49-5.56 5.138-12.479c0 0 5.98 13.806-.011 22.043z" class="K"/><path d="M683.636 215.256c10.425-9.035 11.553-24.81 2.518-35.236s-24.811-11.552-35.236-2.518-11.553 24.811-2.518 35.236 24.81 11.553 35.236 2.518zm144.155-43.24H716.853v7.167h110.938v-7.167zm0 21.179H716.852v7.168h110.939v-7.168zm-49.548 20.986h-61.391v7.167h61.391v-7.167z" class="B"/><path d="M413.527 480.696h-60.991v41.442h60.991v-41.442z" class="N"/><path d="M374.244 510.287c-1.338.647-3.076.971-5.224.971-2.807 0-5.009-.82-6.607-2.472-1.608-1.651-2.407-3.843-2.407-6.585 0-2.925.907-5.289 2.709-7.103s4.146-2.731 7.028-2.731c1.781 0 3.281.227 4.512.68v3.962c-1.22-.734-2.612-1.101-4.178-1.101-1.716 0-3.098.54-4.156 1.619s-1.576 2.537-1.576 4.383c0 1.77.497 3.174 1.49 4.221s2.332 1.576 4.016 1.576c1.608 0 3.076-.389 4.404-1.177v3.757h-.011zm2.992-.045v-4.081c.734.615 1.543 1.08 2.407 1.393a7.64 7.64 0 0 0 2.623.464c.518 0 .972-.043 1.36-.14s.713-.227.972-.389.453-.356.583-.583a1.44 1.44 0 0 0 .194-.734c0-.356-.097-.68-.302-.961s-.486-.54-.831-.777c-.357-.238-.767-.464-1.253-.691l-1.565-.68c-1.425-.594-2.494-1.317-3.195-2.181-.702-.852-1.047-1.889-1.047-3.108 0-.95.194-1.771.572-2.451s.907-1.241 1.565-1.684 1.425-.766 2.289-.972a11.88 11.88 0 0 1 2.752-.313c.95 0 1.792.054 2.526.173s1.414.292 2.03.529v3.811c-.303-.216-.637-.4-1.004-.562-.356-.162-.734-.291-1.112-.399a8.65 8.65 0 0 0-1.144-.238 7.57 7.57 0 0 0-1.08-.075c-.464 0-.896.043-1.274.129a3.33 3.33 0 0 0-.971.378c-.259.162-.464.357-.615.583a1.4 1.4 0 0 0-.216.756 1.43 1.43 0 0 0 .237.82 2.79 2.79 0 0 0 .691.691c.302.216.658.432 1.079.637l1.436.648c.734.302 1.382.626 1.965.971s1.079.734 1.5 1.166a4.53 4.53 0 0 1 .961 1.49c.216.561.335 1.198.335 1.943 0 1.015-.195 1.878-.583 2.569a4.72 4.72 0 0 1-1.576 1.684c-.659.432-1.436.734-2.31.928-.875.184-1.803.281-2.785.281-1.004 0-1.954-.086-2.861-.259s-1.684-.432-2.353-.766zm15.274 0v-4.081c.734.615 1.543 1.08 2.407 1.393a7.64 7.64 0 0 0 2.623.464c.518 0 .971-.043 1.36-.14s.713-.227.972-.389.453-.356.583-.583a1.44 1.44 0 0 0 .194-.734c0-.356-.097-.68-.302-.961s-.486-.54-.832-.777c-.356-.238-.766-.464-1.252-.691l-1.565-.68c-1.425-.594-2.494-1.317-3.195-2.181-.702-.852-1.047-1.889-1.047-3.108 0-.95.194-1.771.572-2.451s.906-1.241 1.565-1.684 1.425-.766 2.288-.972 1.782-.313 2.753-.313c.95 0 1.792.054 2.526.173s1.414.292 2.03.529v3.811c-.303-.216-.637-.4-1.004-.562-.357-.162-.734-.291-1.112-.399a8.65 8.65 0 0 0-1.144-.238 7.58 7.58 0 0 0-1.08-.075c-.464 0-.896.043-1.274.129a3.33 3.33 0 0 0-.971.378c-.259.162-.464.357-.616.583-.14.227-.215.475-.215.756a1.43 1.43 0 0 0 .237.82 2.79 2.79 0 0 0 .691.691c.302.216.658.432 1.079.637l1.436.648c.734.302 1.382.626 1.965.971s1.079.734 1.5 1.166a4.53 4.53 0 0 1 .961 1.49c.216.561.335 1.198.335 1.943 0 1.015-.195 1.878-.583 2.569a4.72 4.72 0 0 1-1.576 1.684c-.659.432-1.436.734-2.31.928-.875.184-1.803.281-2.786.281-1.003 0-1.953-.086-2.86-.259s-1.684-.432-2.353-.766z" class="B"/><path d="M319.148 566.784h-97.963v45.026h97.963v-45.026z" fill="#b2d3e4"/><path d="M247.708 598.791h-4.48v-8.085h-8.225v8.085h-4.469V578.95h4.469v7.913h8.225v-7.913h4.48v19.841zm19.184-16.204h-5.656v16.203h-4.48v-16.203h-5.635v-3.638h15.771v3.638zm25.992 16.202h-4.415v-11.874l.162-4.253h-.108l-.626 2.634-4.653 13.493h-3.648l-4.728-13.353c-.13-.356-.335-1.285-.626-2.764h-.13l.184 5.15V598.8h-4.027v-19.841h6.542l4.059 11.766c.323.94.561 1.89.701 2.839h.087l.788-2.86 4.059-11.734h6.379v19.819h0zm17.046.001h-11.821v-19.841h4.469v16.225h7.352v3.616h0z" class="B"/><path d="M473.061 619.753a4.7 4.7 0 0 1-4.696 4.695 4.7 4.7 0 0 1-4.696-4.695 4.7 4.7 0 0 1 4.696-4.696c2.601 0 4.696 2.105 4.696 4.696zm-4.685-17.388c2.593 0 4.696-2.102 4.696-4.696s-2.103-4.695-4.696-4.695-4.696 2.102-4.696 4.695a4.7 4.7 0 0 0 4.696 4.696zm0-22.086c2.594 0 4.696-2.102 4.696-4.696s-2.102-4.695-4.696-4.695-4.695 2.102-4.695 4.695 2.102 4.696 4.695 4.696z" class="H"/><path d="M201.991 689.49H.947s13.828-30.852 45.738-18.081c0 0 11.702-31.91 39.358-28.186s32.978 22.982 32.978 22.982 29.783-11.82 58.508 12.123c0 0 23.404-2.666 24.462 11.162z" class="L"/><path d="M932.274 380.033s.68-4.081 4.318-6.596 26.966-12.76 33.291-1.609l-37.609 8.205z" fill="#93405e"/><defs ><path id="B" d="M609.583 265.576h-2.958v-12.08h2.958v12.08zm0-24.159h-2.958v-12.091h2.958v12.091zm0-24.17h-2.958v-12.079h2.958v12.079zm0-24.17h-2.958v-12.079h2.958v12.079zm0-24.159h-2.958v-12.079h2.958v12.079z"/><path id="C" d="M581.332 467.145h-11.097c-1.77 0-3.444-.777-4.577-2.137l-13.645-16.289c-1.252-1.501-.194-3.768 1.76-3.768h11.097c1.77 0 3.443.777 4.577 2.138l13.645 16.289c1.252 1.49.194 3.767-1.76 3.767z"/><path id="D" d="M661.776 23.521c2.647 0 4.793-2.146 4.793-4.793s-2.146-4.793-4.793-4.793-4.793 2.146-4.793 4.793 2.146 4.793 4.793 4.793z"/></defs></svg>