<svg xmlns="http://www.w3.org/2000/svg" xmlns:xlink="http://www.w3.org/1999/xlink" width="325" height="206" fill="none" xmlns:v="https://vecta.io/nano"><style><![CDATA[.B{fill:#fff}.C{fill:#b2e5e0}.D{fill:#e9928b}.E{fill:#91415c}.F{fill:#3fb8a9}.G{fill:#dceceb}.H{fill:#ffab40}.I{fill:#4a4e73}.J{fill:#75354a}.K{fill:#408c91}]]></style><path opacity=".16" d="M292.331 158.527l-1.262-.702c-.798-.446-1.292-1.288-1.279-2.205l.003-.308-.003-.307c-.013-.913.478-1.759 1.279-2.205l1.262-.702c.997-.554 1.487-1.714 1.196-2.817-.003-.012-.007-.025-.013-.038-.295-1.099-1.304-1.859-2.442-1.843l-1.445.023c-.926.016-1.772-.49-2.221-1.298l-.272-.474a2.5 2.5 0 0 1-.016-2.58l.74-1.231c.586-.98.433-2.23-.375-3.037l-.029-.029c-.807-.808-2.057-.962-3.038-.375l-1.23.74a2.5 2.5 0 0 1-2.58-.016l-.474-.272c-.808-.452-1.314-1.298-1.298-2.221l.022-1.445c.02-1.138-.74-2.147-1.842-2.442-.013-.003-.026-.007-.039-.013a2.49 2.49 0 0 0-2.817 1.195l-.701 1.263c-.446.798-1.289 1.291-2.205 1.278l-.308-.003-.307.003a2.48 2.48 0 0 1-2.205-1.278l-.702-1.263a2.49 2.49 0 0 0-2.817-1.195c-.013.003-.025.006-.038.013-1.099.295-1.859 1.304-1.843 2.442l.023 1.445c.016.926-.491 1.772-1.298 2.221l-.474.272a2.5 2.5 0 0 1-2.58.016l-1.231-.74c-.98-.587-2.23-.433-3.038.375l-.028.029c-.808.807-.962 2.057-.375 3.037l.74 1.231c.477.798.461 1.785-.016 2.58l-.273.474c-.451.808-1.297 1.314-2.22 1.298l-1.446-.023c-1.137-.019-2.147.741-2.441 1.843-.004.013-.007.026-.013.038a2.49 2.49 0 0 0 1.195 2.817l1.263.702c.798.446 1.291 1.288 1.278 2.205l-.003.307.003.308c.013.913-.477 1.759-1.278 2.205l-1.263.702a2.49 2.49 0 0 0-1.195 2.816c.003.013.006.026.013.039.294 1.099 1.304 1.859 2.441 1.843l1.446-.023c.926-.016 1.772.49 2.22 1.298l.273.474c.477.795.493 1.782.016 2.58l-.74 1.23c-.587.981-.433 2.231.375 3.038l.028.029c.808.808 2.058.962 3.038.375l1.231-.74a2.5 2.5 0 0 1 2.58.016l.474.272c.807.452 1.314 1.298 1.298 2.221l-.023 1.445c-.019 1.138.74 2.147 1.843 2.442a.19.19 0 0 1 .038.013 2.49 2.49 0 0 0 2.817-1.195l.702-1.263c.445-.798 1.288-1.291 2.205-1.279l.307.004.308-.004c.913-.012 1.759.478 2.205 1.279l.701 1.263c.555.996 1.715 1.487 2.817 1.195.013-.003.026-.006.039-.013 1.099-.295 1.858-1.304 1.842-2.442l-.022-1.445c-.016-.926.49-1.772 1.298-2.221l.474-.272a2.5 2.5 0 0 1 2.58-.016l1.23.74c.981.587 2.231.433 3.038-.375.01-.009.023-.022.029-.029.808-.807.961-2.057.375-3.038l-.74-1.23a2.5 2.5 0 0 1 .016-2.58l.272-.474c.452-.808 1.298-1.314 2.221-1.298l1.445.023a2.49 2.49 0 0 0 2.442-1.843c.003-.013.006-.026.013-.039a2.49 2.49 0 0 0-1.196-2.816zm-21.384 10.805a14.02 14.02 0 0 1 0-28.039 14.02 14.02 0 0 1 0 28.039zm0-7.572a6.33 6.33 0 0 0 6.329-6.329 6.33 6.33 0 0 0-6.329-6.329 6.33 6.33 0 0 0-6.329 6.329 6.33 6.33 0 0 0 6.329 6.329z" fill="#f4d7c9"/><path d="M204.966 201.177s4.412-12.95 18.391-8.239c0 0 3.531-11.037 13.241-10.668s12.802 9.45 12.802 9.45 13.046-1.577 14.911 9.457h-59.345z" fill="#adccc7"/><g fill="#6eab9c"><path d="M234.514 201.108l-.551-.09c1.256-7.787-3.576-13.392-3.624-13.449l.42-.369c.051.058 5.053 5.852 3.755 13.908z"/><path d="M234.668 196.34l-.43-.359c.045-.055 4.467-5.342 5.22-8.656l.545.125c-.782 3.442-5.149 8.669-5.335 8.89zm-.237 2.794c-3.474-.189-6.55-3.769-6.678-3.919l.426-.362c.029.035 3.051 3.547 6.284 3.723l-.032.558zm10.94 2.254l-.365-.423c.25-.218 6.172-5.304 9.258-5.387l.016.561c-2.891.077-8.851 5.198-8.909 5.249z"/><path d="M256.904 200.4c-.048-.003-4.762-.288-8.579-1.275l.141-.542c3.766.971 8.425 1.256 8.47 1.256l-.032.561zm-35.13.695c-3.105-2.583-9.665-4.647-9.729-4.669l.167-.535c.272.086 6.729 2.118 9.921 4.771l-.359.433z"/><path d="M219.416 199.067l-.561-.016c.077-2.615-1.061-4.669-1.074-4.688l.487-.276c.055.09 1.231 2.205 1.148 4.98z"/></g><path opacity=".16" d="M195.02 148.946l-.737-.41a1.45 1.45 0 0 1-.747-1.285l.003-.18-.003-.179c-.01-.532.279-1.025.747-1.285l.737-.41c.583-.324.868-1 .698-1.644-.003-.007-.003-.016-.006-.023-.173-.64-.763-1.086-1.426-1.073l-.843.013a1.46 1.46 0 0 1-1.298-.757l-.16-.275c-.279-.465-.288-1.042-.01-1.506l.433-.718a1.45 1.45 0 0 0-.218-1.772c-.006-.007-.013-.013-.019-.019a1.45 1.45 0 0 0-1.772-.218l-.718.432c-.465.279-1.042.269-1.506-.009l-.276-.161c-.471-.262-.766-.756-.756-1.297l.013-.843c.009-.664-.433-1.253-1.074-1.426-.006-.003-.016-.003-.022-.007-.644-.17-1.321.116-1.644.699l-.41.737a1.45 1.45 0 0 1-1.285.747c-.061 0-.119-.004-.18-.004l-.179.004c-.532.009-1.026-.279-1.285-.747l-.41-.737c-.324-.583-1-.869-1.644-.699-.007.004-.016.004-.023.007a1.45 1.45 0 0 0-1.073 1.426l.012.843c.01.541-.285 1.035-.756 1.297l-.275.161c-.465.278-1.042.288-1.507.009l-.717-.432a1.45 1.45 0 0 0-1.772.218.35.35 0 0 0-.02.019 1.45 1.45 0 0 0-.218 1.772l.433.718a1.46 1.46 0 0 1-.01 1.506l-.16.275c-.263.472-.756.766-1.298.757l-.843-.013a1.46 1.46 0 0 0-1.426 1.073c-.003.007-.003.016-.006.023-.17.644.115 1.32.699 1.644l.737.41c.468.26.753.753.746 1.285l-.003.179.003.18a1.44 1.44 0 0 1-.746 1.285l-.737.41c-.584.324-.869 1-.699 1.644.003.006.003.016.006.022a1.45 1.45 0 0 0 1.426 1.074l.843-.013a1.46 1.46 0 0 1 1.298.756l.16.276a1.46 1.46 0 0 1 .01 1.506l-.433.718a1.45 1.45 0 0 0 .218 1.772l.02.019a1.45 1.45 0 0 0 1.772.218l.717-.432a1.46 1.46 0 0 1 1.507.009l.275.161c.471.262.766.756.756 1.297l-.012.843c-.01.664.432 1.253 1.073 1.426.007.003.016.003.023.007.644.169 1.32-.116 1.644-.699l.41-.737a1.45 1.45 0 0 1 1.285-.747l.179.003.18-.003c.532-.009 1.025.279 1.285.747l.41.737c.323.583 1 .868 1.644.699.006-.004.016-.004.022-.007a1.45 1.45 0 0 0 1.074-1.426l-.013-.843c-.01-.541.285-1.035.756-1.297l.276-.161a1.46 1.46 0 0 1 1.506-.009l.718.432a1.45 1.45 0 0 0 1.772-.218l.019-.019a1.45 1.45 0 0 0 .218-1.772l-.433-.718c-.278-.464-.269-1.041.01-1.506l.16-.276a1.46 1.46 0 0 1 1.298-.756l.843.013c.663.01 1.253-.433 1.426-1.074.003-.006.003-.016.006-.022a1.45 1.45 0 0 0-.698-1.644zm-12.482 6.307c-4.518 0-8.184-3.663-8.184-8.185s3.662-8.184 8.184-8.184 8.184 3.663 8.184 8.184-3.662 8.185-8.184 8.185z" fill="#f4d7c9"/><path d="M59.682 111.749H0s4.105-9.158 13.578-5.367c0 0 3.474-9.473 11.684-8.367s9.79 6.822 9.79 6.822 8.841-3.509 17.369 3.599c-.003-.003 6.944-.792 7.262 3.313zm202.343-79.537h49.809s-4.115-7.819-14.757-4.935c0 0-2.695-8.184-12.347-8.184s-13.056 8.184-13.056 8.184-8.796-.394-9.649 4.935z" fill="#edf6f5"/><path d="M263.619 143.559l-190.19 3.509-4.467-3.509V32.508h194.657l4.468 3.509-4.468 107.542zm0-119.031L73.429 28.04l-4.467-3.512V10.489h194.657l4.468 3.509-4.468 10.53z" fill="#b6d5d0"/><path d="M268.086 36.017H73.429v111.05h194.657V36.017z" class="G"/><path d="M133.483 47.291H80.691v27.175h52.792V47.291z" class="C"/><path d="M256.652 114.906h-55.31v2.208h55.31v-2.208zm0 8.767h-55.31v2.208h55.31v-2.208zm0 8.865h-55.31v2.208h55.31v-2.208zm-61.966-14.729h-.125c-.993 0-1.797-.804-1.797-1.797a1.8 1.8 0 0 1 1.797-1.798h.125c.994 0 1.798.804 1.798 1.798s-.804 1.797-1.798 1.797zm0 8.764h-.125c-.993 0-1.797-.804-1.797-1.798s.804-1.797 1.797-1.797h.125c.994 0 1.798.804 1.798 1.797a1.8 1.8 0 0 1-1.798 1.798zm0 8.894h-.125a1.8 1.8 0 0 1-1.797-1.798c0-.994.804-1.798 1.797-1.798h.125c.994 0 1.798.804 1.798 1.798a1.8 1.8 0 0 1-1.798 1.798zM144.43 82.553H89.119v2.208h55.311v-2.208zm0 8.763H89.119v2.208h55.311v-2.208zm-61.962-5.863h-.125a1.8 1.8 0 0 1-1.798-1.798 1.8 1.8 0 0 1 1.798-1.798h.125a1.8 1.8 0 0 1 1.798 1.798c0 .994-.804 1.798-1.798 1.798zm-.002 8.764h-.125a1.8 1.8 0 0 1-1.798-1.798c0-.994.804-1.798 1.798-1.798h.125a1.8 1.8 0 0 1 1.798 1.798 1.8 1.8 0 0 1-1.798 1.798z" class="B"/><path d="M268.086 13.998H73.429V28.04h194.657V13.998z" fill="#c6e0dd"/><path d="M101.832 21.019a2.02 2.02 0 1 1-4.044 0 2.02 2.02 0 1 1 4.044 0z" fill="#67b4d2"/><use xlink:href="#B" fill="#eb908b"/><use xlink:href="#B" x="-8.297" fill="#ffaa3f"/><path d="M273.156 102.617h-86.184c-1.852 0-3.355-1.503-3.355-3.355V50.777c0-1.852 1.503-3.355 3.355-3.355h86.184c1.852 0 3.355 1.503 3.355 3.355v48.485c0 1.855-1.503 3.355-3.355 3.355z" class="C"/><path d="M276.02 105.235h-86.183c-1.853 0-3.356-1.503-3.356-3.355V53.395c0-1.852 1.503-3.355 3.356-3.355h86.183c1.852 0 3.355 1.503 3.355 3.355v48.485a3.36 3.36 0 0 1-3.355 3.355z" class="F"/><path d="M224.703 58.009h-2.573v39.499h2.573V58.009zm-5.687 0h-2.574v39.499h2.574V58.009zm-5.685 0h-2.573v39.499h2.573V58.009zm-5.685 0h-2.573v39.499h2.573V58.009zm-5.688 0h-2.573v39.499h2.573V58.009zm-5.686-.001h-2.573v39.499h2.573V58.008z" class="B"/><path d="M224.704 85.14h-2.573v12.373h2.573V85.14zm-5.687-13.303h-2.574v25.672h2.574V71.837zm-5.684-6.649h-2.573v32.321h2.573V65.188zm-5.687 9.835h-2.573V97.51h2.573V75.023zm-5.687 6.401h-2.573v16.084h2.573V81.424zm-5.686 5.057H193.7v11.027h2.573V86.481z" fill="#c6e0dd"/><g class="B"><use xlink:href="#C"/><path d="M271.688 58.131h-22.002v1.423h22.002v-1.423zm0 4.205h-22.002v1.423h22.002v-1.423zm-9.825 4.162h-12.177v1.423h12.177v-1.423z"/><use xlink:href="#C" x="-0.001" y="18.055"/><path d="M271.688 76.186h-22.002v1.423h22.002v-1.423zm0 4.2h-22.002v1.423h22.002v-1.423zm-9.825 4.163h-12.177v1.423h12.177v-1.423z"/></g><path d="M324.341 200.783H0v4.505h324.341v-4.505z" fill="#aecbc7"/><path d="M270.376 72.981l-1.84-4.371s-3.403-3.589-1.471-6.486 10.124-3.589 11.918 6.992c0 0 2.897.093 3.403 2.897s-2.025 4.647-2.807 6.717-2.531 2.807-2.531 2.807l-3.266.506-3.406-9.062z" fill="#0c1b3c"/><path d="M290.204 131.823s-1.932 3.083-2.394 4.74-.874 2.163-.506 2.483 1.288-1.333 1.932-2.163.737 2.208.737 3.314-.531 3.083.068 3.127 2.14-2.531 2.692-3.589.304-7.912.304-7.912h-2.833 0z" class="D"/><path d="M285.213 193.497l-1.382 1.035s-1.035 4.003-.551 5.554h16.356s-1.586-2.279-4.832-3.295-4.211-1.362-4.692-2.259-4.899-1.035-4.899-1.035zm-26.017-.551l1.173 1.587s1.448 3.518.826 5.553h-13.664s.209-2.278 2.484-3.294 4.278-2.259 4.278-2.259l4.903-1.587z" class="H"/><path d="M299.636 200.089H283.28v1.621h16.356v-1.621zm-38.439 0h-13.664v1.621h13.664v-1.621z" class="B"/><path d="M290.113 194.533h-6.281l-.436-2.932-.458-3.073 6.691-.965.282 4.038.202 2.932zm-28.916-5.865l-.414 2.932-.416 2.932h-6.073l.381-2.932.378-2.932h6.144z" class="D"/><path d="M255.055 188.668h6.143l-.413 2.932h-6.108l.378-2.932zm34.856 2.933h-6.515l-.458-3.073 6.691-.965.282 4.038z" fill="#de6667"/><path d="M291.633 190.117h-9.8l-8.418-30.921c-.827-3.861-3.682-12.376-3.682-12.376l-7.361 43.294h-8.643s-.362-20.843 0-27.745c.289-5.512 1.756-23.086 3.25-31.838.378-2.208.756-3.852 1.115-4.601 1.794-3.727 23.739 4.278 23.739 4.278l.41 2.323 4.653 25.973c2.388 13.116 4.737 31.613 4.737 31.613z" fill="#5f6386"/><path d="M269.732 146.823l-3.291-11.639s-3.381 6.441-2.417 11.639-2.957 7.11-.173 12.651-1.224 9.774 1.478 13.238l4.403-25.889zm12.51-14.286c-2.593.558-5.781.558-9.646-.516-8.768-2.432-13.402-2.073-15.622-1.487.378-2.208.756-3.852 1.115-4.601 1.794-3.727 23.739 4.278 23.739 4.278l.414 2.326z" class="I"/><path d="M248.223 78.729s-.552-2.862.689-4.339 4.198.82 4.198.82 1.916 2.06.929 3.996-5.816-.478-5.816-.478z" class="D"/><path d="M286.001 102.52c-1.202 6.967-3.173 14.722-2.926 18.17.458 6.441.737 8.835 1.106 10.03s-5.429 2.208-11.687 0c-3.016-1.067-6.848-1.724-10.002-2.121-3.393-.423-6.008-.545-6.008-.545s1.749-9.296 2.301-14.174-.032-10.488-.032-10.488c-.279.218-7.124 5.451-10.646 2.06-.509-.49-.894-1.172-1.179-1.996-2.311-6.701 2.105-22.884 2.105-22.884l5.246.737s-.737 12.607-.276 12.7 5.429-4.416 7.823-6.166c1.339-.981 3.595-1.557 5.973-1.814a27.57 27.57 0 0 1 5.435-.029 31.72 31.72 0 0 0 5.329.679c2.32.494 4.948 1.349 6.909 2.817 2.045 1.538 1.577 6.983.529 13.023z" fill="#7dc4be"/><path opacity=".423" d="M284.177 130.721c.365 1.198-5.429 2.208-11.687 0-3.016-1.067-6.848-1.724-10.002-2.122 1.157-1.442 3.134-2.903 7.243-4.117 10.075-2.984.458-8.111 6.239-11.469s6.271-13.626 6.271-13.626l3.756 3.131c-1.202 6.966-3.173 14.721-2.926 18.169.462 6.445.737 8.835 1.106 10.034z" fill="#379690"/><path d="M278.557 86.68c-2.551 4.772-9.777 8.944-9.777 8.944-1.247-3.605-1.109-7.893-.987-9.598 1.865-.195 3.804-.192 5.435-.029 0 .003 2.419.058 5.329.683z" class="B"/><path d="M281.971 89.129c1.259-1.4 3.864-.183 7.085 4.509s5.98 15.09 6.534 18.68-.276 15.92-2.025 21.255l-4.701-.368-1.372-18.862c-.183-1.195-3.958-10.675-5.521-15.827s-1.657-7.547 0-9.386z" fill="#7dc4be"/><path d="M277.044 86.691c0 .692-1.012 1.884-3.496 2.346s-5.521-1.333-4.601-2.532c.342-.449.554-1.34.679-2.282.211-1.573.195-3.285.195-3.285s5.381-5.015 5.336-2.439 1.884 3.038 1.884 3.038c-.637 2.852.003 4.464.003 5.153z" class="D"/><path d="M275.16 78.499c-1.435 3.618-3.691 5.118-5.534 5.723.211-1.573.195-3.285.195-3.285s5.384-5.012 5.339-2.439z" fill="#de6667"/><path d="M254.272 81.306s-.182-3.877-1.32-5.195-2.096-1.077-1.9 0 1.067 2.968.224 4.759l2.996.436z" class="D"/><path d="M252.931 186.672v3.81h9.649l.874-3.81h-10.523zm28.459 3.81h10.911l-.317-3.81h-11.748l1.154 3.81z" class="I"/><path d="M288.503 196.565l-.266-.09c.013-.038.324-.91 2.183-1.592l.096.263c-1.711.628-2.01 1.41-2.013 1.419zm2.103 1.051l-.269-.071c.016-.057.388-1.41 1.929-1.836l.074.269c-1.385.382-1.721 1.586-1.734 1.638zm2.56-.023l-.278-.026c.003-.032.077-.817.586-1.349l.202.192c-.439.461-.51 1.176-.51 1.183zm-36.755-1.98c-1.404-.542-2.83-.507-2.843-.507l-.009-.278c.064-.004 1.496-.039 2.951.525l-.099.26zm-1.613 1.032c-1.515-.67-2.659-.747-2.669-.75l.016-.279c.048.003 1.198.08 2.765.773l-.112.256zm-2.439.502c-.429-.387-1.592-.567-1.605-.567l.042-.275c.051.006 1.256.195 1.749.637l-.186.205z" class="B"/><path opacity=".423" d="M260.035 96.185c-.971 2.519-1.288 7.207-1.288 7.207-.279.218-7.124 5.451-10.646 2.06-.509-.49-.894-1.173-1.179-1.996 1.948.269 3.615 2.32 5.922-.061 3.583-3.705 7.191-7.21 7.191-7.21z" fill="#379690"/><path d="M268.536 68.609s-3.82 10.489-.919 12.607 7.546-2.714 7.546-2.714 1.977.093 3.038-1.519-.782-2.317-1.609-1.801-1.794-.269-1.15-2.246.276-2.07-.968-1.794-5.8-1.98-5.938-2.532z" class="D"/><path d="M289.699 186.726c-4.063-30.353-10.796-53.481-10.863-53.712l.804-.237c.068.231 6.82 23.422 10.889 53.837l-.83.112z" class="I"/><path d="M81.029 70.219s-1.304-4.352-1.304-5.746 1.275-5.31 1.987-5.396 2.102 7.572 2.714 8.617-.522 2.525-.522 2.525H81.03zm-64.993 96.465l-4.627-5.099 1.775-1.82 3.592-3.682 4.432 4.881-3.461 3.826-1.711 1.894z" class="E"/><path d="M17.747 164.79l-4.563-5.025 3.592-3.682 4.432 4.881-3.461 3.826z" class="J"/><path d="M11.408 161.585l4.627 5.095s-.253 4.406 1.721 7.105 2.506 4.582 1.602 6.582L5.595 165.206l5.813-3.621z" fill="#fdab3f"/><path d="M15.99 168.508c-1.07-.776-3.586-1.475-3.612-1.481l.074-.269c.106.029 2.589.718 3.701 1.522l-.163.228zm.205 1.473c-1.272-.535-3.256-.32-3.275-.317l-.032-.279c.083-.01 2.08-.224 3.416.34l-.109.256zm-2.129 2.029l-.102-.26c.054-.022 1.355-.525 2.605-.605l.016.278c-1.202.077-2.506.584-2.519.587z" class="B"/><path d="M5.606 165.198l-1.101.999 13.765 15.162 1.101-1-13.765-15.161z" class="G"/><path d="M51.172 121.316l-.247 1.295-1.859 8.527c-1.106 4.515-2.528 9.418-3.99 11.94-1.692 2.916-8.656 9.069-14.699 14.11-5.14 4.284-9.614 7.764-9.614 7.764l-9.357-9.6 19.884-18.148c.522-.698 2.82-10.838 3.692-18.846.378-3.467 1.439-7.162 2.522-10.238 1.416-4.029 2.871-6.996 2.871-6.996l9.053 3.307.09.849.878 8.512.776 7.524z" fill="#489da2"/><path d="M50.927 122.61l-1.859 8.527c-1.106 4.516-2.528 9.419-3.99 11.94-1.692 2.917-8.656 9.069-14.699 14.11 1.448-7.88 10.77-7.172 9.389-12.933-1.436-6.006 4.57-8.358 2.176-16.19s1.48-13.055 1.48-13.055l7.502 7.601z" class="K"/><path d="M69.984 60.035s-1.583 1.218-2.714 3.746c-.442.987-.814 2.173-.997 3.563-.654 4.961-9.271-.391-9.271-.391l4.179-8.748 3.422-1.827 2.666 1.814 2.714 1.843z" class="E"/><path d="M57.005 65.714s.683-2.128 1.647-2.208 8.015.952 8.341 2.589 0 2.685 0 2.685l-9.989-3.067zm26.723 7.552l.695-3.221s-3.221-.836-4.438-.679-2.349 3.9-2.349 3.9h6.092zM65.623 90.065s4.512 1.211 14.049-7.354-7.912-5.182-7.912-5.182l-6.137 12.536z" fill="#f5911f"/><g fill="#040707"><path d="M82.077 169.057H53.012v.839h29.065v-.839z"/><path d="M64.305 200.887l-8.848-40.682-8.848 40.682-.82-.179 9.258-42.566c.042-.193.212-.33.41-.33s.368.137.41.33l9.258 42.566-.82.179z"/></g><path d="M64.527 176.815h-6.883l-.154-2.538-.311-5.133h6.589l.509 5.133.25 2.538z" class="E"/><path d="M64.277 174.277H57.49l-.311-5.133h6.589l.509 5.133z" class="J"/><path d="M57.643 176.815h6.883s3.092 3.151 6.419 3.5 5.076 1.224 5.951 3.236H56.419l1.224-6.736z" fill="#fdab3f"/><path d="M62.325 179.754l-.151-.237c.093-.058 2.272-1.435 3.615-1.714l.058.272c-1.288.273-3.499 1.666-3.522 1.679zm2.318 1.371l-.228-.163c.048-.067 1.231-1.689 2.548-2.301l.118.253c-1.253.58-2.429 2.195-2.439 2.211zm2.508.728l-.263-.099c.022-.055.522-1.359 1.301-2.333l.218.176c-.75.936-1.253 2.243-1.256 2.256z" class="B"/><path d="M76.896 183.554H56.419v1.487h20.477v-1.487z" class="G"/><g fill="#040707"><path d="M93.455 200.887l-8.851-40.682-8.851 40.682-.82-.179 9.258-42.566c.042-.193.212-.33.41-.33a.42.42 0 0 1 .41.33l9.258 42.566-.814.179z"/><path d="M78.77 184.621H49.625v.84H78.77v-.84z"/></g><path d="M68.657 173.182h-14.1l.276-27.672c0-2.97-2.817-7.876-5.762-14.375-1.195-2.641-2.41-5.544-3.467-8.691-1.474-4.393-2.355-8.175-2.881-11.126-.776-4.355-.776-6.893-.776-6.893l7.575.849 11.053 1.24 2.714 9.809c2.397 8.829 5.534 20.833 5.64 23.618.173 4.528-.272 33.241-.272 33.241z" fill="#489da2"/><path d="M63.288 116.327c-3.057-1.289-6.204-2.522-9.332-2.365a18.54 18.54 0 0 1-3.564-.173c-2.846-.401-5.48-1.381-7.678-2.468a33.61 33.61 0 0 1-5.214-3.204c1.416-4.028 2.871-6.996 2.871-6.996l9.053 3.307.09.849 11.053 1.241c.006 0 1.218 4.281 2.721 9.809z" class="K"/><path d="M107.144 72.44S95.393 83.931 91.999 84.713s-15.93-3.265-18.019-3.134c-.945.061-2.939 6.701-4.829 13.956-2.291 8.768-4.441 18.426-4.441 18.426s-5.874-2.349-15.407-3.002a21.66 21.66 0 0 1-3.817-.593c-6.64-1.663-9.107-5.935-9.107-5.935 9.402-13.449 9.53-25.201 11.492-32.51s9.793-7.835 15.667-6.005c2.602.811 8.226 1.827 10.838 2.743s16.061 6.137 16.975 6.137 12.011-6.268 12.011-6.268c3.521-.006 3.784 3.913 3.784 3.913z" class="H"/><path d="M103.574 69.344s2.263-2 4.179-2.782 4.525-2.391 4.525-1.545-2.349 2.044-2.349 2.044l7.159-.65s-3.157 3.198-5.679 3.807-5.745 1.74-5.745 1.74l-2.09-2.615z" class="E"/><path d="M124.291 40.648l-43.106 3.595 2.083 24.981 43.107-3.595-2.084-24.982z" class="F"/><path d="M121.908 43.468l-37.902 3.161 1.649 19.776 37.902-3.161-1.649-19.776z" class="B"/><g class="F"><path d="M89.685 66.36l7.374-15.645 9.861 14.206-17.234 1.439z"/><path d="M106.137 65.018l5.701-12.1 7.626 10.988-13.327 1.112zm-1.382-12.638c1.419-.07 2.514-1.277 2.444-2.697s-1.278-2.514-2.697-2.444-2.514 1.277-2.444 2.697 1.278 2.514 2.697 2.444z"/></g><path d="M65.135 173.287h-.84l-.112-31.244c-.144-5.942-10.508-30.046-10.61-30.29l.769-.333c.429.997 10.533 24.496 10.681 30.6.147 6.031.112 31.014.112 31.267z" class="K"/><path d="M69.151 95.531c-2.291 8.768-4.441 18.426-4.441 18.426s-5.874-2.348-15.408-3.002a21.66 21.66 0 0 1-3.817-.593c.218-.244.455-.481.715-.711 7.864-7.05 10.806-2.349 14.654-7.441 2.875-3.807 5.666-4.019 8.297-6.679z" fill="#f5911f"/><path d="M73.454 48.021l1.436-1.503s.131-2.676-2.567-6.159-4.265-2.176-3.047 0-2.439 1.045-5.701.609-5.961.026-4.352 2.147.218 2.205-3.788 3.861-3.394 4.092 0 4.352 1.134 2.262-1.477 5.047-.612 4.352 2.263 2.785 3.483.173 2.525 2.612 2.439.349 4.003-1.394 1.131 1.304 3.525-2.525c2.397-3.823 7.182-9.832 7.182-9.832z" fill="#0c1b3c"/><path d="M69.984 60.035s-1.583 1.218-2.714 3.746c-1.907-2.025-.811-5.505-.811-5.505l.811-.087 2.714 1.846z" class="J"/><path d="M74.893 46.521s-.436 4.419.391 6.682 1.654 2.349.654 3.221-1.654.695-1.871 1.698.218 4.438-2.307 4.352-5.224-3.698-5.483-4.615c0 0-2.653-.872-2.698-3.089s2.134-2.961 3.003-1.916 1.827-.304 1.871-1.958 1.09-4.002 2.871-3.874 2.612-1.653 3.57-.5z" class="E"/><g fill="#f2baab"><path d="M179.146 204.57l.417-1.512c2.268-8.223-2.26-14.043-2.455-14.289l-.657.522c.042.054 3.986 5.143 2.596 12.293-1.138-2.244-4.471-6.743-13.014-7.172l-.042.839c10.758.539 12.742 7.727 12.761 7.797l.394 1.522zm-17.363-9.594a1.99 1.99 0 1 0 3.98 0 1.99 1.99 0 1 0-3.98 0zm22.607 0a1.99 1.99 0 1 0 3.98 0 1.99 1.99 0 1 0-3.98 0z"/><path d="M174.084 187.465a1.99 1.99 0 0 0 3.98 0 1.99 1.99 0 0 0-3.98 0zm5.482 15.59c.974-3.717 5.476-6.867 5.521-6.899l-.477-.689c-.196.134-4.801 3.358-5.855 7.377l.811.211z"/></g><path d="M125.499 182.264c3.782-5.579 8.015-9.386 14.658-13.485s14.629-3.211 18.067-4.384 3.035 3.112 1.564 7.015-.497 22.746-19.689 26.521-17.391-11.546-14.6-15.667z" fill="#f2d6c8"/><g fill="#f5b89b"><path d="M136.78 187.583c-.022 0-.045-.003-.067-.009-.151-.039-.24-.189-.202-.34 1.586-6.275-.862-12.953-.888-13.02a.28.28 0 0 1 .164-.359c.144-.055.304.019.359.163.025.068 2.535 6.906.903 13.354-.028.128-.144.211-.269.211zm-.131.727c-.112 0-.218-.068-.26-.18a.28.28 0 0 1 .161-.362c6.008-2.333 15.353-.237 15.75-.147.151.035.244.185.212.336a.28.28 0 0 1-.337.212c-.096-.023-9.575-2.151-15.42.121-.039.013-.071.02-.106.02z"/><path d="M134.309 193.44c-.032 0-.064-.006-.096-.016a.28.28 0 0 1-.167-.359c5.915-16.17 23.178-26.091 23.351-26.187a.28.28 0 0 1 .382.105.28.28 0 0 1-.106.382c-.173.096-17.256 9.921-23.102 25.892-.041.113-.147.183-.262.183z"/><path d="M143.507 178.874c-.093 0-.183-.044-.237-.131a.28.28 0 0 1 .086-.385c4.118-2.592 12.678-.862 13.04-.788.15.032.25.18.218.33s-.18.247-.331.218c-.086-.019-8.7-1.756-12.629.715-.045.029-.096.041-.147.041zm3.306-3.331c-.044 0-.092-.013-.137-.036-.135-.077-.183-.246-.106-.381 1.359-2.419 1.279-7.021 1.279-7.069a.28.28 0 0 1 .272-.286c.157 0 .282.122.285.273.003.195.083 4.8-1.349 7.354a.28.28 0 0 1-.244.145z"/></g><path d="M69.823 202.433s.42-10.79 9.229-15.514 15.081 1.548 15.081 1.548 4.682-13.462 17.875-13.014 14.126 11.466 14.126 11.466 15.026-4.236 23.396 3.932c8.55 8.342 6.832 12.139 6.832 12.139l-86.539-.557z" fill="#adccc7"/><g fill="#6eab9c"><path d="M92.131 201.148c-.055-.048-5.602-4.705-11.79-6.874l.186-.529c6.287 2.205 11.908 6.928 11.966 6.976l-.362.427z"/><path d="M77.711 199.517l-.256-.497c.163-.083 4.07-2.038 11.258-1.041l-.077.554c-7.015-.974-10.886.965-10.924.984zm30.67 1.369l-.474-.298c.007-.01.689-1.106 1.526-3.15 1.477-3.612 3.412-9.675 3.143-20.586l.558-.013c.269 11.02-1.689 17.157-3.185 20.813-.856 2.093-1.539 3.189-1.568 3.234z"/><path d="M109.243 199.178l-.34-.445c5.733-4.368 13.697-4.804 13.777-4.807l.025.557c-.077.007-7.873.433-13.462 4.695zm2.874-8.323l-.538-.15c.538-1.904 6.268-9.037 6.512-9.342l.436.35c-.058.076-5.903 7.348-6.41 9.142zm-1.852 3.503c-1.788-2.765-4.547-9.838-4.662-10.136l.522-.201c.029.073 2.852 7.319 4.611 10.036l-.471.301zm19.779 6.137l.753-.538c.071-.051 7.22-5.118 14.876-5.474l.025.558c-5.992.279-11.687 3.522-13.757 4.829l7.428-.259.019.557-9.344.327z"/><path d="M135.923 197.598l-.528-.182c1.176-3.429 3.656-6.669 3.762-6.804l.442.343c-.026.029-2.532 3.304-3.676 6.643z"/></g><g class="C"><path d="M249.775 18.011c4.937-.073 8.881-4.134 8.808-9.071S254.449.059 249.512.131s-8.881 4.134-8.808 9.071 4.134 8.881 9.071 8.808z"/><path d="M253.22 5.998c-2.317-1.256-3.592 1.948-3.592 1.948s-1.295-3.198-3.602-1.926c-2.605 1.436-.272 6.066 3.624 8.075 3.884-2.035 6.188-6.682 3.57-8.098z"/></g><path d="M251.801 19.429c4.938 0 8.941-4.003 8.941-8.941s-4.003-8.941-8.941-8.941-8.941 4.003-8.941 8.941 4.003 8.941 8.941 8.941z" class="B"/><path d="M255.39 7.396c-2.317-1.256-3.592 1.948-3.592 1.948s-1.295-3.198-3.602-1.926c-2.605 1.436-.272 6.066 3.624 8.075 3.881-2.032 6.185-6.681 3.57-8.098z" fill="#eb908b"/><path d="M293.019 59.46c3.869 0 7.005-3.136 7.005-7.005s-3.136-7.005-7.005-7.005-7.005 3.136-7.005 7.005 3.136 7.005 7.005 7.005z" class="C"/><path d="M294.906 60.871c3.868 0 7.005-3.136 7.005-7.005s-3.137-7.005-7.005-7.005a7.01 7.01 0 0 0-7.006 7.005 7.01 7.01 0 0 0 7.006 7.005z" fill="#edf6f5"/><path d="M294.908 51.436l2.4-1.263-.458 2.673 1.939 1.891-2.682.391-1.199 2.429-1.198-2.429-2.683-.391 1.939-1.891-.458-2.673 2.4 1.263z" class="H"/><path d="M80.691 125.703v-22.236s7.742 1.958 9.819 8.95 9.264 9.931 12.998 7.691 3.518-8.252 8.466-10.351 7.989 3.077 13.796 8.813 13.552 6.854 19.634 1.679 11.96-6.572 16.558-1.817 6.672 5.175 11.928 4.195 8.652 3.076 8.652 3.076H80.691h0z" class="C"/><path d="M182.537 132.581H88.493v2.051h94.044v-2.051zm-99.169-1.145c-1.199 0-2.166.971-2.166 2.166a2.17 2.17 0 0 0 2.166 2.166 2.17 2.17 0 0 0 2.166-2.166c0-1.195-.968-2.166-2.166-2.166z" class="B"/><path opacity=".144" d="M80.691 125.703h101.847s-2.153-12.309-10.037-12.309-5.941 10.851-16.106 8.082-11.27-19.41-22.194-20.25-13.553 14.687-19.221 14.687-6.775-6.457-13.966-6.864-6.774 10.222-12.03 10.78-8.431 3.916-8.293 5.874z" class="F"/><path d="M169.134 74.42h-22.275a2.43 2.43 0 0 1-2.429-2.429V49.716a2.43 2.43 0 0 1 2.429-2.429h22.275a2.43 2.43 0 0 1 2.429 2.429v22.275a2.43 2.43 0 0 1-2.429 2.429z" class="C"/><path d="M171.928 77.173h-22.275a2.43 2.43 0 0 1-2.429-2.429V52.469a2.43 2.43 0 0 1 2.429-2.429h22.275a2.43 2.43 0 0 1 2.429 2.429v22.275c.003 1.343-1.087 2.429-2.429 2.429z" class="B"/><path d="M155.539 71.248l10.912-7.64-10.912-7.64v15.279z" fill="#67b4d2"/><defs ><path id="B" d="M91.512 23.041c1.117 0 2.022-.905 2.022-2.022s-.905-2.022-2.022-2.022-2.022.905-2.022 2.022.905 2.022 2.022 2.022z"/><path id="C" d="M244.694 64.132c.628-2.663-1.021-5.331-3.683-5.96s-5.332 1.02-5.96 3.683 1.02 5.331 3.683 5.96 5.331-1.02 5.96-3.683z"/></defs></svg>